<mxfile host="65bd71144e">
    <diagram id="0aLzRzcEThXXUeamSvBV" name="Page-1">
        <mxGraphModel dx="1606" dy="784" grid="0" gridSize="10" guides="1" tooltips="1" connect="1" arrows="1" fold="1" page="1" pageScale="1" pageWidth="1169" pageHeight="827" math="0" shadow="0">
            <root>
                <mxCell id="0"/>
                <mxCell id="1" parent="0"/>
                <mxCell id="23" value="kubernetes cluster" style="rounded=0;whiteSpace=wrap;html=1;verticalAlign=top;" parent="1" vertex="1">
                    <mxGeometry x="137.42" y="126" width="584" height="429" as="geometry"/>
                </mxCell>
                <mxCell id="8" style="edgeStyle=none;html=1;" parent="1" source="5" target="7" edge="1">
                    <mxGeometry relative="1" as="geometry"/>
                </mxCell>
                <mxCell id="9" style="edgeStyle=orthogonalEdgeStyle;html=1;" parent="1" source="5" target="11" edge="1">
                    <mxGeometry relative="1" as="geometry">
                        <mxPoint x="585.42" y="249" as="targetPoint"/>
                    </mxGeometry>
                </mxCell>
                <mxCell id="5" value="argocd" style="rounded=1;whiteSpace=wrap;html=1;verticalAlign=top;fillColor=#d2edf7;fontColor=#000000;" parent="1" vertex="1">
                    <mxGeometry x="815.42" y="192" width="121" height="81" as="geometry"/>
                </mxCell>
                <mxCell id="7" value="github workflow" style="rounded=1;whiteSpace=wrap;html=1;verticalAlign=top;fillColor=#bac8d3;strokeColor=#23445d;fontColor=#000000;" parent="1" vertex="1">
                    <mxGeometry x="815.42" y="343" width="120" height="78" as="geometry"/>
                </mxCell>
                <mxCell id="21" style="edgeStyle=orthogonalEdgeStyle;html=1;entryX=0.577;entryY=0;entryDx=0;entryDy=0;entryPerimeter=0;" parent="1" source="10" target="37" edge="1">
                    <mxGeometry relative="1" as="geometry">
                        <mxPoint x="315.92" y="611" as="targetPoint"/>
                    </mxGeometry>
                </mxCell>
                <mxCell id="46" style="edgeStyle=orthogonalEdgeStyle;html=1;fontColor=#FFFFFF;" parent="1" source="10" target="43" edge="1">
                    <mxGeometry relative="1" as="geometry"/>
                </mxCell>
                <mxCell id="10" value="vault hashcorp" style="rounded=1;whiteSpace=wrap;html=1;verticalAlign=top;fillColor=#000000;" parent="1" vertex="1">
                    <mxGeometry x="255.92000000000002" y="439" width="120" height="89" as="geometry"/>
                </mxCell>
                <mxCell id="17" style="edgeStyle=orthogonalEdgeStyle;html=1;entryX=1;entryY=0.5;entryDx=0;entryDy=0;" parent="1" source="11" target="16" edge="1">
                    <mxGeometry relative="1" as="geometry"/>
                </mxCell>
                <mxCell id="11" value="mittward&lt;br&gt;replicator" style="rounded=1;whiteSpace=wrap;html=1;verticalAlign=top;fillColor=#1d285d;" parent="1" vertex="1">
                    <mxGeometry x="533.42" y="192" width="120" height="80" as="geometry"/>
                </mxCell>
                <mxCell id="20" style="edgeStyle=orthogonalEdgeStyle;html=1;" parent="1" source="12" target="10" edge="1">
                    <mxGeometry relative="1" as="geometry"/>
                </mxCell>
                <mxCell id="12" value="external secrets&lt;br&gt;operator" style="rounded=1;whiteSpace=wrap;html=1;verticalAlign=top;fillColor=#032e49;" parent="1" vertex="1">
                    <mxGeometry x="255.92000000000002" y="313" width="120" height="94" as="geometry"/>
                </mxCell>
                <mxCell id="13" value="namespaces" style="rounded=0;whiteSpace=wrap;html=1;" parent="1" vertex="1">
                    <mxGeometry x="189.42000000000002" y="181" width="193" height="42" as="geometry"/>
                </mxCell>
                <mxCell id="14" value="namespaces" style="rounded=0;whiteSpace=wrap;html=1;" parent="1" vertex="1">
                    <mxGeometry x="199.42000000000002" y="191" width="193" height="42" as="geometry"/>
                </mxCell>
                <mxCell id="15" value="namespaces" style="rounded=0;whiteSpace=wrap;html=1;" parent="1" vertex="1">
                    <mxGeometry x="209.42000000000002" y="201" width="193" height="42" as="geometry"/>
                </mxCell>
                <mxCell id="16" value="namespaces" style="rounded=0;whiteSpace=wrap;html=1;" parent="1" vertex="1">
                    <mxGeometry x="219.42000000000002" y="211" width="193" height="42" as="geometry"/>
                </mxCell>
                <mxCell id="24" value="" style="endArrow=classic;startArrow=classic;html=1;exitX=0.5;exitY=0;exitDx=0;exitDy=0;entryX=0.5;entryY=1;entryDx=0;entryDy=0;" parent="1" source="12" target="16" edge="1">
                    <mxGeometry width="50" height="50" relative="1" as="geometry">
                        <mxPoint x="311.42" y="326" as="sourcePoint"/>
                        <mxPoint x="361.42" y="276" as="targetPoint"/>
                    </mxGeometry>
                </mxCell>
                <mxCell id="26" value="change&lt;br&gt;main branch" style="text;html=1;strokeColor=none;fillColor=none;align=center;verticalAlign=middle;whiteSpace=wrap;rounded=0;" parent="1" vertex="1">
                    <mxGeometry x="834.42" y="423" width="83" height="30" as="geometry"/>
                </mxCell>
                <mxCell id="27" value="gitops" style="text;html=1;strokeColor=none;fillColor=none;align=center;verticalAlign=middle;whiteSpace=wrap;rounded=0;" parent="1" vertex="1">
                    <mxGeometry x="729" y="207" width="83" height="30" as="geometry"/>
                </mxCell>
                <mxCell id="28" value="external secrets&lt;br&gt;resources" style="text;html=1;strokeColor=none;fillColor=none;align=center;verticalAlign=middle;whiteSpace=wrap;rounded=0;" parent="1" vertex="1">
                    <mxGeometry x="415" y="201" width="123" height="30" as="geometry"/>
                </mxCell>
                <mxCell id="29" value="sync secrets" style="text;html=1;strokeColor=none;fillColor=none;align=center;verticalAlign=middle;whiteSpace=wrap;rounded=0;" parent="1" vertex="1">
                    <mxGeometry x="236.00000000000003" y="268" width="86" height="30" as="geometry"/>
                </mxCell>
                <mxCell id="30" value="unseal" style="text;html=1;strokeColor=none;fillColor=none;align=center;verticalAlign=middle;whiteSpace=wrap;rounded=0;" parent="1" vertex="1">
                    <mxGeometry x="257.42" y="562.51" width="77" height="30" as="geometry"/>
                </mxCell>
                <mxCell id="31" value="watch" style="text;html=1;strokeColor=none;fillColor=none;align=center;verticalAlign=middle;whiteSpace=wrap;rounded=0;" parent="1" vertex="1">
                    <mxGeometry x="858" y="276" width="83" height="30" as="geometry"/>
                </mxCell>
                <mxCell id="33" value="" style="shape=image;imageAspect=0;aspect=fixed;verticalLabelPosition=bottom;verticalAlign=top;image=data:image/png,iVBORw0KGgoAAAANSUhEUgAAA+gAAAI7CAYAAAB/frHRAAAACXBIWXMAAAsTAAALEwEAmpwYAAAgAElEQVR42uzdB5yc1XkvftvgxMTOTfnf3Jsex/FNcnNzb/4lVGlVXXFMYuzYCVWAkARCFQHG2ATcG8YktjHBBTvYyIptjHd3dlcFAQKB2NkydXvTrsqWqW8/9X/OO7PSSpotkmZm3139vvh4pNU2jXbez/zmOed53vAGAAAAAAAAAAAAAAAAAAAAAAAAAAAAAAAAAAAAAAAAAAAAAAAAAAAAAAAAAAAAAAAAAAAAAAAAAAAAAAAAAAAAAAAAAAAAAAAAAAAAAAAAAAAAAAAAAAAAAAAAAAAAAAAAAAAAAAAAAAAAAAAAAAAAAAAAAAAAAAAAAAAAAAAAAAAAAAAAAAAAAAAAAAAAAAAAAAAAAAAAAAAAAAAAAAAAAAAAAAAAAAAAAAAAAAAAAAAAAAAAAAAAAAAAAAAAAAAAAAAAAAAAAAAAAAAAAAAAAAAAAAAAAAAAAAAAAAAAAAAAAAAAAAAAAAAAAAAAAAAAAAAAAAAAAAAAAAAAAAAAAAAAAAAAAAAAAAAAAAAAAAAAAAAAAAAAAAAAAAAAAAAAAAAAAAAAAAAAAAAAAAAAAAAAAAAAAAAAAAAAAAAAAAAAAAAAAAAAAAAAAAAAAAAAAAAAAAAAAAAAAAAAAAAAAAAAAAAAAAAAAAAAAAAAAAAAAAAAAAAAAAAAAAAAAAAAAAAAAAAAAAAAAAAAAAAAAAAAAAAAAAAAAAAAAAAAAAAAAAAAAAAAAAAAAAAAAAAAAAAAAAAAAAAAAAAAAAAAAAAAAAAAAAAAAAAAAAAAAAAAAAAAAAAAAAAAAAAAAAAAAAAAAAAAAAAAAAAAAAAAAAAAAAAAAAAAAAAAAAAAAAAAAAAAAAAAAAAAAAAAAAAAAAAAAAAAAAAAAAAAAAAAAAAAAAAAAAAAAAAAAAAAAAAAAAAAAAAAAAAAAAAAAAAAADhLu3bJi3YdHL5k/4B8y9SFewYAAAAAAADgHO3fLy/W4fpn4fHfCyWs/yfUmnt/Q8S8uTaS2xKKGZ9tiNtfq48ZT4aixq46tdSvd9ZHzYa6SP5gfdR45cSKGS+r22fV+on/fhFjp/qYRwsfb95fFzfubIjZH6ptM1bsTrr/I/Ra6r/sSshfeeihh96EfwUAAAAAAAC4YDzXKX+9MeH9r7r23Hvr2vO3qiD9GRWkn1Zh+yV1O6R+n66P5k11S9TbZGPSkXu7uXy+V8p9PUL9mp1Ye7qo3N3hnbH026e+n/5YvXZ3EtmQsKX63EwtV62cCvDj6uvG1Neqq40Yj4US9l217fkPNSbsy/SLBfgXAwAAAAAAgAWvNuH8cW00f6UKv2tCMeNbKhC/0BC3e9RtSi1eCN3cD9RNHa4fnhvilgzpFTP9Va9X1Cjbmvy8oZjlfy299IsAOrz7Yb5PysaEI/WLBOr9DquPCddF898Pxc2toaixPBTL/pmu9uNfFwAAAAAAAALp2bbMb6ow/pcqyN6kQu2362PGC/WFirjQwVcHYF3dbkwWgniozMG73CHeD+4qqDfpqnwxvBeCu3FUb6WvjeSf9P+u7fk/f65z/NfxEwAAAAAAAADz4uCwvKQuZvzP+oixWQXVZ1RojdZFDU8HcB1o93RSvzId5CB+9sv0Q7r/YoNaTervqt7u1cfMcH3E/E4oal7f0OG8/Ylw+M34CQEAAAAAAICKqU+YvxuK5v9BBdEvqVDapgKr3Ziw/TPiOqyeXxg3T6y6iCFr1aorLl2FV7f+0r+e65r8mLopn6v2xOec/HrnX23XVXZ9HxT//ll1u7s+lr8nFMldsX9gAF3lAQAAAAAA4PxIKd+owuxf17Ub6+qj+V+oUH5Uh1B9bvxkddyccwCfGpSnroa4Ifd0WM6+Tst6ods2X+q1+Mv9tnxtyJGHDjuyZcR1o8e9lF6xUS/XlSKZjhRJT7+8nH4//f6RY142POIK/XleHXTky322fLHH9l7otiz19eymhCFCsVNfEJjywsDZn2+PW4Ut8T06sFtWKGok1O3n1J8vO3hQXoKfKgAAAAAAAJiTh/bvv7hJhfJQwr5bhdQDKnSmJs+QN87x7LgfcKcE8sa4SXcnTXdfl8UP9KvQPeTaKjinEuPE7EpT2Z0hsj9P3SGT2YdtZo/YjI84XKrbwtK/Pptln/57dmIdUb9XX4Mctrk9YFC3N0tEd4bK5LjHIse9bPOwa76svkf9vTYlTa8hbvJTgvtZBPZCAzrXr677neMLuw6+FEraV+j57fhpAwAAAAAAgFP4lfJo9h0qPG5Xa5/eur6neM66OJZs+jAeLYRxXYEORU3WkDDZ812WODhgm21HPUOFcBXAqTeQp+awxdiwCs/DKiifufiJddhiFV1Tv9b03wtjKsBbXWnK4qOeaDnimgf6bLKnwxINMX9MmzibwK67xjcVR8Cp31P1+5dDcfPeuqj7DvwEAgAAAAAAXOAaE7nfDkWMjzTG7R/Vx4x8U7HB28xVcvPEufBQzBB7kqZ4pd+29Dby5Jhn9+eoedj0g7AYcTgvVK6rE7wrE+QLlXd1K9TvxZDJeE+WmJFRjx4acr0Xemy3MW7Kswns+v71m8ypwF4XzWca4tZTtVHr6u/vx3l1AAAAAACAC4ZfLY/lr2pIul/TY9D0Nuw9XWzGUD65vTukfv18l+W80u/QyDHP6c0QvU1cB3A6uRV9IQbxs10nt9Azrn7PB/KMJceJdWjIkS/2WF5DfEpjutnCurr/9RECdctDUTNSH7O3NEWyf4qfVAAAAAAAgEXquVbr9+vj1tr6SP6lUMyy/UZv05wpryuG8nq1didMcqDPFu1HXaM7Q+igyYgKp+xCCeNzq7SzE2fd1e9pb5by2Khnvtxvi70dFp1LWPe7wSddfwt8Q8I6EkpYj/+yLXcpfnIBAAAAAAAWifpo+n+HosajobjVp8Pf7g7Pb15WulKuwnrM4Hs6TP7qoOMkxgntN5g74m/vPnk+G6F85rA+uVRoF4MmJ/Fxj7522HH2dFh8civ8TFV1PWtd/1uFoqat/j1+VteafRdmqwMAAAAAACxA+/fLixui1tUNKtypwOfohm+6m/h029d1aFShnDWPuHZyolglt7lAIC/nOXb//DrVL3ocGnLd3QlTzBbWQ/7xA7+pHGuI23tDMeNjCOoAAAAAAAALQFNEvjUUNa9XYW6/WtQ/21xqC3tEz/3Oy6aEyV7ps73kOLEHDcoKTd2wdb3iW+HV/dxvMBod9chLvTZpiJszNpjT/4Y6qDcmbKHW8w0J6xoEdQAAAAAAgACqf938XRXkNqrVrjuDT9eJvdjoTezvtvwmb305SvXos8J5cgToqof1wg4F1pOlJDzselPPq8/U/b0hbotQ3DrQGLM+8AYp34hHAAAAAAAAwDwLtRq/E4rZO0Ixo0dXWJs63GmD+e6ERV8ddNzONPFUKKcI5YGrrItBg9HYcc99sddmoRm2v08G9VDMovUxq/a5dmMlHg0AAAAAAADzYJcfzM0doYTd7c/TLnG+vLhdWuxNmrT1iOv05amHc+UL47y6WqwjRejBAUdvf+fTB/XCGfVQ3HLUv/fTz7Wk/w8eHQAAAAAAAFXww6bjb62PmreE4ma33speqvFbIcyZYn+XRSLHPG/QmGz4hlC+8LbAc9GTpe7BQcdrTM4U1Atn1OtjZqY+Yjz084jx3/BoAQAAAAAAqIBQj/zVuphxbUPCCutt7I1JZ7pu7PLFXpskxok95J8tZ9jGvsBXYb465705Sg8Nu3SmoN5Q7Poeilk99VFzzff3D7wFjx4AAAAAAIByhfOosbw+Zu7RI7d01fz0M+b+VvaYIV7ssWhi3HOHbV44X45wuxi3v4veLGGvHbZpY8Jk0wV1vbNCv4jToH5uaqP5K/EoAgAAAAAAOA9NEedPG+LWk6GEbU/XlV2fMX++0w/mnh/MbTR+uxC2vuugrju/Hxx0aChWupnciY7vCdtsiNuPYNs7AAAAAADAWfph5LieZX5vY8I+UmwAVnI7+z4VzKPHPeewxVkxtCHAXngVdd6ZIuxAr031izV1M2x7V0G9szHm3IhHGAAAAAAAwBw0RZ1lKpi/uFs3gEuUPmfemDB5y4jrDZn+qDSBYI6Kup5lHxvzyL4ua9pt77rTvz8/PWY+/Wxb5u14tAEAAAAAAJTQmMj9dl3UeFQFKEtvSy4VzFWw4gcHHLc3R8kRh3N0Zcc6pZmcCup6jnrLiEsa49Nve9/bzfTtYF3MvAGPPAAAAAAAgCl0d/ZQ1Ij725BLb2cXz3dbrGOCuCO23s6OYI4102g2JnoyxW3v05xPL1TTLT2W7YeopgMAAAAAwAUv1Hrsd1RA+k4oZjG9pb1U1bwhZrIT29kRzLHOrpEcj40Srylp8trI9LPTG5LOYH0k9894RAIAAAAAwAWpti2zoiFhtRRmVpslw/kLPRbrzhB3xGE4Z451jtveudDz01/p95vIybppzqarn0F9Nv3r+qgFHp0AAAAAAHBB2JUYe1soZny2PmbZuzu9aZvAtR1xXRWwGII5Vnm2vXMeG/PY7o7Ss9NPVNMTVktdJF+DRyoAAAAAACxqTdH8XzbErD3+bOq4fUZIqo3k5QvdNunJEk9XPnHWHKvc1fS+PCMH+x1SHyk9ks3/2Uw6WRXSd4TD8s141AIAAAAAwKKjwtA/NsbtYV2lLDUCKxQzRHjEtQ+b81k153LI8l8U4GqRIYvhRYJFODtd//tGjnm0MWGWbCDXkLBlU9KRoYS5MxRJ/SEevQAAAAAAsCh8f2DgLaF241OhmMkak27JLe17kxZNTBA6YjM+n1vaj7ncyxDBDCpck4pUxuN0zON53WwM4XbRVdNlV5pOPzddb3nv9vsjROojucvxSAYAAAAAgAXtFzH7j1TQqW3q8FTQKTE+Ta0DvZbXn6fuiMPnMawxZhBOCBeMcSG4kJJLKZkQknJBVFi3VKBzq1nlPbH074vrjPebZc36/lO+zgU8N529Nmhz9fNYcst74WfXzIRixh14RAMAAAAAwIJUF8tfpYJN0t/SflqXdj8IxQwePuJSvd14PgOiDqoqgFMVxoUK4/L0pQK71IHdosJQ78vKvNXa//q6mjvih3Euh0zKB01qD5jU6jMp7TOo7Ml7vCNH0smsOx7PuMfjGS8dzTijkZRDo2lXRtNOieXKWMaZiKcd9THORCLjDnfmyHh33nP05+w3KB8wmTVoUfOw+jrDxe9hZOqLAhdAcC++CCKixz2vMV7Y0XF6SG9MOGrZQoX0x0Ovpf4LHt0AAAAAALBwwnnU+EcVzsd1w61SW9r3dFgsOe7ZIw7n8x0Cx1ymwrksGc5PWyzl8fTh8/h+Rxwhi7PcxaDFvEGTcRWWeVeOZJJZL6vCt4ykHdaWcozWlJNrmXBIy4QtwyXWdG8Pz+H9/V+nbKY+f15/nWjG9eJZTyRzXqor52V0eB+yGFXLm/y+F3tYVz+LojtD+XRb3vUOEH/Le9zeV9+e/3M8ygEAAAAAINCklG+sj5n3NyQcT1cdS84277a93iyhOhDNdyhTAVTmCeds9nDuV9EdJgz1ce5cwurIya3j+u/JVSDnPXmS7sh5biLr6hCeVeHYD+Bq8fC4LSbDs3q7v4p/VrE19esUvzb3l377hG1F0m42oYJ7MbTnD1uc610Ew4VAuyir6f0GIy/326TUdne99I6QUMzoqWvPrMQjHgAAAAAAAungsLxEBfBHdSO4UNwqGc5f6bfdAYOSIIU7gxa2sc8W0JkK6OrWOuZwq1RAP3Fe3OZCd3/vz1OzO09IMuPZkZSrK9U6BNNiCK5KAC9HeC9W3an6tX5RwYpndZWd0EJg948niMV0jr3YpJC9Puz659LrS55Ld/WYwHR9NHcdHvkAAAAAABAoz7bJ3wzFzKcL1UWzVOVRNA871K++BizIzTWgF0K6kOMeN4emBPLJLesDJnW7c4TH026+Pe3SlpTjqWDLdDW6JeBhfM7rZMWdt044bnva9vTW/F6DkkGLOYWgvvDPruu/g56ZHjnukoaYIaY7l65COq2L5e/WO0dwFQAAAAAAgHn3s/D476lQ3ri3m5UM56G4wduPeaQwQi1Ywc3f4k4Fn2tA19vc1fuP6ECuPpb0G5R1ZLx8NOMyHVhVcBVTw+yiCOUzhPXCrws7AyIp10lkiNmTJ64+Xz9ZWV+wIb14Lj057rm7k9PMS4/reel6dGD+kf37B96CqwEAAAAAAMyb51py76yPW22lmsH5W4HjJu2YIPZ8zjafLaCnXE5U+BZzDegplw0lsp7XnnLswnZ1p3B2fLEH8rkFdv0ChVD3jZHIuG6vQezDxV0TCzWsH1EhvStD6fNdlqgt2TzOlPrnPxQ3f7Q/MfY2XBUAAAAAAKDq6lszf1IfNVv9MWol5pvvTpqsO02coIbzyYB+VH1/Hps5oLPC9nY+5lC3Pa0buzmi9UIP5LOcX9dBXW/xj6bdXFfOc/URAPWzsCCr6vpnuC9H+f6e0h3e1eNAFl6kyod+fij/f+HqAAAAAAAAVfPLQ8f/tCFmtUwXzvd2WbwnS80gh/MpS5hU6Aw+bXM4tciISazW1JQt7FhzD+u6wdyE4yazXr7fZK6+zydnrS+kDu8DecoO9NpebWTGDu+Nuw4O/zauEgAAAAAAUHHPtjlvny6c6+Ci50j35igdceYzUHHpzyufXDO9r/rzUYcxFcbJZEhnxcWFkB4XXr/hOWGE7fJsg0/ZJJp2rZ6856r7no4soIq6DulDJmMHBx1aN21IJ7IhYb7wbFvm7bhaAAAAAABAxYRi2T8LRc3SlXMVWF7ssb2+PHPnK3QN+V3VGR93uZWnYiJHxdiYyw31/fDD04xGU29n/nnpvOcYhHuEca7DuscET3vMSmZcEh5HuC7fKs5dTzksknKcHoNYhwPY3X+mkD5sMXpo0HWnnZWuGyaqx4l+vOCqAQAAAAAAZfdcIvfO+pgZ21OiIZwO5y/12nTQmNdO7SJFOPFUuBZCcL14cREu3VGX23o++cjJeeW836BeNO3o6rjf6K0t5Yhk1nW7sm4ukXE8bGmvyuJ+UM8Vg/pCCek2Y80jLqufLqTrx4l6vCCkAwAAAABAecP5a+Z/V2EjPEPlvBjO56dqfszhzKLc9YO5lP7W9KlLFt7mZQi3+0xqdeU8Fs94ORUOWbhUhRcN4Oajqs4iqcLWd/3iSdAr6v7Pus1E87DDp9/uzvTtC42JHM6kAwAAAADA+auLZn9LhYym6cK5rpwPzFM411XztMcpE4IIKc4I5qeHdIdxV4VBv2KOEB7UM+qO7vxu9hnUHrYWxCx18fqMIZ3KUMRo3N+W+U1cTQAAAAAA4JztOjh8SSiSe2ZvNysZzvd1WZ4K56TaZ84LVXPGbSYcFb2FEDOH80JAF+KoTV00e1swi8RUUB+wmBvkkK5fmFKLN4+4fPoz6SqkR/P1teGjv4arCgAAAAAAnH043yUvCsWNJ/R851DMPDOcd1qiL091OBdVDUT6rLnHCNWnzOcQzPXS/1HOSTzjUATfhbPtPTxuyba043Xq8+km5cPB3vIu9Jn0kpX0WGFOunocPb1//8BbcHUBAAAAAICzUh/J39+YdEuG8z1JU+hRatXc1q6r5kdsxlRO84rN3+Rcl1QB/ZhNHXRjX5jb3ltTDm9POXaPQQoz1ANYUS9MBGD0Vd3dfbqQ3kH0dvfPqR/IN+IKAwAAAAAAc9IQN/6pIW5TtU4N51FTNiVN1p2hdjVDkg7n4y7nhAtPnEUwL1TPpbQocyNphyPwLuwVnrBZPONagxYjwQzpflCnBwftkpV0/WJXU4cr6iK5rbjKAAAAAADArGqj+SsbYuZEU9I5I2A0xk3aMUHMI051t7XniPD8He3y7MK5pkK925F1PZw9XzQVddGWcuxeg1pB7PauQ/qQydhLPTYpFdIbErZajlsfyX4YVxsAAAAAAJg+nCecPw7Fza7dHd6Z1b+oyRJjxB6pYjjXW9ot6s80F1ycSzjndk/OZQjni7Dbe7GaPmRW96jFXEO6nmzwQk/pSnpj0tHV9FRtJPv/4qoDAAAAAABnODgsLwnFjJ+XGqemlmg75pFqNukadTkhXLql5prPJZy7jDsdWZcgnC/qJSIpx+k1iHPiHHiAQnpvlso9HaYsFdKLL4K1Noat38PVBwAAAAAATtBNq+qj5pd0p+lS49QODTlkxGa8WnOlUx7XTeDouZw3l1KwtMtYLONQhPPFv1oLs9O9ZMa1h2xOghbSuzKUNiUMUWoEmz++MJKvxfg1AAAAAAA4IRQzPtaUcGkoZp0Rzl/ud1wVNEi1wnnO4644y/Pmojjn3GWcDZnEbZ2wBcL5BRfSWTTtGAMm84I0jm3EYSIxQYh6jIlSM9L1i2K10fwX3oDO7gAAAAAAEEoYf1UfM4/rkWqnh/PnuyxvwKhOx2w9T13lc+dsm8HJwhZ4OuFSL5pxF3nV3Cms1DRr8s8v3C7vsnXCdnryNK9+ZkVgQrr6XlqPurRUFT0Ut2RTh+fVtmc/hqsRAAAAAMAFbH9Cvk2FhJf2dNLTxqkZcnfSYr05SkacyofzoyrAOExQeRbN4Ao1cyEMwtzuvOcuqmCedmU4Q2VzjstwjvNwhugRcaJ1zJCtoznZdjyjVnbKKvxe/3nLuKU+3uPhHOP+x6vPoz/fBdVALuWQjqxnBGlmun7B4NCwW7JpXFOhadyxupjxP3FVAgAAAAC4QIWixsN79LnzmHlqaIgZPDHmWZXu2D7kh3PGPCa4zttn2aHdPWwSp23C5uGFXDVWgVIFcNmsgrQfpjMebz8ybnVGW3n/gQY53PAjc3TXY9nMv99PzK+tl85n/0mST31QrWumrA9K76FrpfXVtTL7jW1y7OkvGCN1PzQGXqwTXZEW3j4y6qivIcJpz/9a4az6Wlnm/7rYEX3R7TTwZ6ZnXXfQYl4QQnph/BqlL04zfk1vda+LmnubIsffiisTAAAAAMAFRoXydzckbFtvsT09LISHHRVqWMXD+XGHUY/7Y9TmXjVXOT7tMTuWdhbu+LSUWwjlusKdskmip0f0vbrXOr7r657x9TuE9/CHPXbfu4XccoWUmy+V/u3WK9W6SsptS6TYvlTKUmvrVVxuUu+38TJPbvjbrNxwqcO3r864D35k1Pr8rYbx5TvsiX//tH04tFN2N7/KYt19VFfdm/OyENpVgF9sgb19wjEHTOaMBCSk92YJ29Nhlm4a509QyD+CqxMAAAAAwAXkuZj531VA72g6bd653xSu16KFrcEVDCsqLKlw7jEhvLmeN9fRnHGhvjfitqYcHl6IW6919ToveduxDOuMR5xjP/0mNR7d4JEHPlAI434QL4RwHbjF3cvmvrbWMHHXUiruXCrERvWxxSXvVJ/vDhXaN6jPveFyKdfrpUL/+isYufcDxPzi7XLsu593+19s4PHeft42mhPhvPAD+6II6+rvoEK602NQEoR56SMOk8lxwkKlzqPHTNmYsN1QNPd+XKUAAAAAAC4QtZHc46Xmne/psLxCtbGSIaUQzikXZK4zzotzza2unOuFF+J58hwXreMWT3Yk3dFdj1H7izd5OlTLLVcWKuNnG8ZLre3LmNhcQ6eG89mWH979wH6ZH+L55pXM/PIGfuzHj3ndzQdZ2/GsKGyJZ4shqNPOrGcNW5wHoWlc8xGHTTsfPWZ0hyL2H+JKBQAAAACwyDVErasbdJXutK3tegxUxwTxKtsUTodzrsI5P4twLqRFuZvI6nC+cCq6k+fK20fGSf/+50j+X7d4/N7VhUr5tqvOP5BPtzbXMLFxCT+boH4isG9cUgjs6y6V4q4aYT/0z+TYM//GO9pbaMu4WTi3niYLtwN+ymYdWWKogMwCMIpNvNRjiVIhXW91r4vkv4OrFQAAAADAIlYbzv/Xumg+sfu0re31EVO0HPGsI07lqovFM+dnG85F1mNeNO0smPFpfsU5x3msp5ceee47rvvpj7DJSrnYXlO5YD51balxVOCm8hxC+sm1pLA1/va/lXzzcm58YS0dbPwpj/YO8hMN5hZgcz7dPC6Z8XLD89zhXW+378lS2tRh8roSW90b4jatixnX4qoFAAAAALBIqXD+tT3d7Ixz5y/12t5hk9HKndHlctTlpHDmfM7b2lnKpbStON868OEv4xWCeW8/Ob7rMY9+8u9UML+80NStGqH8jJC+zNUhXZxXSJ/cCr+kcIb99ksFue8aNvaDL5OORIL7L0bozvMLKain/A7vIp7xTPWzyYfndas7k/Fxj9eXOI/e1OHqcYc9te0Tf4ArFwAAAADAIhNKGKtCccs5fWt7U9JkvVniVKqaqCvnxxzOCOdz6tZeOHEu+DGbOK0TjlgQHdlzXMT6B93RnV8n5JN/xwvb2JfOTzA/tZKuQzqRZQjpJ8K6rqqvv8w/rz7xxIOsIxo5Mb5toYT01lRxDFvazesz6fNcSRevDpU+j677RNRF8/+OqxcAAAAAwCKy6+DwJfXR/Kt61vLp1fO2Yy4dqWA4P2Jz4THB5tKtvThGjY461FIhSgR+1naWybbRHDm8Z5fjPfihQsV8ewCC+Skhfal3rmfSZ62qF4P6+Pc+zxLdvVyfuddN8RbSdvd4xsurgM7nc6v7QJ6KfZ3mGefR9Vb3UMwitTFjBa5iAAAAAACLRF3E3Lq7xEi1A322rpyTSlUQdbdqhwk618q5uuVHTJILj9uBDud+xThLWU/4Zdf88q3U78Q+X1vZ59Q4bhkTd5Y3oJ/SWG7dpZJufw87vvPfaGR4VDTn2IIZ0aZDeiLj5Q7PYyVdh/SOFKGhklvdPR3UX286Lt+KKxkAAAAAwEIP583Zd4Ri1khj0jl1nFPCpL056lYqlOgmXOp/jtD71edWOefDJnHC41agq+bNWSYjQ0fY6H98yRX3rOR+87egBvOTI9j0dndaiYB+ysi2dZdJ58GPMT1TXdNolyAAACAASURBVAV0sRC2vU/Z7m6okD5vjeP0WfhDQw6tay8xeq2T6K7uO3A1AwAAAABY6AE9kvtWqcZw0eOeHqkmKjVCKk+5Dud81nBeWOSISfItqQBXzvU88ywVvQf3Oc5nPsYL29lrgh/Oi0vevYyLTTWu3LhUVDSo62Zyd1zB049/gsV6B0Rzji+IxnHqlicynjmsG8fNQ0jXAX3AoGxvia3ujQlHhuLm0VDM/TNc0QAAAAAAFmo4j9lXNSVdY2pjOH9re6/tqUBQka7t+tx5yit0hJtrt/ajNjXCEw4P7DboLJVtx7Nk9MdfIWLHcl7ROeaVWjvU2raMibvK2zRu2hFt6y+T3n3XsP6XGrk/Oz3lBj+kpxzakSXzdia92NWdlurqvle/yBbJP4mrGgAAAADAArRLyovq241n93TTU6txMZN1ZyitVJVwzPPHqTExl23tKsOPOsQJ9pZ2LpOdHTz/9Y1EV83FAqqal1zbanTDOF75kK47vl+hbmvE6I+/TtuOZ8UC6fTOO3PE1N3V5+c8Ohev9Nn0zIZxlp6Nbja05S7F1Q0AAAAAYIGpj+Te15CwqX5iP7V63jzsOiMOq0iF8KjNGOHCE3OrnIuUy4gKRCKo49Oai1vayQMfEHLLlQs7mJ/c6i7ElhpHBXQuqhDSxZ2FJnL5R+5i0f4hGdYN5IJ+Ll2F9B6DePOy1d1msjdL2e6EKepKjl0zntMvvuEKBwAAAACwQNSG5a/VxYwDp45VM+WeDpMOmLRiwcNmc5t1rlvCZT3mtaWCO9u8Je3ykdrv0cKW9iWLIpxPaRonxGY9fq0KAX2ymq5CuvPgP4mutmamx9MFPqSP226fUbkmirOF9JYjLis5di1uiYaEdQ2ucgAAAAAAC4QK42tO79quloiPeu6Iwyty7jxHOBFzOHeumZR7kbTDwoFsBufJlnGTjf/HF6jcdpUI3Fzzsm11X0bEXUtpVUP6hssl3fYe1vPqCzTolXT9s9mWcuxKvqA10xo0Gd/bZfLTQ7o/di1qvrY/MfY2XOkAAAAAAALu4LC8pD6af33q3HP9JP+lPttVT/xZRc6dO7opnJy1ei7V8hh34xmHBDKcZ4hsO5bxUt990JNbdSO4msUZziebxm2pIaJaW91PnEu/UrKtq8jgnmeZbr4X9HnpsbRr6cdNtUO6bhgXHfPOqKL7IT3pqsd07p9wtQMAAAAACLjaqHn96dXzUMzkXWnijTgVOHfuMEq5ILo2PltTOKberzvvueGJ4IUy3cCs7WjGy33jbs9vBrdYg/npW9031bjVDOiTM9PFxiV8sPGn3N/uHuSQnnJYR1Y3jePz0TROHOizRKkqen0sf+jgQXkJrngAAAAAAAHVdFy+9YzqedSUBwccd9iqTFdqk3ImZ9naXpx1zodM4gU2nB/LeNlvbidyyxUXRjg/2dXdExtrmJyXkL60GNKp3zE/qJ381S3pNohdibGEs51F70xT2hAzxClV9Jgpd3cSXh/J/TOuegAAAAAAARWKmtc3dXhCN5OafDLfEDd4b46Scm/R9eedu5zwuZ0752MuNVuCOOvcD+dZL/etC6hyfnpX9001TrWr6IXt7oVK+sC+X7Jwjge3YVzKUcv25uM8ugrp/OCgc8bYNf9FuEi+edfBYVTRAQAAAACCZldi7G3qiXu4qfPUs+eHhhxrxCn/9lw9Uo1yQcUcmsIZhNP2dADDedqT7cfSbu5b28sWzv2mctuWFual66V+rd8mgzw/fbs/G73qVfTJSjrfspL0HdhNg9zdPVw4j26on31azZA+or5Wd5pwXUWvO62ju3qs84a4gbPoAAAAAABBU9eeubYx6Z5SPW9Kmqwvr6t+FdnaPuu8c/3nhHEvmXVJ0La2h/UotQmbZZ58gMotl51vwC2s+1ZR8elrbPGFDwvx1eukeEStL39Uis/8vSM+8R73xPsFMaRv8hvGyfmppF8pyT1X045YNNghPWWzzjyxh6t8Fn3EZuKVAfuMhnF7Ov256HswFx0AAAAAIED2S3lxfSS3Z8+Uuef6yXzzsOvpJ/fl3to+4TKm4/dsW9vVf3zAIG5z8Bp/6eq5GH3mESK3Xnme4VyFzPvfzcRjN7viB1up2PlxT/zkE1L85P7C2qV+vfN+Iv5jOxHfXGuJB95LgxjS+dZlTIVlOm8hff3l0n74ehEdGPZ7AgT2PHrK9voMao9UsYquX2DrzhB2+ll0fy56zGKNMesDuAoCAAAAAAREbTR3dShu8snqed1k9TxHSbmDxBEV+AkXbA7nzsWYQ5xAVkJznA/t+U9Hbl0iziss6499+BoufriN+GF858el3HmfFM+cuqS+VX/mv48O6g9/kAcwpAuxeem8VdH9kL7uUpl57B7aOm6KlsIOh0CeR4+kXGvIYqTKZ9HFwQHnzCp6F1Uh3XhWPd7ehCshAAAAAMB8k/KNKpD/595udkr1/LVB2xtxOC93UDCoIHKW6rnmMO5G0g4LBy6cM9nV8prH7l3N/fPi5xPOH7yaih/toH74fua+uS39vk+rj/nk+1mQQrosjF2j4q7qzkUvEdLF0V2P0+BW0f1KOu/IeU7Vz6JnKGuIl6qim059wvy/cTEEAAAAAJhnoYTxV/XRvBmKWVM6t5u8J0vcYaecAYLLUYdTJgQTs5w750KSnpzrBi6cp4mM9g9R9zP/KOTWq86/4vzkHZ5fFZ9rOJ9c+mO+vZ4EdS66nMeALnTTuE3LRe8re3lzQM+jt/pz2y3aZ9KqhnQ9KvHlXvvMju76aEvcfARXQwAAAACAeVYbzT9yytnzqClfG3KcYbvsc8+Fw+bStV2IUYc6KpyLYJ07d/XZc5r71t3O+c469yvvn/kHInZ+nJ91OJ+soj9zLxMPfcANXHf3rTVUjz6b1yr6hiuk+4kP0ejAiNCd9oNaSY+kHFs9LlgVm8XJ5AQ5Yy56Y8LVt8P7E+bv4ooIAAAAADBPQq3G76gn5n2NSXfKlleDd2W8ss5r9meee/7Mcz5zUzgpHcq89rTNAnfuPMvEcOiH7nk3hZusNP/brdxvAHcuAV0t/pP7dad37o9kC1Ylfd63uReaxl0mU088yFrSrvCb+gVy9JrDuvPV3equXyh7qdfipc6iq7fdgasiAAAAAMB8BfRI7qbdp3VuP9Bre8NlruodsTlT6ZzoAD7z1nbB+vJe8EaqZalMJuMOu/+99LzOnU+ue1Yy8dRWU57N2fPTG8fpbe7fvN1Wn48Hbqv75qX2fAf04vg1Prjvl1z3DQhqV/e2CdsdMCmpVkjXVfTYmHtGs7imDk/WR/IvPxEOvxlXRgAAAACAKtu/X15cHzOe393pnayeRw2RHCdOOeee6+p5hnAi5lA9T3lMd20P3tb2cZPm/21zmarn/rxzKX50zzmH8xMB/XubMuKe5TRwAX3rMhqMgH6FdB74CIsOjohwJqBb3VMOT2aJVb1u7lwOGozt7bT4Kc3i4pZsSrr2c/H8ElwdAQAAAACq7LnY+N82JmyjIT7ZHM6U+7osb7DM1bwjNmOE62w+czinXNBE1iVBawynG40NNe70VDgX5WmkVgjo8rwD+seleGprVty7IlABvdjNXY9bc2QQQvq6y+TYD77EwgE+i96asmm/Ub0qun4BrmXEJadX0QuTHMyv4eoIAAAAAFBlddH8F/f18FO2t7cecfRotbJWz3PUr57POFZNh/ejNrWDFs5bMkRGB4Y98uA1VG5fIssW0O9dJcSP7qHnXUH/zsac2LGcBa6CfrffzZ0FoYou7lwi2ablvKstzMPZoG51t0Us41oqOPNqBfTeLOGNCVPUndIszpb1MXNwT1/6N3CFBAAAAACokpc75a+rgN7TmHSmPDk3eW+uvFW8ozbnlAs289Z2oWeek/a0wwK29ViGM5SP7vyae75d289YO1Yw8d1NeXkuI9amBvR/XaNnoYugBXS5Q91uWWaKO5eKQGx1X3+ZzD2yibWO5mVQG8apRfoM4o1U7yw6f3nAOeUsup6J3ph0eV3MuBZXSQAAAACAKmmIWNeoJ+JMPyGfrJ6/0m+rcFDe5nB5IqiemzbLWDU+aLpec+C6tlPZGW23+b2ruSj3KLNt6vN9/UYmfnKOXdx1c7md93PxuQ95ZWlaV4m1rSYQ4fzk6LUrxcC+50g4x4N6Fl3G0q49bHNWja3uullcYpyU3OZeFzWe3iXlRbhSAgAAAABUmErEb6yPGU8WzpueeGIukmOeXc7t7Udt5lfPZ+zcrv7MosxuSwVtrJojw2mPp7/7Sa/s1fPJOej/8neeP8v8XKvnT20l4r4KvHhQ3nFrtgxMQL9c2p++kbUfS4uWtBvAc+jqZ27Cpn0mrcrYtWG1Bg3K93Zap1TRCz0p8qndrdbv42oJAAAAAFBhz6kn3uqJ+LGGuH2ier6v0yLqyXoZq+dc5gj3ZmoMVwzovC/vekE7ex7OMNkVabH53cuFuLuCAfiJ9a48l1nouoL+xY+wAM5AP3XW++YaGqgq+vrL5OGGXaw5oFV0/TiI6iq6xUSVtrmLQ8POaSPX9DZ3R4ai+dtxtQQAAAAAqLCGqLFu6tnzOvWEPDziWiNlbFB1RD3x9zu3y5m2tktpUu62BjEoZSlNf/dTFamen9Is7oH3CvGDbVzM9Sy6DuY/uV+If13jBvHs+Rlry1KugrEIzjb3K6T98HWs/ciECAe0iq6W11+tKrr6Gt0Z6oZihpi6zX1PF9VV9GcfkvJNuGICAAAAAFSIysQX1UXzzxWegJ9oDMX0k/RybW/XndvTnt+5fcat7erPWb9Bglc9z1KZTMQ8fu8qWvHt43qr+4NXM/H9zUTsul9IHcCnC+cqxMud91Hx6A2e2LEsyFvbpzSKq8mpYBysKvqGy/jAvloW4I7uMpFxcyo8V6WKrh6v4oWe07e52+q6YEw825F5O66aAAAAAAAV0hSz/6guZoyf2N4e9be388MmY3r0UpnOtgqXCSpm6dxuU+61Bu7suR/QxfGdX7PklsurtBVcBcePv4uLx26i8gfbXBXGhfjJx4XYeWKpgH4vFd/eQOVn/p4EPZif1iiOBamCPnkW3fjSOtIyYQW2WZy6pQMm86rULE60HnNp7WnN4po6XFnfnv0orpoAAAAAABXSkDDX7O7wztjePlzGuefjLmd67PlsnduHTOKFxwMWjtKebD98zPb+5R+o3Lakiue1awrrvtVMPni1EF/8R1d85WMp8eV/ysrPXcvFA+/lerZ4YDu2z1RJvys44dwP6Heqf9e7anh380Ea5LnoHVnPqcZZdP0iQE+WklDc5FMD+u5OIusiuWdw1QQAAAAAqJBQzPj5ni5ycnu7elLemSJlq57rgG4z7s3UuV1z1PtE0g4NWjBqznEx8Pyzttx8+Tyd7y4GdRXEZXH5FfaFVDU/9e/DxaalebkxYCF93aVy4jufZuG0F8iArs+it0041pBJaTW2uauQzvd3W2LqNvempCvrovme2q78f8WVEwAAAACg3OE8kvrD+ohxuKnYIK64vZ0MWdQt11baYyqd++Xzmba3q3XUplZ4wgng1mKL5x/b6MqtVy3QQBy4pQJ6TTpoAV3cuUTSu99HY72DIqghvSVls+4cyY44oioj11qPuO7UgB6KmXJPJ6WNUfNduHoCAAAAAJQ9oOc/2NThydDk9nb1ZPzQkOOVs3qeJVyfPRczNYejXNBExmVBaw7XkiEy3tWVZ/e+i8u7axCuy7P0qDUSuIC+cYmU6y8Xw8/9gIbzIqDb3B09cs1Rjy1ahXPosjNFTunkrtfebibrY+bncfUEAAAAACgz9YT7G1O7t+vVMUGscjaH87ggs2xvF2mXuS0pmwdue3te8qM/+6Yrt1whEKzLuLbWBCycn5yJnvvqnaxlzBDFxmyB2+aubt1+g1a8WZz+/IMWI8932rTu9EZxUePVXbt2XYQrKAAAAABAmewfkG9RT7Q7G5Nu8cm3KXcnLbcvT2k5nvzr6vmYw2dsDFdcvNfw7OBtb3dl61iemF9dm5fbsL39ggjoavEtK2m8uyew29z1LpNkxjNHqtHN3WHytUGHnzJuLWHLukg+0xDJ/wWuogAAAAAAZRKK5K5QodwOxa0T29sP9NpkxC7P9lkd0E3qHz+fsTmcRbndnnICVz3X29tj3T02v3clAnXZA/oyJjYu4YEM6RuukMO1/0HCOR7YkWvq8eINmtWoojMZH/NOOYc+2c29NpK7CVdRAAAAAIAyUeF8295uPvWJt2g96jojTnme9B+xGaNilu3tKr2PWMQLpxwRuEplTsiR0NN5ufVKbG8v54i1HXoW+jJDhWFHBnKb+6Uy86/bC93cA7jNvVhFpz0GJcMV7+TOZG+WyKakKaZuc9/dRXRDyefUQ/tNuJICAAAAAJynhx6SbzpjvFrMED1pYpUjoBe2tzM+e3M4zpI5zw2ngte9PZzjJPf4Dk9uuQLB+kIK6HdcKd37P0SjgyO0Jajd3NWKZ9zMcBXmoauvQV/stb26iDllFKOld9zYDTHz/+BqCgAAAABwnvaE07+hnmgfbYjbhSfdEUPuSZp00GBiuFzb2wl3Z9rergN6njAnkAFIBbPo4BHXe/jDlj93HMG63AHdFnct9YK4xb2wzf1y3tV8UISzNLABvT3teIMWJZXe5q67ub9+2BGltrnXRfPfxdUUAAAAAOA8NcRzl9ZHTVfPNS7MPzfly/22OazPn5ehg/tIoXu7mPn8uRCHTY+GxwO4hVgFs6621125bQlC9QVWQZ/s5n7k50/ScIYG9hy6uvV6csSqdLM4vaMmOe7Z+gjM1ICurx2NCdsNRawP4ooKAAAAAHAeQtH8vcVxSf6qbTdkyxFX6K7N5aiej7qcMiHYLLPPSSLjkJaJ4J3z1cFsuOFHE3LLlQjVF2JA33C5zD661Q5sQC+G9ETGs4Ytxiu6zV2t/jzjjQlTnj4TXU+ACMWtY/Ux8924qgIAAAAAzECfMy/VxOkXsdQf1UXzHU3JkwE9FDVpZ4pky3P+nMos4VTH8OkDupA5j5Gghh8dzLKP76ByKwL6hRrQ7YdvkK3HczKILyBNzkRvSzm5oQoHdH+ZjL/QY5PTt7mfCOkxwwhF8p8IRew/xJUXAAAAAKCoLpr9LfWkeX0obv1UPZmO18eMbvX73aGY+fXaaP7e2ojxL/rtjUnnlCfZTUmTDxrMKct5VpNKhwl3poAu1TpiUSMcxOCTdmXLmGU4n7vOwfzzCzSg33GVpHe/jyWSHUSP2wtwFZ335qlR8XPoDuOvDTolA7o/Gz1u+WfS1a+P1cesn9bH7W310fzf17dm/gRXZQAAAAC4MMN5xPjrhrh9aF8P958s6xCuV1OHJ/d0UalHqu3tZvL0cK7HJ73YbXlDJivXeDVB+fThvLjF3UtmHB7EgK4DWby3P08++Xc2GsRVtklcYAP6xiVSbrjS6z50wAnsPPTCuDWWzHpVOIfOZPsxT0wX0E8E9YTtX3v29Qj/mhOKW8OhmHn3LikvwhUaAAAAAC4Yuw7mfrsukm/W4XymJ9Cllm4Q1zxsZ4btcmyV5XLcZbo/HJu+OZyUFuVuW8qmQQw9zVkme18/wOX2JVzcXYNQXZmAbqog7AY1oPsh/fb/Tw7ueVY2Bzig63Po0bRrqccerWQVXX/u7gyxGxImO5triz5G05R0ZF0sfxuu0gAAAABwwVBPhjfq6vjZhnM/oEcMGT3u8WG7PA3isoTL2bq3j9rEDQf0bK8KZGLg+V84cvOlCNSVCujbl+WDvMXdD+jrLpVH//PbMhzgLe76HLpapnrc0UqfQx8yGd+dNOVsVfQzQnqHqz4m3x1qNX4HV2oAAAAAWPT09tG6aP6V3R3eOQX0UNRkHSlCR+yyPJEXNuPeTOfP9fS1vrxnFkdFBbFBHD9S+/3jcsvlCNSVq6A7KgSTQAf09ZfLiSf+xWpJuSKwFfTCEr154g5XOqCr9WKvxc42oBdCuidrI3mMYwMAAACAxe+5RO6d6klwXjdqOvuAbsrdScsZyNN8OTq4q5AvmBBkugq6fjvlgkYCGs79lfb4+NNfHJVbr0CgrlRI31oT2GB+slHcFTL/xXX51gmbBzyg82TWS5Xj8TvLPHQeHnascwno/nn0SP4ruFoDAAAAwKL3y6j1/vpInoZi5jltb9/XaYphm7EyzT/nbMbt7VJmCTNbUjYLckUy+83teXRwr+BaEAH9Smk9fEO2dcLiQR21VmwUp8+h68evqGhAt5mMHHd57TkEdN04LhQ1duFqDQAAAACLXn3EWtsQt0X9OQb0A302Lcf588M2l2kiTCEEn+H8uTxiEdEc4Ipk65gpza/cKuW2JQjSlaqgb1kYAd37xLW8dTQvgxzQ9VjA1pSTHbKYMVLRRnFMdqaIaIib4qwDeoenj9KEcLUGAAAAgAsgoJtbGhOOPNeAHh5xUuqJvShHBd2gnOmN7NOMVtNb3ElP1jXCgd3i7kgdyLyHrkVAr9wSYvNSsiAC+v3/IAMf0NVjKTxhk36DVrSTu95C35ejVlPC9PTRmLM9g65uI7haAwAAAMAFENCNzecT0GOjXk49+S7L9liLTt/BXb/d41zG0k6Az/SeQ0DfMeV26rrb71Z+ck33PjsuuIDOxaaarDyn+eSFdeJtd83w/ned+ufyrsUZ0Ce3uXfnSa6SjeL88G8zsqfD5HXn0CRO3UZxtQYAAAAABPQZZ6AbsiNFRDm2uI9YjBIubF0pn66CrgK83Tphi4Ue0OVkwN62nImty6ncslyFuuWe2LAyK9atsuS6VVLcrtbaKUv93n/7upWOuGNlTty10vM/butyokOr3HGBhPXtNUJsWpo/m4Cuw3UxYHvijhoi1i8TYv3ycbF2eUrcttKUa1eo+7iwir82/D+7ffmYXL9Mf4xQS3eOp1M+16IK6PGsO1rpUWv6OvFSr30Oo9YQ0AEAAAAAAX3W1ZgwRE+2PAH9qM0444LO1CBuwqXZ8AIM6Do8yx3F6u9WFQ43rrTkhlVc3LaKiFtXu+KW1VKsKbFumbKm+zP18fL2VUyFeyI2qZC/XX2Nu5cJuZjD+salYi6hvPB+Neq+qbHE7SscedsqS9yyylFL3XerRPF2plV8n9Vc3LoyL29bqe7rFUSsW5ZVgZ3rwK6/RqnAvtACeiTjkmoE9ENDjoeADgAAAABQ9oBuyj1J0xowmHW+Z1f9Du4On2n2ud8gbtDwZHOgR1adFtB1MNdnprcsJ3LjCqKCtOOHvTWrhQ7Z8pbCEuex5MkAL9SvhQrsjg7rcvMKqsK6WHQN4rYvm1Mwl3csc8S65a4K1qZYo4K2WlKFbTl7KC+5Tnys/lx+YNcvsKzMqK9BxfoaS9y5lE++cOBX2RdQQNerLe2QAZO6w1YFG8Wp1XrUzSGgAwAAAABUIKDv67SswxYvS0Cf8HQBXcgZGsR53TnPCQc8oLeMW9J7+MNSbF3CxV0r6MlQ/i5+vmF8zoF9TTGwr13lijtXMn8r/Y5Fs8XdUyGYTxvS9Vb0tStMfssqMhnKRYWWPHlLVWCneru82KACu/oe5J26i7sK6ONm4AO63yhu3Db7DJIZcURFK+iJcYIKOgAAAABAuQO6fpL9Yo9FRxxGy/HkPUuEIcT0Hdwp50487VgtQe3grkNOjstY32FO7v57T966klYrlM8S1oW4TYXHO1Z6YtvC3vruf+9ba/LFreVTK+ZcbFDB/fYVtrhlJREVDOWzB/bVTN2qf//lJtl+jRM5PCrCWRr4Cnp4wuY9ecKHKzxqrStNz/ooDQI6AAAAACCgzyGgv9zvSBXQZTlGrJlUuNN2cFf/6Q7vbamAnj9Pu2p5on9PI/G2X8fkTSuEmMdgXnL5QX0101X9Bd39fUsNFXeeOPfNxIZlhly7wpS6Yn4eW9grUlm/eYUwPrPZTSS7eDjHAh7SHdmZ85xhi4lKBvTuDJGNcQR0AAAAAICyB/RDQ44Yscvz5N1mM49YyxHmBXF7u66ORobH+PjjX2RizUomb14uAxfOT1/rVlKxdRlfkCF9c7Fivn6ZIW5baflbywMSzEuG9RtrJNl0Le97YS8PZ5kM6g6Q1pQrYxlnVAV0VslRa/155u7tsBwEdAAAAACA8gZ00XrUzY44vCzNoxwmZgzoEzZNBS2g66poItHJzE+t9+QNNZNbnM+jyu1XXaW8Sa0bl09ZywpvU3+m36cM1XQpblvNT1TTF85i4o5lORXMDXnLalbWML1mxamrnCH9puWSr30PG/rFT0g44xV2XATwiEYk7abV45FXMqAPmcx5vsuydQ8LBHQAAAAAgHIF9KghIsfd8XIE9CM24x4XnM8Q0I+YJB8OUJhpzlLZu3+f8DZ9iOoAfS5hXKjQLXT4VuFeXLdEitvfx8W2j9ri/jV58fAd1inrE7fk1Z9ZYv3VXOgXA25Y6n+s/znOObS/i4sNK5k//i3g1XS/G/7G5bZY45/xPscQvrLwIsdN6nPeWLwPr7tKCn277v1SrC+ude/z/1z/mbxhyYn72t8doT7HOYX0NfpFl2Xi2FPf4K1jhgynvcCF9Pa0wys7Zo3LYYd5L/bYXh0COgAAAABA+QK6WiI5Ts4/oKsn7Sqgu5QLRzeDmy6g9xlEd5oORDhvyVBx+OfPuGLte7mubJ9VKNYV8utV4Lv13Vzecz0Rjz1ARNPP0qLtIJX9nVykxmzh2nl1X5jq722dWMTNifSEKQe7uYi9zkXTT1Pimw+78t4biPo+mLx+if+5xblU8fUc9SB3etff16blYo6zy09bK4v3uX//CLHlw5749AYhnnrEFPt+MSFaDrgy3ixFf+eU1SFlokXqfxPxQt2E2PntjPjcJvW9fMwTt75L3dcq1N909mFd6hcIblgqJv71Ydl2LCtaMsEK6W0phw+YhFSyUZzuWXGg15a1EWxxBwAAAAAoa0DvTJFUOQL68AYiuQAAIABJREFUMYe7KojPFNBFR8aV4SB0ap9w5LGnvuHJm1dytebeUV1Xu9XHiHtvYPInT+REPExU6Lb9v7M/5b2wZjP5fic+hhJbdEVd+fPv5cUnbtWjxbj/tc6mqq63vK9d5YmtwQvpfuf2LcuJuHUVkWdbLdeVb3V/iB3XcfnMt3Ki7RUqchlD3XeCn3a/T7dOeT/HtlRw9+Qv/8MQn1xLxNp388LXOLst8boqn370U7T9SIqHMyQ4IwInbK/foKlKjlrTPSsODjiyDgEdAAAAAKC8Ab07Q81yBPTjDiMqiHulAnrxbVYy47jh+ZwnndKd2l1x7KlvOvLGGi7nGoD9sLxSiC9sc8TBPZYKeR6bEsZFcYfAua5J/uf0PCbCByzxyMcdcdu7xVkH9bWrA9U8zg/n25dRsXaVdTbB3N+yvvY9Qj72gCtef8ERrk3KcZ+fcl8TwmVnuym+8yVXbLyG+V/z5hVn1Twu99mt3B/DFoSQXmhe5/bkSepIhQP6ocMuAjoAAAAAQJkDuuzNFUYnne+ItVGH+cGnVPVcI5wb0bRjz1sHbB3OJxx5/MlHXR3O57SNXG99v2m5EF/aTkTkVUMwRssVyqddJ+vsVPTEXfHIfZ76XoS/HXuuIV3PTN+2nM53SC+E8+WuWLfSmnPlXJ/lv/29QnzrYUcMdFr6R+jEroMK3dd+WB876opnvuWIOz/IChX1uW1919vuU49+krUdy/D5PpPemrJlOGWTrpxnjFR4FnrrUZcioAMAAAAAlDmg92RpWQL6mAro03Vw1xzGzUjKceYloOuvmSViZNcPHXnTMj6XTu1+07d7rqPiQJOjgjkTlQqJs4RH9WsqWl9x9NZ3/3uaazV97SpP6jPp89cQrhDOb19pzimY31xowCa+tN3V2/1ZsVhelft86pGDkQFXPP5pR88/L7woMpft7ktVSP+UaB3Nz3t3d32EpDtP/KkKlTuDzmXkmJfWTSYR0AEAAAAAyhTQG+Km7M2VJ6Cn3BlmoKv/TMpp24TN52uUWv/eBiLXrGKzbmvXZ9J11fzxz7oil/aqHsynCY/SzBHx4286/nnsuZ6bX6fed74q6NuXcbFupVN4QWGWpbux3/lBLnb/zBKU0vm8zwu7QNT/Dj3via0fIX41fY5n0ke/8ygL6xeD5nFOug7oHVmvop3cdXU+Publ6xHQAQAAAADKE9Dr9JPmpCn7qhTQc4TJ1vkILFkmu1paOF3/d8IfzzXblnY9Au35X5r+tz6fwbxEcKT6+3n9RUfqsXBz2fK+ZrUQG1Z68xLQN6xy5xpsxWc3eWKol7BKHx84yxdFxNhRR3xlB/G33c9pVnoNH/7Zj0hzjs3jNndHxjPOhHpckkpW0DtSJIeADgAAAACwAAO6jjtpj1W/g3vale0jE8z++Bpv1jnnekb25muFiDXbbL6r5tOu4vc12EnF/Td7/pb32UL6raup2LycyuqdRxfijpWeXLOaz9oITs8p/7dPEWGZngzi/V3o+s7Ek19w/O33s5xL1y8AsXXv512vvSb0C0PzEtDVz3w07aSqENDTCOgAAAAAAAEN6Fkyc0BPuVQ2V3kGejjlyrEnvkpnDbK6Gr3pWiK6ovO/pX2O1XQxftSTD2/w5PVzCOm3rWb++LVqzDq/a4WjwiqdU5f2732FCc5poO/vwisHTPznk7rz/+wh/aYa6dxzI4sMHpmXGelt6mtG0u7QYZs5lZqFXgzoKQR0AAAAAICABvRcwAJ6OMdl377detY5nXVb++ZrpeiOuTzgwfyM4Jge98RD6z097mvWre7rVlU+oG9dTnUHeTmHM+d+OJ9svhfw+7pY3ec6pIublglxy8pZt+2PP/5F7jeMq/J5dL3FvS3tjA+alaug6+tFV4aQs+l3gYAOAAAAAAjoF2pAn9zafu9NZMaz2rrZmj5zngjbYiGF86nB8fiIJ+670ZttDBvXIX3TikqOXtNN4axZm8LpcP7DR+lCCeenhnTOxfe/6sgbloqZz6Ov1LsEeP/eRtac41Xf4t6WslM6oA9XMKDr8YwI6AAAAAAAAQ3oWcLtoAR03bX9yM7vuYUgNV1VeZWUKkSJF+sstgDD+SnBsTtGxIYPcDFTE7w1/ug1JrYtExXa2u6qrzPzuXO9rf3Ld3vCc4N55nwuZ9Jtk4nPbyZilu7u8qZl0v74GtY+PCaqOXqtTX2t1gn72KBJvUptcdfXCz2eEQEdAAAAACCIAd30K+gpHWGmCehi3KV2czVCSobIeFc/JRs/RGbs2n69fwba86PXAg3nk8vfmv9CvSlvWs5nnJOuq+gbV7KyV9G3LWPitpVEzhJYxd0fY2L8mCsX8Asi/k/z6FFXbPsomW1OurxhiTiy83s0nOdVDehtE/ZxBHQAAAAAAAT0mSrovBoVdF09P/bUNzypA/g0QdXf9n7/zVSYhregw+Kpi4nHP+PO2hDvNl1FXy7K2rX9zuWWmKlru99YbbUQ4QOL4/7Wf4fwS3qM3IxN4+TNy6W79aMs0j8iwulqNYxzZFvKISqgi0qeQUdABwAAAAAIakAvnEH35n2Le9qVkcGjzNv8ETZ99VwHRhWsWl/xKnkGupSKb3VPjTpi20epnHmruwrUK8vXMG77Mq5Cvytnm3X+/a+6zL8LxKK4z5n+/yc+p8+jz9owbmTn91hYBdpqNopTAV0ioAMAAAAAXKABPU/FvDeJ09Xzw8/tovL6JWKmeefi6w94gnNW7gA3VT6fl4ODg/4aGRmRnudVPjjqz7v7Z66YYea71LdrV3sqWIvynD1f7s109tx/sWDzh5lIj1bsBZFJpmnK3t5e/tprr9nqVhiGIYtT82Ql/q3F0UEi7vwgK5z9n25r/3Lp3H0dbx8eky2p6pxFb1WrCgGdI6ADAAAAAJQpoE8uXQlbFF3c9XipMYObn1pvTVtB1uez176Xi/6kValw/sKLL5Ibbr7Z/rM//3P6B3/8x1KvP/yTP5F/+Vd/Rf/xYx/L/+iZZ0gmnWYVC42u44lP3OLKm2aoot/yLi42L/fkjjJ0br99lTXjWLUbaoSo/ZFTiRF2k1599VWy9vbb3f/xF39Bf+/3f1/8xm/9Fv39P/gD8Y53vlO87+qr848//jgdGhqi5b7P/eaC//mkN3sVfakYbKpj+gWkqpxDr3AFXc9B70yRDOagAwAAAAAENKBnZwnoaRXQwxUM6HoLcVdzs8tve8+0jdL889lPfEGPVOPlrOZqIyMj7JbbbnPf8ta30jdefLH8lUsuOWW9+S1vkW9685vlGy66iP3vv/kb8vSPf0xE8YPL3jDu+V+a4sZlYsaz6OtWnX8VffNyogIomzac3rxcio/fSIVtUlGBFyPyuRy/a9Mm8tZf/3X6hje9Sb75V39V/oq6n39V3+fqVq+L9H3+hjfwt7/jHZ4K6q7neeW7z/XnmTjuibv+YeYq+o01Mvv5u2nrhCOqMRddfR1bBXReyYDekSJpBHQAAAAAgPIHdFGOgJ5ypw/o+r8cYf7W20qFkua8kMef+iaR102zvV2H9lvfxUR33JFlDufJZJL/9d/8jafCt1ABXV7ytrfNuC76lV/RgZ09/JnPEM65KPf341fRH7iViJmq6LeuZmLruTeL86vvd6xw/PP8M3QxFw07y149146PjvL3vPe9rvrxFzqQX6Lv9xmWDu9vuvhipgI9LXNI5+Kpr3rCb843fZM8vv5qnkh0iXDGq8aYtaOV7OJ+HhX0GK7WAAAAAICAPv0SXWmS0U+4F3RAT6lQMpqn5r/c4fgd2ksFUv32T99BBBesnEFxbGyMXXrFFe4bLr541mA+df3qr/2aDuriq488Qsq99doPxA0/ccQMnez9rur/P3tnAh9Vee9vEQVstbW1+3aX1t57W9veXusKWUFQwKUq/9aqgOw7SYggai1WrUutttXbxaq1rXpbqnXJyl43XAiQ2bIHCAlhyTKZmbOfd/m/75kEk5CZkMyZZBK+j5/XCVkmMyfnnM95zm9bnmkMJs2982dstjArdnM4p/b8+4QFW0y3b0BEIhE69cor9dNOP531J+bd1wSxzceMHcvW33mna9vceY6GOoPNv4LH7eh+6yTW+NJfTHkjaaTPQW8Sz+s/ZioDFnRP+D2crQEAAAAAAAQ9jqDLVNVkC7pEI1Qtb9WNpKT4tpvcW3+Q0IVX6lFh7CO9Xcrq5pc16rIs5uTlGY4oDkDOu5ZMfT/vM5+xKiorqetR9MMHTbbsGrtzxFlf3dxlmjsdTJq7I+i5GbYQTz2moMu67N/eayYjev7LX/3KEKLNByLnXUtG2z96zjnW22+/bbmyzeVz2BZlD6422K1pcbu5Bx+7qzPFXU9qB/e9bVqwQSF2MlPcPYfN9sIBCPrmKksIeuRVnK0BAAAAAAAEPY6gB1qMY24Iems/gm4QqnjbdD0Zgi7rz2vf2GHwWDI6R3x+6QybNdRZbtVCS7w+ny0FW4r2YARdLlmvvmLVKiMJteiMPZxH2K0Zsbu5z5tssNx0e1DN4lZmkLij1aSslr3p+g2Rw0eOkPP/4z+sM8aNG5SgyyXl/trvf1+WF7jXLK74byaT4+TidLM3cv+fWd54jMhxgEkTdPHcQtCbD2rESGYEvbzZ0As9YT4gQfdGXsHZGgAAAAAAQNBjj1pj3iNmqxuCflQncVLcORcypATahaAnIXpYFmH86B+fCHLZMbzP9HYhlPcskqntppuCvuHee03ZnGywci6XbB737+efbzU1N1uuSrp8rk0vhfnNE+Onua/KGFwEfWlGW6z6c6fMIO8HFgu2Wm5nBjz//PPktDFj2GDlvCuKft6nP20FKioM19LcD9TobOGVJF6aO5s/hforangy69CloHvb9UPJFXTCPzio80JPBIIOAAAAAACAm4JedsgMuSXoNIag06jIkMoOg5Ylo0FciPLgL+6iTpf2WLPP//xLt+dws7SMjPAZ48cnJOidUXSyecsW4rqg1/qFQE/hsbraO2nuy7JUlj+I+eeLsszo88ZIb3/0dkplAzWX09tnz5kTPF3W+ycg6HKJw4a+8OKLLm1z8RyWZbH8m5jT6yBWFH1uJt+/pZTt6rCTKui+oN4ijkkraSnuQtDfPQBBBwAAAAAAwF1BFxfY7zXorElL9KKd8sM6NYSN6U60vG9B53Vhk5cloUHc3sMdVLlnKeFSxPsSUSnu725tc1PQbdvm//GNbzAZAU9U0E8bO5Y/9thjxPU69EhYZ+tu1WPPhRdrcbbOBtMobmEWjynoMr39738wkjHnPT0jQ00kvb17mvvqnBzN1ZFrT26IX4cuvnb4+d9FysI0eY3i2nQeCJpKo0pI8mrQCX+zTuMFEHQAAAAAAADcE3R5gf1Wve5ccCd00S4Ev1knJqHMiCfoB1VTd13Qgxb37GvSzNWzInxOXzXo2VGRrK+kbgv617/xDe6GoMv56CtWrmx3W9CF8RP24Gor5o0LWYu+MHsQDeLSTTY/24xZgz47nTHvrvZkCPqFF11E3RB0+RwZmZlBFsWdOvRNf++IlhTEbhTX+sR95q4IT5qgy+OrOmzxxiTJuUybbxTH+hu1qokIOgAAAAAAAC4KurzAfqNWs5t0mljHZ3HRfkhctNssvqAf0+0W1wW9w+aBylqVLJwW6bODu5T21bMoO9rM3Bb0/7rgAuKGoMtGcXfdfbfmttA67/fph6Mp/rHq0OdnW0K4rZNtFOd8X05GRPxcJF6TONa4j7IkCPpV06cHx555ZsKCLtPkb7r55lD0Jbq0rd/fTlk/gh78+XpeFqLJFHRSHTKTNmJNPm+DSvQdNapW5FUg6AAAAAAAALgl6PICe3u1qoiLbiXRC/omsQzKYjeKEytoEq2sxX1Br/QFdDY3W+V9RYhnZ3J21zyFaarmcoSazbj66uBYGc1NNMX99NPZq6++ypMRcWZFfw2zWzNY7E7u2TrLSdcGLOjzYgh6dP45Zy1HeDIEffnKlWGXatD5r594grqa4l6xRzaCizkPXaa4h3+6gu85GuZJGTcon7NFM2pCVvshnSVN0OvDtrGlUtUh6AAAAAAAALgs6Fsr1cj+sK0k2ihOLo3EF3TFpnxPEkasVZXt5rHSuJ3PP5ijChMz3E4hf+iRR0iiXdzHf+Qj/LOf/7xZXVNjJkXQ3yptiyvot01W2ep0dUCCLr5fCKfat6BncHbXbTpTInYyBP1vGzfS08aMoYnI+QSxzcW2t97ZudO1be48T3ODxlZcY8pmcMMh6Huigq7XRexjh8TenhxBJ7wmaPFS/4DGOULQAQAAAAAABP1kBH1TQLFqOyw70Qi67OSu2pTEG7VmEmr5g7ox5IL+UK5CkiDo773/vnX2xz5mj48K36AbxM364Q+dmdxJEXR/WTubncnijFqz2eoM2y1B53Kk3U8WR5hpJKVJ3IEDB6wvf+Ur1jhZWpBAent6RoYlG6+7KugthxW26vrOpnx9j5/T1s7m3gOHeVl7ckat7WnV7H0RO5K8FHfCq9osOQECgg4AAAAAAIC7gh5d1e22c+GdqKB3WDQiC3pjCbp4MKpDhl7mYvRwuATdaQxGCLv2+9+3pWQPRs4nSGE8+2z6xptv2q7Xn3dJY2B3fEGXndxXZXA2AgS96z3l5uYaTubC4AWdvvjii67PaGftLQrLnRVX0PXbb+He/c1JE/S94tg6mCQ57xJ031FTHUiDOAg6AAAAAACAoA+gUVxFi6W5IejtJrXizUIXCsMbFIu7WYc+nIIu2bVrl/2JT33KHEyzuNPGjGGLlywxpOi7LbKjWdAbGhro177+dXMwzeKk2N84a5ZlGAZzfVubhsrWzTacbTAMgi5T3MvbtTZxPNKkCbpYuw8ZYQg6AAAAAAAASRL08sPGsSaNskQF/ZhBeXxB57zFIJGyVo0lQdDZUAt6l5i99vrr5sc+8QnzZBvGyci5rKOe9cMf2sFgkCfjdR2Xxoo9/aS4T6FC0OmABD03PczmZYWHQ9C73tf27dvNz33+8+bJNoyTdefyhsill19uHDlyhCWlnKDtqMJW3zBsEfQ9bQb3B43mhmQKukb4zv0ahaADAAAAAACQJEF/74AeTlTQ5WrWCCWUkXiCrtpU2dPmnqDLLu4V3gqNzc1WeOwmcQrlXE+mML5eUGB+57vfNU8/80wqx6adMX680wBOyrhc4846i58uBF5+7ZyPf9xenZenh0IhlqzX9OHorx1C0OM0iZubrbHVA+zinpuhsPlye8cQ9A2LFWboZjLfm+T999+3Lp84UUo6HTN2rDPbfLzYzlLG5ZIfyyi7/Jr4mM6eM0dvbm6mSSsn6LcGPZ1H7lnM9za3C0E3kpDirvOqkGk0qoQlU9B31Kgcgg4AAAAAAECSBP2NWo270cW9SSXEojTuLHSTUO5t12mZm3PQAzUqnX9Fn3PQO8esqUxT9WQLYzAYpH987jn9uuuvN79xwQX2Jz/1KU1IuvqRs89Wv/SVr2iXT5rEVuXkaLv37HFqzpMq513SWPy3SPwu7oMYs5abYbAF2UbMMWu5/4+xthbGhuD9RSIR+sKLL+rX33ijecG3vmWf9+lPaxPOOks9S2z3z37+89r3Lr6Y3rZggbbjn/+UjfhYUrMVGuostmymzeYMTxd3cUzZtWHLSuYM9AOKrW0OKNZARqxB0AEAAAAAAAR9AGtLhWKJC3DNjQt71Y4zao07j3Zth6G61iguaHFf/UHFXn5diDvzp3uJ6BzxuVU3UHakaUiEsYujR4/aPp9P27Vrl7p792513759mqbrPb4nma+lK4LO//goZzHq8501f7LJctPNkxX046K+sO9Z384M8IXTOD/SyNkQvMfutLS02IFAwNnmZWVlanVNjSYFfki2uXxy/67Ouv4Yc9BvmcQ7fr7OKctI0og1ZV/EDjYlcQZ6bYdtlgQipAhd3AEAAAAAAEiGoDuj1vT6kB1ONIou69DDctQa77uTe2ejONakWmSXW3LSbvLyQ62Gtv42zYmW99kITQhTfQUbCmHsSxyHVMq7/X4iExkezCE8jqDzBUIe8wYm5069+uIsm83N7lvSZ6czViN2xiF8v8O+zeXveWczYT+6rO9t4gj6RN72xE+tXRGelA7u5e06Eceglaz09ibZwf2YOeD0dgg6AAAAAACAoA9ssYpWizYlOgtd/HybSYXmMxqvDj1oEm1Pq0ZdEZM23ann7Xgw30kh7lNEbxGff397iA2xMA7ncsRUU3R251xdNieL2cF9UbbN8gch6Esy2oSgs74FPY2xNwpPqe1N5Ht95Y8d/OaJsQVd7J/Nz/9O3RVmyUhv5952I2nzzzsFne1pNvQCCDoAAAAAAACxKfAoqxMRdKeT+xHDkhfgiUbQDws9J3E6ucv/bMYsb7vuWqM4GZFs/c2DIZlC3KeIygjyn39pnUrC6LzXugrO5k9l0Uh3DEFfnKUMStCXZ0RiCrr8O/zufkpPpe0tNjh7ZA2NlhPEEPQ5mXzf1lKWjBR3KehVIaslWXLuLHF+eGe/rhV6FQg6AAAAAAAAsRCCvazErw1e0MUF93sNWmujRokLUTY5DF2L1Siuc7H6sKm51SiuLER5w6sbgzxGt3J2awZnG5bY4tea/FSRRvk+t76qRCO6k2OvlWKbrRmgoMsa9NUZsUVUdnK/e77BLNM4FbZ3NFtBNVjOjTRWgzhnzb+CBqrqWDJGrIlF6yK23ZhEQW9QCN1aqQw6xV383Gs4WwMAAAAAgFFPkU+dKS6C7eIEIug7qlWrwZ0LeRaxqAyi83h16C26bZW1utMorixo8QpvgArhZDFr0JfMJKyhjpwqUXQnev3oOjtWg7jOkXQmy8kgA24QF52FbrJ52WqfndznCkldOJWyfZX2KbG95Xv0fmDR27JZzAZxczK4kfcDo7zpGNnt8og12SBub6sePqASNVkp7rI/RW2HpZT4Bt4grkvQxfnpGZytAQAAAADAqGdTnfblYm+ko9ivDrYGnZcGFLovYifcyV1KfrvpNIqLW4euWMTa26aR3W5IuhCe8oPHLHP1rEifndylkP5oImeb/67TUyWie+ywxVZcR1ms7dFVf74mjQ4mgi6WzRZm9T1qTS4ZuX/tL9qoF3SZKSLf4v/9Rotbfy4bxD3+Y767zUhO/XnQkNFzkrT6c3HkeI6aUs7ZYM4vW2sIL/JFVuFsDQAAAAAARj0bOD9dXAS/6lwED1LQi32KXdlqhRIe0SQE/7BGbOI0cmfx0txJRYfhzjx0OWIqaNL2x39ixqxDl43S7l9BGJXR/VMhvf1ly2mOFyu1fe5kxpZlaQONnvfq5G7GbhQnvr5hsdjehIz6ba2rhK27lbI5cdL+b5nEGv/+ZzMpDeJaVFbRYQYTncIQX9AJfe+gbhd4Bp6lU+JXebFf1Qs8Hf+DszUAAAAAADglKNgbyRQXwpbTLC62hPNYafAyzb1MXOGLC3GW8LxksSzKCI3XLE6sQ5rlXh16hPGGgpdCfHYG6VtIhSgtmEpZXcAa1XXR8r1Zps1+sthmsbq3O2sKkentg4yeR9PcV2TGbhQnI/fzpzBWsXdUp7k7+1LZGwZz+h9kx5wNTxZdxQIV1TQp9edtGq2PWHrSOrhrziPZUaPqRQNsECfPN9vrOC8qDz+7YceOM3CmBgAAAAAApwxFPqebu7qtlvJNFQYvrdD5pkqTb62hfEu17cw8LwloTrppsU89YR76W3VaRFyMWwmnuSs2j9hMl7oYr5t7xCL2nlbNnW7u7Qb3HGi27eXXGjHT3GVE+blfmLLh9qiVRvm+3iox2exMFnP2uXxcNNkQoj3Y9Pboyk1nbN5kM6aY3jKRs9/eZ3U2OR+dci4zMn6x1oqO+IvdNC/805X2nhaVOdkertafG3xvmxaW888b1eQIurzhVh+2aalfiSnhXeeZrbXRc41c22oZ75wuUbhxT+TTOEMDAAAAAIBTT9ID2iUlfu1/i73hnUK6PeIC+o1iv/pEoSc853Vv+NpiT+TGIr/yiyJfJCxlvUcjp4Bq748QmmgnaFmH3mLIEvTYdehSbwhjVmWHYbkWRW83WduTD0R4rNRuGUVfdBVlDbWjs5u7fE+mQdg9i2weP3pO2fJMa9Dp7R8uyhZnGdExbjGi6IuuZGx/tcFG6/au8Rts/hQeqzmcI+g3T2QNhf8gZSGSjO7tPBA0THHc0WTWn/tbrHBf9eeOgHucxnFvFnhCvxQy/kiRJ/Rn8e+/FfuVh0sC6jXFtXw8zswAAAAAAOCURl4U72zkZ20M8HF9fb2wPHJ9sU9RezWWY9XtVjjxVFnKD2mE2IyReOPWhN7wJtWyylrcGrdGeO3Od6Qwkqgc9SGnUt5/e58d7WE3CoXx7U0Wm50Zf7TavMmEyuh3YnLemeaeYbG5k2nsKLrY3k/eI2fQj75adEII+9VdNosXPZ+Twc2V1xNv/cGkpLeXtWqkJmQFE+4dEX90In+vQWe9x6vJDJ0Sv9Zc4Alf3fs8I3bFMTgLAwAAAAAAMAAKPeEH5PijbnXobPchQ3Or2ZRq07iN4uR/iu2kubtYj6tTZcNyLXYEWYrTFMb8ZdaoiurK9xJstdnaW2hcQZfN4ZZmmSzx6Hl05QnRX5BtxezmHo2kM7b3ndE1E92pPX9LZ3MyWdzo+S0T+bE//MIq67CTEj3f06aZBxTbSpacy5t1Mn1+e41qFHarP3du7Pki4QKPMhlnUgAAAAAAAFygqDz89UJvONSV6i4jZG/WqVajThO+4Jdp7m0G6UfQnbAqqQoZpmsz0UOE12/brPFb0+2YNdhS3n+80GKaOnoaxsm38ewvSNzO7XLNn2wn0hyuz27uyzMN8dwxo+hczmK/6zbKwh2j4qaIs8+oEYutn2073epjve+5mdxeOpNWBKppWdBKgpwb3N9hth1UbJo8QSe8NmjREr/Ceo5No7zQG3oCZ1EAAACXjxm1AAAgAElEQVQAAABcpNAb2SobPB2vQ69QjPqwbTdqiV/cN+vOTLN+0tw5P6JZdplbzeLknOmjERK5d0WEO/IUQ1RvnsTpi7+xRsNcdOc9vLvV5HOyWLQePO5oNdu16PmHUXSLzc+yWLwoupwR/ufHTTrSG/Q5+7J4/S88QZwmeHHesxz5d+z3P7eTEj1v0/muVtWuCVt6k5a88WryPFB+2NC6p7fL6HmJX1cL9oQvwxkUAAAAAAAAFyn2hfO7z0+XF+KVrZbmhqA7ae6Ekf6i6Cahprddp67V5YYIr3l3pyYkqTP1OkbDuPlXULb7LY2OcGFkjfspW3U9i5fa7nRun59tsdwMwl0WdN4VRZ8bN81dvIZsxt7bao7k7e289p1bDSbfS7zU9jmZ3F5+je2vrKVlQTMpgr63TTf3K3byxqtFBZ2+Va/R7oJeWmHIR8/GQGAczqAAAAAAAAC4Keh7wxPl/PSu+ejyQvz9Bl13Q9BlmnurQW2pNv3MRGcNiqm7leYu5aUsaNHWJ+9XZRQzZkRZSBRbfi1hdRX6iIzqytfcdoyyHy8g7NaMuKntVDZyW5FpuC3nxyVddnSfn23GjaLL0oJlVxN2oGbkbu8an8WWzmRsTka/0fND//eMXdaRnM7tch/3tRvBZIl5V/15fdg2NwdUq/v88y3VRJwnwo/i7AkAAAAAAIDLFHo7PiEuuis2VRpRQRcX4tsqVeuAYhtuROaaNMJsyqz+0txDpmwWpzLXBCZocW/dQcvM+YEho5kx5VVKY/5NjB2stUdUZFe+1kjIYg/nWryfunMuU9sXZ9nJEPMetegrM6Sgk7jiKssO8n9E2OGDNhtp2/tgHXFe++y0+HJ+axpX7llq7W0OMqfkIhmC3qpZdRF3jtF46e3eoybp0b3dmXlu0FKvMgVnTwAAAAAAAJIi6eGnundzL/YppKLNst2KoodtGjfNvXPR6pBBytwcQRUivO6NHRqbm23yeLXZsomZI+l1I0IanSZl4Q6bPZJv8psnxZfzD1Pbkyvo0SVvBJhxU93lkmPJ1s9mQtJHRg8A+Rob6ii7/WYSb6Ta8dT2RdNZ5V4P25Wkzu1yedp0XRxbZnIj6IS/s0+zuwu6cyPPF6nZ5Il8BmdOAAAAAAAAkiHonvA1XRH0rjT3siZdk9FvNy70j+rUFoZO+0lzl13fzTK350QLjz38l9+r/YmslHQuJb2uwkhpaZSv7fBByu5b1n/H9ujMc8pWZVCWn3Q5j0bRczMIW5BtxBX0zki62N6E1Qb0VN7ezmur9lrs9h/1L+e3ZXF+6yTa8NpGU94cSpaci8WqOsyO5EbPKd8fsc1NAYV2796+pcrihd7IUzhrAgAAAAAAkCQKyrUvFnsjh7qPW9tWrcjRTcStC36dyDT3+M3iLMpIIKi7GkWXKcZ7jim046Hb9bj16F3p7iuuo+z97YYjwqkkjrJEQL6eynKLrb2FsVvS+4+cy9FnyzL1IYic92wYtyrDYvOy7f4k3clcWPl9Qt/bbqXa9pYQZ9b5Pw2+4lrqvNb+bjrcPJG3PnE/6aoRT1btuXjU9yu22ZjE6HlTNL3dFueDHuPVSgM6L/GGpuOsCQAAAAAAQJIQHjKmyBP6q2z+dDzN3auQ6nbLaNKpO83iTBlA77dZHG/WLKOsxWWpCVrct6/J0NfOVuKOXutqHHfbZMaef5IyXbWHXRy7fr9lUvba8xZbOI05NxL6i5xH685NJ+18CAX9+FqRQZ1O5/1J+pwMzueJ1/riE7acS58y21tTCP/7H0znPfTTEC5adz6Jh+9bScoPtbLdyejaflzQNeYPmmqjRmky09vFYu/s08xCj9Kte7vOC73h+q2V/DycNQEAAAAAAEgiRR7lphK/5jSBikbRFb6rUdebNOKKCDSJC34ZIY8/co1x3Sa2p10nrotNiPBAZZ1ur7xe5/0JrqyhltH2DYsJ834g66RpVBr5kEdxnah5XcBmD+fbTqf2OVknJ+eLsiyWNwxi3r0efalTj96/pMtxZXJ737PIZr5dFmHDIen8w+1duddmGxZZTsZFnFFq3ZvCaetmm766BlIWtJOZ2i4XqY/YarLT22X39hJft+ZwTvd2mxf6ws/gbAkAAAAAAECSkU2firxKc4lf/fCCvEK1D0RsVwRdRtE7LGr31yxOalmTapmyztZtuZF1wZV7yk175XUKP5kotExrnn8FY7+932IHagk9Ht3lQyPmhxsN9twvbLbwShZNsZ58knKebTu14PnDKuic56dRtiRT5zLVvj9J72oeJ7MXnn7YZE37nQZyPNmi3vk3ddLZm/YZ7A8P2WyB+Jv3U2/eQ87XzzN8VfXJG6nWc7SaelCxWTKj54d0ysoO6T2awxXLMWt+Bd3bAQAAAAAAGApkmnuhL/z01lraPWrGAscs1Y00d+fCX3VGrtH4UXTODUJlFJ2VJUFyykKUV+0tN6wVJxFJPx5NF8K5eAZjzz5qsdqA5fS765J1NwSSfxi9dcS8odbif/2NwZZdw5xGcPE60PcdOSfDKea9atIdST+pSHpXNF3KsZw1/uKTBt9XJdPek7K9O5+PsP1VJv/zLw22ZDpjJxk175p1rq2bY/pr9llJbgoX3XdbNbs2bClNSY6ey94T26tVu7Db7PNNFQYv8kR8f/Yc+SjOlgAAAAAAAAwBJV51erFfocXH09wj/J163WzS3GkWJ6PoIYta9CSi6I2qRXYlS3SETFUEqnQ9/9YwvzXtJOVXSJnsBL9gGmP3r6Rsy8sGa9wno+p2D3nkPekSyhM+1205T3C0yWI7N5vs0bWELZ5BP0yvnnyyS4iwkPMUEfNei9KlmdZJ1aR3E3XZdI0tmkbZI2ts/vYmgzU32HY0gSH29u6Wrh5rexN5H6Rpv8XeKjHZgzk2W3Sl2N4TT1rMo3I+kat3L7R81fX2UMi5jJ6Xtxmqm40bYzWHq2x1msP1SG/fWkPE+aDjLpwlAQAAAAAAGCKK3+MfK/SGa2Wn5uONoXwRUheyLbdqXg9rhMooOu0niq4TQjztOk1aNDJMub+uQY/cu0LjN09i/GRFWIr67IyoPC67hrL7ltvsL7+ibPdbCmuoY6zlMGeGZgpxN4V4W1ZnVFx8bBPxb2ZbButoo0LuOQuUafzlZ03+YA5hq663uYyWy1T2gYl5NHIe7dbOUlTQozXpy53GceSkJb1bRN25YbH8WsIeWk34S0+bbO/OMG/ax1h7K2WmYQjptuT2lqnqdlTCTWd7G7rJ2lsYa6hlbO/bEbbx9xZ7YAVhy6+2nec8vr1PUsw7bxwEH15LvQeaaVmHnXw5F2tXq0ZqQ8mtPe8UdPrOgZ7p7dGyF0V5bbfybZwlAQAAAAAAGEpJ94Yf6p7mLi/UdzebmqxLdSuKHrGZEwjtL4p+SLOMXckUHyFXe5ta7NbfPKQIOSb8ZFPJj3d8z4oKXteSn8uZJZud6eyR21X2i3UR9ut7TPa7Bxh77A6FPbpWEUKvsrW3ELZgWs+fnTNAKY+KOWfzJ5vOnPPUFfOea1WGzeZnW3wgkn6843tmNP1dLnkzY8EV4jlvImzDYrGt10a3929+StmTP7HZo/kR9nPxN9iwWGNrfsiO17h3Ladb/8B+P5cd5+dkkSN/+l9rz7EILwtaQyLn0ei5ronjx06mnDdqhNeFbLuk1+zzzVWWfNy8YQM/HWdIAAAAAAAAhpBCb8eFJX4t4nR0dy7QFb61SjH3R1yMouuEEtZPLbpYpvg2f7tOy5IpP+2mWAY7+MrfInThNOuk6tL7kXb5HFxIt7OkSN48yWkm5vxbPr+Uw4HeDOg141wsmy3O0lleuj3czeAGtORrzU2nfEmWnJNO2WBEvXt0XUrz7PTO7Su39URndf3bGat3EmPSTqbe3Fx5Pa3ftpns6hBi3mYMjZxHa89pTdjSmpIcPZeCXtakWz2aw/kUvqlS1p8rN+HsCAAAAAAAwBDjzET3RrZ0Rs26N4vT5QW8ax3d5Vx03v9c9GOaZZcNQYSyLERYzQcfmMaaH+lcCvVt2YmJerKWTGefn22xlZmGkzY+kuS8+8pLZ3xFJhHvxY7erEjNxedkOnIefiDHqghUEdlkcKjEvFPOuScaPSfJTm9vUIi9pUqh3QV9k5x97gnVF5SFP4WzIwAAAAAAAMNAoS90S3dBlxfsb9ZpZqOLDaoOaYTZjJH+atEJpbSqwyBlQyFDQr48+5utFpnyPjvT5oNJO0+mmM+bbLFlQsxzMwgfqWJ+QjQ9g7AlWdHa9BQTdRmBt5ddbTe+/Ly192iYDVW9ec+l23VDFD33HTWtIq/Ces4+J7zYF/45zooAAAAAAAAMEzJaVuQJ1zijlboaRfkipCZoGW6JgoyiBy2Z6d5vLToPi+/bk4S56H2uoOXUFu/fukkjK6/V+G1ZNps7hXSmlQ+plHf+TuLUmS/LMlJhtnnS1up0yhZnmWxeNh12UZ+bzficDBb+WY4W8FfSXTJqPoQp7V1rT5vOvO2GJuSZJlPOOxf5Z41m9W4OV+xXwoWe9gtwVgQAAAAAAGAYKfJH7tvSPYruVfjO/ZouBN01WWhSCTMpjVuL3pnqzg4q5pBE0btS3neFOQ8+fTfjKy7X+coMky8Rgjw/O9wpz0RGtKMCPcUVcT9+A0A2frttChVSbrNFWTpf5aSy0+MR5zWjdHW9t9UZhC3NEu8/y+JydvrcIZNyWdbA2Lxs5/fz5ZfRmt07lV0RPgxR8679UCP1Edt0q7Qk3mg1f4tpnhg9F8e/J/zSxo18LM6IAAAAAAAADCOlAeNr4iI9GB2x1Nkwyq/Q2pAt56K7FkVvM6lMc2f9pbpblJq+oG4PlaSXBW3e9sw9nOdexmU6OZU102uEPOYIWV6e2c6WZJl8UbYlhC7I5k02jndVl6no0cWPr96d1+f2+l75efkc87MVtjiLsJWZYfF75Mg0ykezlMcT9VyxvZdnWmyh2B7zsu0uiXZTyI8/n5TyReL3rMiw5e+Vv5/nXMqrPGV8eNLao7XnFR2WOgSRc96g2PSftaolb8J1F3Rx7NPXvaGrcDYEAAAAAAAgBSjyhf+0pdruUYv+XoNhNunuRdEbxdIII/1F0WWqe9Ak9u4hSnWPCvqPhahddoJESmmOirMQ9rx0neUKsVudwYXgaWxZ1lG2NOuYEG2NLxbyt0ishT0XX+R83mRLstuE7LfKMWlcPkdeusmOPzeWsx3yhDDnOjdFZEaByRdkySi3xW6bPLBU+A+FXDamI3yheJ4lWSZbmeF0le+docBXC0Ev3zVsgr63VdcOKLad/LnnlFe0ytrzCO89Wq3QF35/487Gs3AmBAAAAAAAICUEXf1ekVfRirtF0eWM5NoOOXLNPUk4Eh27FjeKHk11p7RBsayyIRL01ufuo30J+gkS2S36e1zeu69o1/LoWvPh53t8r3wuSHn8yHqXsOdk2GxVOuXLM7kj2YszI2xhtsoWZPGuxaOPhC0SX5Pj6JZlMrYiM5pCnyNWPyUD8u9eVT5MEfQ2nVaHLSPZct652Ft1Ku09Wq0koPHC8uA8nAUBAAAAAABIKUmPvHRCFP2AZrkZRXfGrkUbxvGTSHWnFR160uvRpaAfev2Pwf4EHWsYZT1ZP5c3iZM7ruAVlQGnYeBQC7q3zVAPapQkW86bdMIDx0yjd/Q82hwyHCgoa/4IzoAAAAAAAACkEJu8kfTSCl3vHkXfVKGQupCMorsX4ZNj10zK7P6i6FyssGlbye7qLgW96fU/tkPQT8ElBN2+80oeqKoaekFv0+x6hZhDFD0nb9RqdvfoeVd6e4E3tAJnPwAAAAAAAFIMzvmYIm/41d5R9HcbdMPN8U8yin5MJ5SeRKq7tPRm1bLKWpIt6M9C0CHoQynorKrD1Jp0ypIt57JExX/MtIp9kR6d2zdVGrJze1XpztAncfYDAAAAAAAgBSkNhNNKfKpV3KOje4RWt1uW25G+iEVtp9q8H0knjJGasJG0ru67hKAf2PJSkK+GoJ9yzemEoJv3XEv9dftoWfvQCbq33Yg0qMRKupw7ndsJ3V6tkL6i58XeCKLnAAAAAAAApCo7duw444Qoulhv79OMRtWmbsrDIZ0yizLaf1d3LmSeWHvbdJosQa9/e3O77OYNaT3FBD13Itd/9iOl/FCLtrvdHBI53yNT2yPJ79reNffcc8QyCz3hE2rPxecqSwMc0XMAAAAAAABSmRJv+LLigKrJDs/HL+p9Cq1os6wmFzu6d6a6E8oZ7S+KLi2+NmyYZUkT9E0QdAh6sju2y5nnRKa2Nw7BzHN5A6A+bNmbKxXa52g1v7oMZzsAAAAAAABGAIXeyPM9o+gKf6NWM8WFv+22SIQtZzY6668W/ahuG7sg6FgjVNDlzSVv0DDEPk+HQtCbNMLeO6idkNouo+fF3oh/YwC15wAAAAAAAIwINlVELhAX88GSbrXo8kLfc9jU3W5sJUSCOuPRebyxa4yHbcr3JEOcOmxevftdAkE/BQU95zKuPLZY2d2qa3vajKQK+t523din2NZQpLbLxnA17RYp6dUYrsirOIJe4gnPwVkOAAAAAACAEUShJ3T/5m5RdLm2VCj2vrCUDHeF4ohB5XB0Eq8OXbOp7mnXTZkq7LagV3nKOAT91BT08C+XK2VtZrIFndSErSGSc+d3kDdrVauvxnBFnvD2HTv4BJzhAAAAAAAAGEFs9SmfLfSE98mIW4+xawfcHbvWVY/eZlJLyDiNJeiGTRVPm64nRdDLd0HQT1VBf3yZEHQjaYJe1qaTiqCpNqqEHRyS1HbKfEcMUxyvPaLnsqdEaUA3C73KFJzdAAAAAAAAGIEUekLLnHnJ3RrGFfsitLrN0puSEA1sN6lNWLSzu1N57lSfM/k/rtg0uLdVN5Ii6N7dnOVOhLSeioL+5Gp9dwcx9ri8X304Uk03G4ZIzmVmy76IbW+pVGjv6PmWasILveG/46wGAAAAAADACGXHfj6h0BN+y0mN7RZF31GjkgaFELdT3WUk/ahBqWozYlNmiaWZhNlhm5n7FVvd3aZZrgt60OKBqkpur5/GWd4kiOupJOirLuHtT63nu8I8OXXnrUNXd96Z3s7eb9DN3nJeEtBkBD1U5FW+hbMaAAAAAAAAI5jXvZGMEr9qFPt6NIxjew4ZhtsN43rMSdeILZaM1JODQnAOKDYrT8Is9KigV3H7zish6BB0N5dVH7GNoZJzeSxWtdp6iV9hvceqbam2eKE38lOczQAAAAAAABgFiIv7J3o3jCsNKKwmKAUkieLRTW7kaKqqkEnLkiToBIJ+agr6H+50XdDLWjRWHTLNpB4bvVLb90dsuq1GPXGsWqXpjFXbWhk+D2cyAAAAAAAARgGv7Wn5QpEvfKC0Qu+R6v7PWs125joPgYh0zo5mvnbdVUkva7e4d1+jbd57g8Uh6KeWoK++jB/962N8V4i5J+htOg0EzUijRodk3rmTbaJTuqvR0HvLuWwMVxLQSKE3MgtnMQAAAAAAAEYRJT7lltKAzoq7NYwTF/589yFDa3K5q3vcOnXFZt6gYbsm6e0m33uoRdN/9qMIR6O4U65J3JGNvxaCTt252dOqMV/QVOWYs6GrOye8ss2yin095byrMVyxN7KRc346zmAAAAAAAACMIjZs4KcXesLPbemV6l7sV6gQBLtJHyIh6ZR01yLpQtDLo4KuQNBPPUE/uvFXrgm6R3ZsV2RGyZA1heMNEZtsr1atwl5yLrNdxLF5aHOFcT7OXgAAAAAAAIxCNldxJ9W9+2x0ubZVq+YBhVhDGTVs6Ex3d0XQm1s1/cGbIeinnKBfzpoKntPLXBD0vW26LY4Be6jS2juPA/r+Qc3uK7XdEXRPaDbOWgAAAAAAAIxiCjyRG2Vda6+u7vy9A7psisWGTE66atKDBkkkkr6nzRCPhhZ+fJkiI6opKZP5mdE57XlpEGs3V+5Etv+NwvayDpJIzTnf06pZ+xSiD9UNqq6u7f5jllHkU2jv1HbZ0LHQE/77xgAfhzMWAAAAAAAAoxjO+ZhCr/JM71R3KQreI6aWzNFrfae7E+pvN3QhSmywgl7WZmrhXy5PSUHnOZdz9pscykr+YPC12YzJf48IAU7jzmtN5cZ7iQq6kHM5Tq0uYqlDKecyg6Q+bFubKxTaO3peKrNbfJHDhd6Of8fZCgAAAAAAgFOA13zKZ4Wk+zdXWb1Hr9GaoGUNVT16t3R3MlhJ/1DQUzSCLl/T4wso4Zywqg9s9vAtthwPltLRdBntz7mcsb89ZLK/PaLJbukpK+hvFrcNStBl5LxNN2vDQzfrvFvtOXu7vu/U9pIKnRZ5w7fhLAUAAAAAAMApRKE/klUa0CIlfrVHV/ft0Xp0c2gjis7vIj4p6a0aG5ig67wsaJuhJ1frKRlBl7J73w0aVTpCjHNOI0FLSK9FhVymZM38qks5u3sGpe+8QmzGKd2zhbKVF6emoOdNYtV7P2jbHbQHLOdlrZpVE7LUpiGXc8L2NBtm76Zw0a7tNi/yKH+WWS44QwEAAAAAAHCKUewJ58soevfRawWeCN95QNeFSNjDIen+QUj6rjDn7U+t505kOuUkMo2zdVMI3e+1qDAvR9I5J0J8TSHuNlt9aarILmcyUv7kSps21+udr5Mz35vRiPqatFTctqzSW94+YEFv1WhVh0mGsiGcU3cu9nE5Uq3Ep5Degr6p0hRyHvEWBZTP4cwEAAAAAADAKcjGQGBcoSfy2pYa0kMWpDzsPWTIpnFDnfora9KJL2hYZaNF0KXYyte1d6sjvJTYnFISld/2wwZ79k5DpmqznGGMpsubBOunMVb6jE5Ngx5/nfJxVzFlKy5K0Qh6Gqvy7h1oBJ1WDoOcy317X9imWysV3ju1vcSv8dKAoRZ7Itk4KwEAAAAAAHAKU1Sh/0uxX6nZLCN4PephI7Sq1dIODWHTuB4j2AbQ3d0R9N/fkaKCni5e18WcbXs+SISTO+LbtaQAC1unuzcb7L4biCPyQ9mUTTaBE4v+Ls+mjZU2ib6e7q+PscLfhVN1u4rFKir8kd1B6yTlXKWVIcs+OMQ3njqX9Xa9avZVdx499pQ7cDYCAAAAAAAAnFbkU64o9qlaSUDrOe4poNi1HZY+5JH0aHd3R9J3t/bfOG5XiPKjLz7KU3XMGl99KacvPhCijNEegt4tmk7bj1hs48MmW5tN5PcntYmcTFmXteYP3kTouwUGtbpFzY8v8bosk7BH5xKWqvPl8zO5r34/L2s3+5XzslbNrgqZZKgbwnXVne86aFix6s6LfZH/w0g1AAAAAAAAwHEKPJFVpVLQu9WjS6HYVqXa+8M2GRZJVwmr6DBZ2UkI+pGNT6SsoMsoNX9sPme2GRXf3pLeGU13Itj7fQb7w1pDpm87ou5m7beMmMvnvO9Gwra9aNBIu017R807l6xBZ5UfmCw/i6Vsx3kp6HX74gt65yi16pBlNA5D5LxJ/M7yIwYp6kPON1c5WSu+0gr18zgDAQAAAAAAAI6zcSMfW+iJ/O/mXvPRZUrum3Wa2aDY9nBEH+WqDJlsT6tG4wv6r1NX0GXa+j3XUKqGDcZo34LeTYxl2jurfN9kz6zX2e1CkIVUD7bju/w57vz8JEYfvc1mb2zUabgtms7OWN+vIxrVp+zlxwyeqh3cT0LQy6Jd/q26iK0PU+ScV7VaekngxKZwpQFdprcffX1v6CKcfQAAAAAAAAAnUOjlnxAi8eYJTeM8EfbuAU0/qNpkuCS9qsOQgk5iCfrhl39LU1rQ10+16KG6IDshlTymIHNq25QdrNLYPx432YM/0p1Ituy0LoVbvFeee3lUwLuWEyGPft15zBW/9/4fmOz5ey3mfcOguiKeXRaWs/5/v65S9th803nOVCwbENvUuuca7m04JATd6LMZXHm7btZHhufGkoyc14dta0uleoKcy9GGpRWGWVDe8QOcdQAAAAAAAAAxKdgbOr/Er9X1bhpX5FXYrkZDb9KpPRyCLldN2LL7iqSXdRC+f8drHU439NTsNu50HGfvFxF6MoLeTZSl0FtSqpUOi+7zaGzbCyH23N2cPb7AZA/drLGfXh9d992gsUdma/SXi232p7s53fHXCK0v11m4zbYY74rMn9zvlVH+4FHO7piamuPVnMyASdy89wbuOXj4BEGX+0hFh6E3KIQOT+Sc8gMRQnfUqKzPpnBVJi/0hO7H2QYAAAAAAADQL3LcU4lPjcjxTyeMX2s2TSHpdDgEXdal10csVt6m87KWXoL+RmF7ygq6XCsv5rz0aR6FnbykH5dmFo2qdy7CqEl1RaHtRxQalOuoSi1dEV+zun9fNI2dDPB3iZ/sOMb5uikpLehWD0HXZUo7K2/XrdqwZQlJZo3DsY/KUYGqTd+q0+wCz4l151tldoon/Kfi4trxONMAAAAAAAAATooib3huSUAjMh23t2SUHzG1QzoZNknfr9jMG9RtIefsuKD/syClBZ3nT+Lv5l6rPPbEk0ZrS4sMig9c0rvXqsvoupBvp5lb1xJiLT+fyPNSJwme88ixQ7Zy5wzGh3Ls2wBr6/Wf/cgqbzrGytp0p9a8MmQZsrFg4zBleHRG68nO/ZrRl5w7Hdu9ka2v7A2eizMMAAAAAAAAYICSHrlPproXd+vs7tTQ+hQSaDHtJn14ROhg5xi2yg6T7mnVqRT0+p1b21jupNQV9PWZ/Jlp54fFZrUuvOgiu7q6ykhU0t1eXEbOBVu3bbOzJ15q1c6/mPPbM1JU0C/n4ceXRPYci+j+DtPcr9jmcIl5V0M4sUhZk6EXevrq2G7JCQkVhTXGv+PMAgAAAAAAABgwsrN7sSfymy3VVo/xa9FGVxEqJJ006XQYpYjy2rBF9nbYtMK7t82p805VQb8jk79w9TfDp5053jptzBj+X9/8Jjmwf5+ZKpIefR2E3H///fpZZ5/Nzz1rHK9bePlCBbgAACAASURBVElKC7r6+OK2fR2G1qgzNlzNC7vPOt/dZBjiOGEnyHmlxYv96oHXyoPfxVkFAAAAAAAAMGgKypo/UuQJv9xHZ3de6lfsilZbGVZJF2ufxll9TbUmxC11BX1dJt/+g/+OnHXWWfa4s87iUtInpafTxoMHreGWdEkw2E7mzJ1jnXb66ez0M8fxL593Dg+tnMh5fopuz5xLufb0+iP7dW4Mt5w3aZR6jph2X7PON1UavDSgHSnyhC7B2QQAAAAAAADggqSHPyWEfOuWanKCgJT4FSPQYkWGM939oM55c/NhTmVTs7wUbWp2ewavmX8x+/THz+ZnTpjAx0tJHzuWf/s737ErAn59uCRd0njwoJ2VnW3LmwbjxGsbK9Z/fu4Tmp2bxniq3vBYdTGP/O0X1n6LD6+c65TuPRyV8xNmnVfovNSvBQv2Bq/DWQQAAAAAAADgnqSXt36x2KcEtsha2p7j12Qk3ahotZSm4Ypk6ow3HWvl9k9v5Cx3YmoKpVhGTho//7MfN8/oFHRH0k8/nX/1a1+zS0qKrUF3eB9kkzlJRSBg/M+FFxIp512vacz4CXz61z/Xwdak0ZQV9JzL7OCWv4YO2nxY09rLY0TOSwKaFPRQcSByI84eAAAAAAAAANcpKg9/vcinlG+utk4QktKAYgZaLGtYJF1jvDEYYeaj8ynPuTxlBZ3lp7NbvvVFdcy4DwVdrtPPOIN/9Jxz+IYNG6y29raoOTOa1Ki55OWXXyJf+vKXibxJ0P31nHbGeP5w1vmMr03R+nM5+i0/w2gJ7D7QNEwR9KZOOS/29SHnfkfOzSJv+DacNQAAAAAAAABJQ3ahLvGrATkyqo90dxpotewhr0mP3hSw9d/la3z1pTyV69CfnfFfVAgw7S7Ecp05frwTTb/okkvIq6++alqWZbsp6l0d2iVNjQftpcuXm2d99KP89DPP7PE6ZH382HET7KIbvm3K15uS2zEvTZYzGM2Hmg42mXzIGxM2aZSUH+5bzktl5NyvWUXlkcU4WwAAAAAAAACSzut7Wy8qrdAPbO6V7i4bx8nu7t4jptmkDeGcdCFN+zTOlb/cr/NVl6SuoN+ewWvnX2x+9tyz7e5p7t3XmLFj+RnjxvEpV1xh/eMfLxsdweCHZs1ZdP55nFnnXV/vLuQSXdeIrHW/+8c/Nv/13/7NSWmXNwV6//6x4yfwr3364+TYsssJvz01tyPLm8TJnVfRxtag0qizoZVzndq7mgy9yHtit/bSgC72f9Uq9EWW4iwBAAAAAAAAGDpJ94cuKgloJ0h6dIW5jDAe0ikZsrnowknDL/2K85UXpaygd0n6Dd/4gn7auL4F3YliC3mXoi4Emn3zggvslatWmX//+9+NI4ebVUPXpHz3tO/uiK+ZhsEj4ZAdCPhDTz31FFm+YrkxMS3N+Og55zD5vGN7Rc17pLePG89v/fYXtVRNb3dW7iRu/+Q63tShdmVPDImcNyiEfHDQ0Av7qDmPNoRTg4WeyA9xdgAAAAAAAAAMOQV72i4r9il9S7pP4XuaDbVJI2QoxmA1WJy3b35RyNvlqS3oazP5plnfsU8fP4HEkuQeEW0h02JTy4/pZz73Ofq9iy7it9x6a2T9nXe2P/zww+0PPvSQs+THd911V3Du3Lkd6ZmZ/Etf/jI795OftM8YN47Jn5diPm7ChH5/35hx42nBDd8h8nWm7DbMncj1xxe3NioWGQpBl/vvAcVmO/frhswSOWGUWoUhm8KFizyRG3BWAAAAAAAAAAwbxYHIN0r8anlfNelyfdBoKLI+PNmSLgW9bWdxp8Slpa5c5qdzLSeNZfzbZ8x4UfS+ouoyJV3WjMtadSndfS7xNdl0TqbJy+8/GSk/3qxu/AR+4Zc+aXWsmkR4fupG0GUjQO3p9YcO6sxKtqA3aoTvCxP6Zp1K+pLzzVWmnGRwrNAbmYWzAQAAAAAAAGD4Jd3X8dXSgLa3L0mXUvPOfl2T6cFJbR5ncn7UX6aytdkklQW9q1ncq9//lnXmhAl03EnK81CsMePGs2en/1fKNofrNmKNR158uO6AzpMq6FLOaztsY2u1SvuWc4sX+7WGQl/4cpwFAAAAAAAAAClD0Z7gvxR7lW1ba0gfkh7m/6xR7fqwbUnpSYpQGZw3NzYo5I5plOWltqDLZa9JZzd+4wuGrPlOCTkfP4F/94ufNJXVE6mM8qe0oK++hIde/e2h/RpPWiPCJp2wihZL31ShkL5qzrdU2bKMo/w1X/u3cfQDAAAAAAAAUo6tPuWzQtKLnciiTzkhkr6tUrVr2221SafM9WinznjT0RZNdvceCYIum7B5515EPvPxs60zBpCGnowlo/gymv/StRcYqR49d7bdqkt4cNNfmus1npR680aNkL3Nplnsi9AT5VzhnZkibxb7jK/iqAcAAAAAAACkLH/2HPlosTfye9nVusSv9pR02VAroNiBFtN0vSZdjsDqUDi5e4YzhivVJbOrYZxMKT9j/PCmup925ni24LtfNmh+BucjYbutulgK+rF9Onc5ai6bwRF75wHN6CtqLvfnzptPfyooa/4UjnYAAAAAAABAysM5H1Pki2woCWhEzobuLenFfoWWNRpmo+pih3cZ+Qzp3Hx4Duc5E0eEoLP8dE7XpEs51qUkD0/d+QT+jc+dazUvvZTKEXAj4sbGiu/xtjdepbIxoGtyrhFWE7TtbTUqLeij3lzux5sqTVLkCf+suJaPx1EOAAAAAAAAGFEUe5TZJT61Q4jNCcIjJejtfZqxL+JSh3cp6GGDG48vdrp8jwhB75yLHlo9kU756melpA+pnMvU+vM+drb1xk3fNVN67nlfgv7m67zB5q40gmtUCfMcNo0Sf18p7REp5lzux3J/xlENAAAAAAAAGLEU7umYUuLXamN1eN9erdo17bYuRCnBunQh+YrNtT/c4XT5Himy2SXph5ZcSr/1+U/YQyXpZ05wBN3+04xvjIi682QIepNG+b6wbb27X7f6GhHoNIMT+22JT6ss8CiTcTQDAAAAAAAARjyvBUJfK/Yr26L1uyfWpZcGFFLebOpNOk0g5Z3KKDpT/nSvyVdfOqKEs6tpXM2Ci9llXznPSna6+9jxE/hZHznLfuKK/zD47Zkjb1slKOhyH2vSCa1oscytlard1wg1WW8u5bzYpxS9vCf4LziKAQAAAAAAAKNH0t9uOafQG36stEKnfdWlF3kVtnOfbu6PEGNw89LFz+icKC/8rJ3njDxB75L0luWX0ennf86pSZdRbtcbwo0bzz937jnk5e9/y5RN6viI205pToZEy3tb+WBq0GVKu9jHrPcbdEvIN+0rar6pwuBiPzWKfZH7d+znE3D0AgAAAAAAAEYlhR5lTolPPba52uoz5X1blWoFjlky5Z0ONJp+QOc89NrvVdnleyQKele6u5o7ia6/7N/MCR85yz59/ATXUtql9F/0pU+SslsvZDKtnY/E7SMEneVn6EcDu0ONAxB0J2quURJosaxtVUqfUfOulPZiv3qwxBf+Po5WAAAAAAAAwKinwK98p9Cn7NjSR8p756KyLnhf2DblzHQZ9TxZQe8oeEYbyYLuSGh+NJq+7Qf/bf3Plz5pnTZuAhs7SFEfFxVz/vGzP2r/eNJXrbYVl9OR1BCub0FPV49UlrecjKA7TeDEqg/b1s79mlXsjbB4I9SKvEphQUXofBylAAAAAAAAgFOG4lr+sWK/8nCJXzP76vIuI5xbKlXLd8TUhWiRppOIpu+Xgl70bGikC3r3lPfQyons0ezz7a9+6uPWGCHqMkVddl/vrzu7/D65pJj/8IIv2O/eciFxUtrzM0b2NukS9Iq9rf0Jeuc+QzxHDHtLhWoXxmgEJ8W8NKArxf7Ij8vK+Jk4OgEAAAAAAACnJIU+dUaxV6neWkNkQ66+BIq9Wa8ZNUFb1qbHTXuPCvpz7aNF0I9H09dl8pbll5MXZn7TnP71z1pfOu8c47QzxxMZGY+KeKeQn+ks9pmPn21k/tunyU/SvqoG5l1EpZSP5Kj5QAVd7iOyRKKy1TL+WauRIk/fUfNiv8rlfic+Li/wdKBLOwAAAAAAAAAUlGtfLA7ovy0N6HasaHqJTyE79+tGfYhYTTphfYn6aBT0D0VdSnamU6O+f9GlxrYf/Dd5bvo3+N0T/11bfOFX2uTjs9P/i5fc+G1WNf8ig+RFxV5+Px9N2yGOoEe7s1Na20Gsd/ZpZpFPobFqzZ3Z5hWaXuhVHv+HJ/IZHIUAAAAAAAAA0EPUw98v9am+zkZdfYr6poBCPjhomFLU5ez07qnvo1nQPxTUaCM5R9Y7hf346vrc2gwn8j463/+Jgt4l5vVhYrx3QLdKxD4SS8xllobcv0oDWrn4eCqOOgAAAAAAAACIQdEHxz5X5Ff/tySgadGmXZE+Rb00oNCyRsOoC9lWo0qcRnINhtMkTh3Ngn6qr+6C3mRzKeZsX5iYcl/YVKHQghhifjxq7letIl/ktxvFfoajDQAAAAAAAABOgoK9wUwhUtvlTGq5Yol6sT9C36nXzIpWyxSCbocLntIg6KNd0NPUY5V7Wuo1bneJeWEcMS8NaNHxad7I7gJvaDqOLgAAAAAAAAAYIBt3Np5VUB5ZUuyL1G2tobzEr8UU9SKvwrbXGtaRPz4Y4jmXQmZHq6DnpXF73RX6nrKq4OZqk8QT82g6O5HlEu1FvshPXtkbPBdHFQAAAAAAAAAkwGt7Wr5Q6A0/JKQr6ERC++72zl/3aaz+mccjEPRRLOi5l/P2BxcKMVdIkVeJk85u8JKARksrtFde8ynfxlEEAAAAAAAAAC6yyRv+z0Jv5Klin6pHRb1nI7mCgElr//x7la++BDI7WgU951Je9fwzwcKAyfoScyHlfHO1Jbv+7y4sj1yPowYAAAAAAAAAkshr/vDEYn9kY5FX1aSol3R2fC+oMEnN80+18xwI+qgV9NUX8w9KtluvB3qO45P7QHRf0A6XBPT1pQH+SRwpAAAAAAAAADBEFHm0S0r8yotCylQpZwVC2qqf/0MQgj5a688ncbJ2Mn9n+25e4Dc668yPi7kiPv7Na7ta/gNHBgAAAAAAAAAMEwXe8GVS1AuqWdD78kucr7oIQjsqVxqn+Rl859YPeEHA6BybplmlAe0VsS7GkQAAAAAAAAAAKcJfq/l3mp68x8PXTITMjtoU90t4+auvKqV1XNabv1sSUCZjzwcAAAAAAACAFEQI3It8XSZkdhR3cW97bBUrKW8vLa1QP489HgAAAAAAAABSUc75aWP4moxXIOijWNDlWpfFrfXTbsUeDwAAAAAAAACpKugbvjmOrUl7n9+eAZkdzZK+LlM2jHsBezwAAAAAAAAApKqgr7xqPMvNqoSgj3JBzxePeelHeP7Uz2CvBwAAAAAAAIBUFPSl16bxlVM1R+AgsqM7zT0/nZI1aTdirwcAAAAAAACAFIQunvk8XzldRlcZRHZ0Czq7PZPT5ZOf4aedNgZ7PgAAAAAAAACkEHzh9P9mS2ZG2JLpFsvLsCGyo1rQGVs62eILpgb5/KkXYO8HAAAAAAAAgFSRc37aGLZkxmt8+dVcPHKekwWRHc315yuzNDZ/KuGLr+RC0p/GEQAAAAAAAAAAKQJZMnMhXzaTSjl31urJFmR21DaHs9iiKTJ6ztnCqZwvmhbhi6em4ygAAAAAAAAAgGGGL7vyIrZ05jEh6FE5XyzWiqkaQ6O40SnoOZkWWzA1KuhiySi6eNzN5153Lo4GAAAAAAAAABguOV80/Vts2cxaviya2n58LZvG2Jo0SO1oXCuzOJsflXPWTdLpgql/4rNmjcNRAQAAAAAAAABDLecrrvkeWyrkfHkvOZc16MuugsieSoJ+XNKveJLPzZyAowMAAAAAAAAAhgiybPpNfOnVzX3KuXxcOt1meZk25qGfGoLeXdLFx68LSf9XHCUAAAAAAAAAkET0RVd/hS6d/lu+ZCY5XnPel6AvmW6wnEwDgn7qCHr3dHe2cGqNEPYb+axZY3HUAAAAAAAAAICLcCnmS2ZuEALexFdczfnSGX3KebfFWE4Wg9COsiVvuKzOjCvojqQvmsb5wmlMiPo2smjqdXzlVeNxFAEAAAAAAADAIGmZN/Ece/HMy4SM/5otvfogX3GNEPOZ/Yk57zZqDUI7Kru4Z5ls/jSTL+hH0juj6XyhHMc27QMh7OusedO+gxp1AAAAAAAAADgJhIx/gq+YmUmXTH9YSPYusaisM4+Vzh5v8VVTILWjUtAzVLZwqtqfoPcQ9UVXdtWnG0LY33aayS26YhZfNOUr/NapH8WRBwAAAAAAADjlaVt51cf48pmThZDfwZfM+JsQ6wN86cyolMs1QCn/cAmhX3mFIaQOae6jbeVlmELQTXaSgt5D1hd2RtW7IusLpipswbTddP60P9L5U3OFzGcLaf84P+20MTg6AQAAAAAAAKMavnz6vwjpnsaXXX0HXzr9dS5rypfM0B0Z70xhH7yU91rLp0Yg6KNR0MVaPIUPRtD7FHYZXV9yVbRufcFUnS+Ydlh8rYQumrZWfC6Lr7zqYzhyAQAAAAAAACNfyJfO+ARZPHM6X3r1A2zxjJ1Cvpud9POV10Qj5FLIl7ok5L07uS+fBkGHoJ+8rHcJ+8Jp0Qj7sumdX5t2gC6Y9ixZeMU1fG7muTiqAQAAAAAAACNT0Bdd/Sm6eGYeWzqjhC2ZeZQ7cn7th3K+xH05P76WXgU5H4016LkZNlt4BeWuy/m0D6Pp0Xr1iFhN4mtv80XTnhRfX8iXTz4PRzUAAAAAAABg5Mu6bAC3ePoVQoDWyvR2IdGHxecsvqwzvb1T2l0T9GVXCanLgNiOKkHPkE3iWtmCK+odoZYyLR4Hl9o+rbuMUzZ/akg87hRC/jhfeOVc8XihrEfHkQsAAAAAAAAY3bI+a9ZYnnPduXz59HSnQdzSmS+wxdPfE2LdLju2R1dnozgp710Cv7zb57o+lt/bmSrvPC7rFP2lV8mGYhDb0SToazPlLPR/8iVTP0MWTLtNiPZLQtYP8K7Z510N4Jb0Wl2fj85Hl2nrqpBxn/j4Fb5g2gNk/tSr+bwrvoB56QAAAAAAAAAgOHLr1I/yRVd/hS+96lK+ZPqtdPGMe8T6PVsys4AvmVEk5P1t8bhLiPh2IeXy3xvFxz/nS6cv4ItmZImf/U++5KqJXPwcl+n0y2cIQc+E2I4yQadr0n/Z42bPgsmfFfJ9mZDtJXTB1EfEekGIe5GQ9uOLzpv6e/H5B6n4Hr7gykw+b8q/8x/N+ASOOgAAAAAAAAAYBE7UfdHVHzmp710yM5MtndnCcrNQhz6aBP32DM7XZNyEowEAAAAAAAAARhB0yYzHWE42cRqLJSyHaZzlToIkD38NOuM5l/839m4AAAAAAAAAGEHYC2dcLgTdTFjQ89I4v2MKZ/dez9ntWRDl4WwQtyb9EF878QvYuwEAAAAAAABgBMFXXvUllpvVwm9PUAxzL+fsdzltrLHKZg/8gLPciRDmYak/z5AN4j7gGzLPxt4NAAAAAAAAACNJ0OdNPIevySxzxC4RMcy5jLPn721kHUdN9uCPIOjDJejrMmU2QwE/7bQx2LsBAAAAAAAAYITB8tKLHLFLRAxXX8rZS78Iso5jNnvwJgj6cAn6HVmc5qU/g70aAAAAAAAAAEYYMtLK8tJKXBH0fzx2lIVaLAj68EbQ+Zr0+7BnAwAAAAAAAMBIFPQ1Ga8kKuhs5UWclTxNWbiVsZ9B0IdzxBrNz8zBng0AAAAAAAAAI1HS89KflqnRCQt66TNcCDqHoA9CrF18Dr5mEmagAwAAAAAAAMApK+gyxX3bC5yFWiDoA5Xq/HST5aWriY666xR0xvPSbsBeDQAAAAAAAAAjUtAznkpI0PPSouudVxjrOAZBH9DcckfQ29majHeFYDMXBN3iuWkXY68GAAAAAAAAgJEo6GvS705kzBpf4wi6wXYVBTki6AMUdGe7N9P89KfFI3VF0FdPugR7NQAAAAAAAACMSEHPuDMhQZfR83VTTFbxdogHj0LQB9jUTTzuE6KeJx4JT1zQTZ6f9m3s1QAAAAAAAAAwIgU9wQi6FPQ7rtBZ1fttvAOCPghBD4jtn8XWpFmJ1KF3/qzC12R+Cns1AAAAAAAAAIxIQU9bwPIH30mc503i7K7pGjsQaOHBIy4JesapIejOjZG0d4RU/6f4t+6KoK+ffB72agAAAAAAAAAYiYKel/6DREZ9OYJ+z9Uma6oO8/bDiQu6/NkN13F29/Ro87lRLeiZskncq3zlJR9jeekRCDoAAAAAAAAAnMqCvmbSTS4Ius4O72tLWNCdevYrCHtihcYe+H82y52Ust3XZfS7M0V98M+zLlM22fs1X3nVeCHotYk8nyPoeWkqBB0AAAAAAAAARqygp1/vzM9OJOJ93w2MHTtIWGtTQoLuyP5DtxxhO19vYPfdaPLUrWXXxPYKiMf9iQo6XZP2AM/MPIOtyShLSNCjP1vD1048B3s1AAAAAAAAAIxEQc+beKkznisxQedC0Lkrgn7/rCOs8v169tMbUlLQO9PS3+M5mefy29OnyvFoPBFBz0tfLv8OZE16ofPciQm699iyzLOxVwMAAAAAAADASBT03LSLExL0nMs5e2Q2Zy2N7gj6T69X2N5tbULQjRQW9LejNzcyL01I0O/I4iQv7Rb5XHRN+jNS2BMUdB8EHQAAAAAAAABGqqCvnnRJwoL+xHLqyHmigi5/7udzNOZ5s4P99EY9ZQV9Tfo7fNassTw3+4ssb/DbTgq6nTvpSufvsCbjEX4HBB0AAAAAAAAATlmMldlfTWTEF88Vgv77vKOs7RBNWNBzLuPsd7kqq3g/yH56vZHygp4/9TOd9eiDfK4sIrZ7dlTQ03L5+qwEX1faVr7hm+OwVwMAAAAAAADACIRvmPZJZzzXYAVdSvX/3dfG2ppZooLOVl/K+Qv3MVa9K8zuvT61I+gbMs/gD035OMtPbxhMczeenxFtNndH1oWdgr4goQh69HW9Jl8X9moAAAAAAAAAGImCvn7yec54rkQE/W8PHWLthxOMoKdxlp9BWPHTBqt8XxkRgv7wNeeIj2sTEvS1md9z/g75Gd93xrcl8LqE5L8CQQcAAAAAAACAEUooV0bQ09oSEvSC/21kwSOJC/q6KRZ7rzDIAu+qKS/oiy48k8/65jiWn/b2YLqvdwr6EX57+vlRQc/MFP82B/13uEMKesavsUcDAAAAAAAAwAhFNhUTcuwf7AxuvvpSzjY91y4EPbEUd9nB/cczOA/spMz/TmRkCPqsseLj7YMSdLm9ZXr8uilfcQT99rT/EZ+PdIr74AQ9L/0h7NEAAAAAAAAAMKIFPd2XkKBv/8sx1nE0sQi6/JlHZhNe+R4fEYLe2YyNrsn422DGo3Vu70aek/mvjqCLRyHsxwYt6OuzOF2Tlos9GgAAAAAAAABGKDx/6kfZmjTPYAWdrbyYs3f+Qf9/e3ceZVld2Am8ER3FHZB4XNGISxyjR1vFpuve+7pBSGNwUCmPkHFBpEChpevdW9XdEsYKqCQu0A2uaIxOTqKJmWFcxom4xCjiArhEdpBFnBFBWhaBXurd3/zufa+q1+qu++q1WvD5nPM7r+rVe7+71h/f+9tiQJ/TMmuhWq7t4+PryqsuLudVQG9nf99XQO/Wc3lY9Yq96+swetg+Ic9+0dd49qkx6GPpG9zRAAAA8zWgjyx8SAx5X+6nm/bmgH5+mHNAr1ri//l9d5TX/nCeBPThOqDHcPz+fpZHq+sp0kvDWcN71fVMLHhQfP/6/iacq18nJ/NsmTsaAABgvgb0idaDY7j7Qt8BvRo7/oMvh/I3cwvo5dtjQP/iR8pw3Y/C/Aro2V/1szxar54fhokjHj59LfL0e30H9HZ6d2inL3RHAwAAzO+A/vm+Anq7mnn94E75k290ynW39B/Qq3rytCwv+HQI1/5wXgX0zlh6UhWqwwACeplnX+53Rvi4/dtCftD+7mgAAID5GtAXLNgjjKUf6asVuF4a7eDflpd/567wm1tCWPf/QjjzmMYBPVSt8KsP3VBe9Pl7wjWXzquAPllkx8ZwXIb+urhfHEa7XdzrsJ8nn5zDhHO/WLdy4WPc0QAAAPM5pOfpmr4CehWs/9sR95bX/+S+cM+6UP7qptvL01+zvn6/aT2n/fm95aVfuzNcc8n8Cujt9PB+1i/vBfELtrwOnWo8e/8B/YYwMfEgdzMAAMA81mknH+g7oE8ceU9502XXdu647f3hgk8tLtvJz5uOow6jsZ6/etW95WUX3hWuvnheBfRNY0kWf793EAE9FNlYX9dhKqAPD+/pbgYAAJjXAT1r9zUTebVm98pDbg2ffdfL6oB59BMfF4PqzY0DehX0z3jN+vLy794z3wJ6WJH+Sfz9jqbrl88Q0I8Pq/qZET6rJon7ljsZAABgvgf0PD2lr4BeB/HkuruPPWC/bsA89I9CnjZuQa/HrL/n6BCuviSEq34wvwJ6O31KWWS/HkRAn8xbR/Yd0PP0a+5kAACAeS60k7fOIRj+NLxt+JF1PdWM8O306n4DennVxfMvoMfX+PsvB9KCPr54SaxnU+Pu8t3r8HV3MgAAwHwP6HnrqN5SXY3D6mSefGfLumJAv+IBF9Db6Q0DCegr04PKPFvfZ0D/hjsZAABgvgf0djbcb0CPYfILD+iAPjy8Z1mkF/VC8pwC+oa89Zx4/m5tPIa/u+3Pu5MBAADmuU3t5OAY8DY2b7lthU6efXybgH7lA6sFfeJBVev1IAL6fStaT4vvNZ9kL9YV8vQj7mQAAID5HtCLbFFfS4XVAT09Y6uAnqffaxpWq4AezjxmXk4SV+kUyd83Xb+8/nyRfHXLcxeWL3t0/Nvl/YT9UCTnuZMBAADmuY3t9IUx6N3VeBx1FdCL5OStA3r2xV6I10WNRwAAFP1JREFUbbjM2vCG8srv3zvfllmrA3qe/V3jgF7Xk31uq4BejWcv0ksbn7+6BT17rzsZAABgngv5QfvHoHdbPwE9FK3XbR3Q0y81DpijMaCf/up7y8u/c2+45pL5F9Db2elNZ8HvPtzIPrzttSjz5NuNz9+qOqCPu5MBAADme0AfXfSkenKyovnkZGFsyeKtAmaR/kvjgFm9ji25tbzw/AvCNZeW86+LezrRV0DfwbjxGLTPbx7Ql1ST9R3nTgYAAJjvAX247lp9U5PJyapQHQP9ZGgvecGWdcWwurZxd+9qu+2h/xvee+yLyqsuvigG9PXzrIv7SFg9oIBeZJ/sK6DnyZHuZAAAgPke0OuZyJOfNQro3db228No64BtAvrZfQX0PP1ZeNqCh4WrL31nDOhhPgX0yXbyXwcY0N/TJKB3J/bLJjcVrZY7GQAA4H4gBvR/azJ7+HSofkfyhK0Cep7+ZZ8B/fL6+1dePFL+9MLJ8vTXDDSgN176rUFAD3lyVD+TxO0ooHfa6al9BPTfbhxPXuouBgAAuF8E9PTrfQT0H4UVrcduWc/GIjm5vxnN0+9U39905fcPKy+78O7y9FevH0RA7wbY5PZ68rqx3RTQi9YhcRudJsvUzRTQJ8fSNzQK6N3rcEtoDz3LXQwAAPBADOjj9Tre3wwjCx+yZT1hLHlTn0uO/Y/6+1dd9ajyP771lfJdR00OJKDXdSdfjeH56XWX/CIbeEDfFAN6Z0ABPeRLXi2gAwAAPKADevbVRgG9DuHJ+SEs2GOrgLlyyWH9zGgew+2503V88tSDylWH3BUG0SW9WoKsyN7eewjxgybHONuAvnEseVF8784m4X/mMehLDuyjJ4OADgAAcH8QFizYIwb0SxoFw1V1wPzb7erKs5f304IeA/rEdB0nL3xOOZr8es6t3d0W7Ts3ttMXVvXWM8w3fHgwm4C+oWg9r2nr/MwB/eDnh7F0Q6OAXqS/jN95pjsZAABgvgf08daTY8j7ddOAGfLk3TsI6C+Jdd3XqK6VVVjNRjbX0XpOfP+2uXdHz6rl4H44FaZDNb57NwT0KhzH9341kIA+2jog/n3dbOvqBfT4+dbz3MkAAADzPaDn2etjmO2ERq3TWdVCfcIOA3rePKDHUD69jndYvWy/+P71c515vX6I0E7P3iL4D4X64cGgZ3FvPa6e0X5sAAG9+7DkpqZ1TebJUe5kAACAeeyW4tBHxGB+UaPu7d3XMgbdpdsH9F7r91jDgD6aJdN1jB62T5ln1805oMd6J9vpK6frPeXgx4c8u3Eu9e4woE+0Hhvfu3YwAX3xo8p2emmjieK61+4L7mYAAIB5KgwP7xlD4ofCWMMx493W8bvC6NInbVfnykOe2qQFuFfXfaE3TnxQAb36bjy2devHFz976wcIybebhN/ZBPRKPOYfNQvVMwT0UM0HkJzfx1rykyHPxt3VAAAA8y2c563HddrpB/sJwb0g+r3wptbDtq936f7xbz9vGNBv23IW8oEE9LpVObskFIc+Ysv9i8f80d0T0LN/G0RAr4+/nZ7adB+rbvvxe2U8vk+E0UUHuMMBAAD+4IP50v0ni+T4kKeXdyd666/reKdI3zdT/Y0CevW5dvqzGCqnW+PDSQfvW783l4Be7WM7/Ydt92+y3Xyd9tkE9E6efWZQAX3jaOvF8TObml6bMD3hXlJNWPfhesz9NuvUAwAA8PsK5B9b+JBqlvEY3t4Yy2dDEcNzNbt5n+G31+J9b4ghciABvQq1VffwlYc8ZrqOGCrj3346lzXLe13cT9lu/8aTl5Z5NtnvRHEzBfRY39kDa0Ffvuyh8TPf77elvzr23kOIjWU7/W4oktNCe+gFN48u2st/BAAAwO8ylFcTv7XTg2IgPyOWb8RA+tu6tbwqA5h4LQbLz8647T4CethRl/E8uWROXdGLLGzaYuK56f1rp0+JofWmvh9QzNyCPtqkZX5nAb2ubzQ5ud8eDlt1e+9d93g+N5RFemGnnb4znptFYWThw/2nAAAA7I5QvvKQx4Q8e3loZ++Joe4ndRfpqVA+h2XFtmuZLdJbN+TJc2d+OJA+PX72F7MO6NUM7kX2f7atZ64BPZa7qzC+3f5NtB4c//b1vlunZ25Bf+0gA3o1m3v94GJu52AHYb2+hhtj3T/o5Mm7q5n4w8gRwjoAAMCcQvk7kidMtlt/Xo03LvPsxrKIoXzVkm6QzgcTyrcaKz7Wmoyh98073ad8ycK6C3wx+4Ae9/t/DjKg9x4O/LAKuTvax047WzvwgL4iWxT/tqlRQI/XbWfncmO1pnyR/XouXf1nHKte3SPxXqm7wefpNfH3s+K1PTxMtB7pPwsAAGA2obydPmUyT47qjifPrq+CcN0K3W3dHmiQmw5z3THr91VjuqtlwHa6f2Pp4WXDsdiT7e2D6pwCenU+8uz8mfY1FEPHDrqLexhb+oyynd7SpGt/PJ9/u8vrnSeHxet6e/eYdsP1LabC+nRPi8s7RXrupmqIxMT2s/QDAAA8cAN58fxHhNGhP45B/NhOkXwmvt5cB+bdHcqLdPM2xtJLY+BdNpv97eTJ3zTq6l0fQza2GwL6e2c8pyvTP43H1xloQJ9oPbIs4nma5T73PveDakK4XZ3TOiyPZd+fvu5F7xrtjrA+tY08np8ivTBud/k944uf6D8RAAB4YIfziYkHxXD+ZyFP/rEssivKIrknBqnJXtnc+jkVqqru7VWpfm5apr7X7R5flu30zvjzF+M2jpltt+fwthhS8/TKJq3TdQ+AfPGyQQX0Xmgtq+XUZtzPvPW4+Jkb5rAG/HYBvX440U7/YbYPJ+oHK2PpPVXX+Fmd29c//xGTeXZ0GEv/VzzGO2OZDFPnb2ps+Zb3wJxLrGt19+cY1H/VKZLz4nZeXI3h958JAAA88AL6ggV7VEuOVV2Nb19+4KOrYFlNwhbGliyOAfQ1k2PpGzpFemoMaadV45lD0fpUDG2xZJ8r8+yC+Nmv7KrEsHhBLF+KP3+6007O69Y3dEQMY09uuoZ2J0+Wx9BbhiYttkV6R1g59NSBBfRuj4IN1Sz2M57Xjy18SAydfU0Ut9OAniejTcaL92bE/6ddDRvY+qFN68Fh/OVPjNtZMjmaHhO3eWK8ZhMxQJ8Wfz5n8z0wh1Kkn4p1frSa8b0uRXZ63M8zQ5GsCMtbT/afCQAA0CTcV63vsywD2V6eHBmK7I5Grefd1uZ/31E37/4Detx+O701rBrae6cPE4r03N4kaQML6KG95AVl3qzrfPVAo1Mth7dg9iEdAAAAtg/m44sfFQNmHoq6S3zDyedaIbTTYkf19h3Quy3YF+2q9b+TZyPd7vUDDOiji/aK9X2vyX5PD1Mosk9vWJH+iTsKAACARu6qutvnrRO7E6NlYbbLqm2zFNovY6h90nZBd8GCPeLfftTP8mL1OOx2ct4uHywUSw6MYXp900n2dhbQu/VmY/WDh6aT8nUnZrujWnJusppl/qSX7usuAwAAYMGOQnMYbR0wmQ8dHcP1x8o8+0V3gro5zLReJKt3uK0VRz421n9tX5O4VROc5ekpuzyeVUN7113hBx3QVyf7xXr7m4BuyyXz8uzGTjv5QPw5CRMLHuQOBAAAeKAG8hWtx4Z8aGEsR3fydE1ZpBfHAHlbHR7rcJ31vcxXr7X4orD8wEfveNvJE2JAv7FpyO2F7clNo0N/tsvja7UeXI9/b9hK3wvo393ZGuGhnZ7QT+v/1svcZd2HDWPZfaF6IJBnb1t/yuJnuzMBAADuz2F8dNFe69tDzwrFkld0ivRdZZ58MQbCy2IwvHt6GbbuOOk5r73dq+uGUCTPn3F/xpIXxX24q69u8+301vtWvOxpsznuTp6+v+lEcd2HBsl11UOEGfd/+bKHxv34l7ByydzP19Ta5Kta9XJnVRf4MJa+IYwtfcbOHhIAAADwhxrCz1n+0LDmLY8Pa0eGwrkjx3TOGTkhnHviqeGMo94TQ+B3ynZyd3c97V4g72Nc+S6DZr2mdvbjMNp68c72dbKaEX4sK/uaIK6dXhqGh/eczTmZzNM39lrzm25nUzw3O12/vO7qnmdfneptMJBzODa15nndiv+bWO+36+XQ8mz5ZHvxK8PyxS8Lf/0Xy+J1fsNkVc467oiw9oRnhrOG9/IfAAAA8PsM5f88vOfGNSMHds45YWV5zshXY1kXy2Q4ZySEc08I4YMndl/PfF0M5UtjuE0GFsi3CpXd5dQ2xiD5dyFfuv8u97tI39XXEmj1BHHpubM+P6OtF8fv/bbxOPQ61Gfv3WX9qw/eN4b/D5VFes9UL4SBPvCoA3vW69qfleVfHr6+POvNG8Ka40O3vKUs1xx/b7n2+G+FNceN3ve+tzzdfwUAAMDvMpi//7j9O2uPP6Vce8IlYe0Jm8J5J4fw0ZNC+NBbYzmxG8y3LB96Wwxzbw7hnUd0W2ingt/YDkrRDYSbyzZ/H9/cyluXIrs55Ml/D6NZMqt9H1n48LJIruprkrUYgidHF7929gF90V5lO7268Vj3+vPZL+LxPXk229mYH/SSTpF+uvedrc/PjOc13cV5jt897fAQ3j0cyjOP3lC+741h+sFL9TpVqt8/HK/7R94WyrOPvzOsGTk7rD3uef5LAAAAdmcwD2GPcPbIkeWakS+Xa0eujwHt2vh6VSxX7LqceEV5zshl4YzhK8q8dVUMopfHcm0MlbfE16nyy1huq1rDtyjreu9Xf/9ZDJI/LvPka508e2/I01eHdvqURsdQdTsvsjL001If9yGsGvrjRttrp5/otfA3niwuHuPHG21r5dBTJ4vsVaFIPlC206+EPJ6rIr0p1verqiV/m/O6bbl96jyHdnJDOfHKy2LgviwG7ivKNcdfGdYcf0V59ltmLKH7enV8vTG+/nt8fXUIC/bwXwMAALC7Avo5x+4XPnjSvuFjI48Jf92wVN/5xOg+YdUr9q5mWA/Lk/1Ce+hZ63sljKXPDHny3E3V0l95a6heAmxl+qfV+/Xf33Hw4+cycdmGInl+DKw399t6XubJ+Y3PWd46Mow3H+9el7Gs7LSzdt/Xa/myh1at8NXs7DGsvyRMndcdlA2j3fNcXY9q7fhw5jF793WNq1LdH2cdt4+ADgAAwPZhtR4Pnl3X7zjtumt9Oxtuvt3D9onB/qp+1nPvdT/vVDPfm1EdAACA+R3MJ1qP7LSTFVXX+X5C8vTs7Xn6H+tWHvKYvvahCtgrW3NbBq1I/3VXM7sDAADAH14wX5E8odNOTyiL9CdTE5/1PaN5DMidPDmx733Jl+5fjbXvu/W+NyY9BvTfxno+F/JsWejzYQEAAADs/lC+amjvUAy1YqD9SAyz13VnMs8ar0O+7WRt8fUbc+1i3mknq/ttRd/cmp6FqXXV488/Ce10bX28o4v2cfUBAAD4/Yfy0fTQkLc+GPLssm6X8MGsCV7XUWS/DmPJi+a8n8Whjwh58q9zDembW9R7S6FVxxuPu1Mkn4w/vzasTvYLC0zOBgAAwO4O5MPDe3ZnGk9eV7WUl3l2YwzRk3XL8gBC+VbLqo1n94V28qaB7Xvc77JIr+l3LPxO93Vz8P9lGEs/G9rpCdWs9WFk4UPcNQAAAMw91MaAGYrW8yZjIO/kyTkxgP4ohtx1dShd1ep2+x5g2J3q1h7D+T1zGXe+k5D+grLIrgkrlwx+v7fsBt99CHBnmSc/ju+/f7KdvrJaJ90dBQAAwKytH1v6jFAMvapTpB+NAfOSGDBvr0Nnr5V8d4Ty6THe3dB/YxjNXrXbjq/bkv6lupv6AFv9d3g8vdb1Xnf9n4ci/UrIs/F6XfTVB+/rbgMAAKBWTb5Wj5seX/ziGCjbMUD+79BbEm26FLsxxE51EV9VT772m06efjDkB+2/24/7Ta2HdYrs7Zsns2vtlocO2x3n+HTr+mQsl8fz/ekwnv5FaKdPCRP/+T+5IwEAAB5IoXz5soeGIvkvMZyeF4PjRfUa5TEwTrf27sZAPt2yPN5tkS+7k6xdH8Pye0KePPd3fi5Oeum+nXb21hiUvxn3bVPdqj7VU+B3Edg3n+8747n4ZnVNOu301FC0WgI7AADA/Tmct5ODyyK7KIbBTli9ZOtu63VJtyqzD91blN6659MznW9Zul3KfxO3dVEM5R8OeevIMHrY732ZsptHF+0ViqEDQ5GcVnVDL/PkxnLL2dqnS7b5+LY4X80eUGxbtugKX12TVa1QjqUbQrW83O/hoQUAAAC7O5znraPqcJynZXzdGMv6XZXNoXHnJX620/1OsiG+/iqWm3tduL8XX7/caadrO0Vycnfd8NYBYWThw/9gz1NYsEcYX/zE0E5fGPLs9Z0ifVcM0Z8p8+zb8Vh+GssN1WztZZHe0zvmzq7Oz1bnqkg37eK8V+dwYwztZdlOLw7FQX/k7gUAALgf2dgeekEMfUkMm4tmUzatiK/t9PCqO/zk6MwlVDOU52ka2q2X1d8dX/zssKL1tFgee39bEzwe26PC6NInrR9Ln7mxmuitOt762NNX7uwc1eepei2yI8LK1lB9bmdzDUaTLCw/8NHuXgAAAAAAAAAAAAAAAAAAAAAAAAAAAAAAAAAAAAAAAAAAAAAAAAAAAAAAAAAAAAAAAAAAAAAAAAAAAAAAAAAAAAAAAAAAAAAAAAAAAAAAAAAAAAAAAAAAAAAAAAAAAAAAAAAAAAAAAAAAAAAAAAAAAAAAAAAAAAAAAAAAAAAAAAAAAAAAAAAAAAAAAAAAAAAAAAAAAAAAAAAAAAAAAAAAAAAAAAAAAAAAAAAAAAAAAAAAAAAAAAAAAAAAAAAAAAAAAAAAAAAAAAAAAAAAAAAAAAAAAAAAAAAAAAAAAAAAAAAAAAAAAAAAAAAAAAAAAAAAAAAAAAAAAAAAAAAAAAAAAAAAAAAAAAAAAAAAAAAAAAAAAAAAAAAAAAAAAAAAAAAAAAAAAAAAAAAAAAAAAAAAAAAAAAAAAAAAAAAAAAAAAAAAAAAAAAAAAAAAAAAAAAAAAAAAAAAAAAAAAAAAAAAAAAAAAAAAAAAAAAAAAAAAAAAAAAAAAAAAAAAAAAAAAAAAAAAAAAAAAAAAAAAAAAAAAAAAAAAAAAAAAAAAAAAAAAAAAAAAAAAAAAAAAAAAAAAAAAAAAAAAAAAAAAAAAAAAAH5H/j/Pk2dphT0powAAAABJRU5ErkJggg==;" parent="1" vertex="1">
                    <mxGeometry x="805.89" y="203" width="140.07" height="80" as="geometry"/>
                </mxCell>
                <mxCell id="34" value="" style="shape=image;imageAspect=0;aspect=fixed;verticalLabelPosition=bottom;verticalAlign=top;image=data:image/png,iVBORw0KGgoAAAANSUhEUgAADwAAAAhwAgMAAADt0CPhAAAABGdBTUEAALGPC/xhBQAAAAFzUkdCAK7OHOkAAAAMUExURUdwTAAAAAAAAAAAAAu23DQAAAADdFJOUwCnQoPizkwAACAASURBVHja7N07bltHFADQiIAhMC5SqlRlCEqjJURLcEMrMGCQTYAgvevHTRguaQRwEHsTzBJUWLEaAVxCishwEXqCfBAHiSWRj+8zd945SyDnYu5vyM8+AwAAAAAAAAAAAAAAAAAAAAAAAAAAAAAAAAAAAAAAAAAAAAAAWjT68odHk8nbJ1dXKaX11dXTt5NvHn/3vQ8Gco/d15OzabrB04vJ67nPCPIM3leTKt3pyeS1jwoy8/mzp2ljF49dxJBR9J6lLT0Rw5CFV5NUy+RHnx30XPg+m6baLh77AKHH3HmTttVtrh/JpKGv8E27Wwth6CN5biJ8hTD0U/tWqTHXamHo0ssGw/fPEP7WZwodGZ+lxsmjoaPsObVhLY+G9h1PU0suXvh0IeL16xKGLqrfaWrVhUoYWvMytW2tHQ0tpc9nqQOPfNDQguNp6oReFkRMn6XR0JbnqUNf+7yhyfJ3mjr1s48cGjPuOH7Nk6A5x1Xq3PULnzs04UHqw/XMJw+7e5n6oRkNu3ue+rLWjIaw8WucBKHjVwRD5PgVwbCDs9S7S98CBL1/3cEQO35FMESOXxEMkeNXBEPk+BXBsKUHOcVvWs98IxA1fkUwbOM45WY9963AZsZVdgGcrkUwbGSUYfym9M4XA5vE7zRlye9kwQYWKVPWouFOBylbD307cLsH+cavYRLcYZxyZpgEtzawqqwDWCsabjNNmXvjO4KbPE/Z864BAjawNLLgjgZWFSCA7VTCpxtY0xSCjSyIWQArgyFwAawMhsgFsH0OiFwAK4PhEw5SKA99Y/DRvVjxm9anvjP4J4GuggWwpWj4aJHC8bof/naUApr53uAP44jxa6US/jINGcBeFkLYBFoSDYETaAtZEDmBlkRD5ARaEg2BE2hJNEROoCXRSKBTcJJoBmyvih7A175EhmuRwrMTjQQ6slPfI8M0qkoIYA8LGajDVIRz3yRDNC4jfg2DGaZpIQFsGIwOlmEwRLJXlRPAhsEMziIVxDAYHSx9LNDB0scCHSx9LLjJqCotgO1jMSAHqTgPfavoYOljQfYWBQawURJDca/E+PWHhQxFVWQAp199swzBUSrUzHdL+UZVqQFslMQAHKTkCoag9sqN37T29VK6RcEB7Nd1KN245Pi1zYEL2DYHuIBdwdC4aeEB7AqmZPulx6+FSkpWFR/AFiop11EaAFcwhRpVQwhgVzAuYAuV4AL2pgFcwK5gGMoF7ArGBewKBhewKxhcwK5gXMBDCmBXMC5gVzC4gF3B4AJ2BeMCdgWDC9gVDC5gVzC4gL0LpnDVEAPYu2AKsZ+SKxhcwK5g6Nr9NFBz3z0FWAw1gP1GNAUYDzV+/U0DLmBXMLiAXcFQy+GAA9j/BRPd3pDjN60dAFzAga2cACIb4jMGTxooxlEauJkzgAvYPiX0YD8N3qlTQFiVAHYFE9ZY/FrmIK6F+LVPSVh7otcyB3Edil77lIRlhmSZg8COxK5lDuJyAZskEZclDsscBGaGZJJEXJY4LHMQmBmSSRJxjUTtv3xwIIjFDMkkicDMkEySiMsM6T+0sYjEDMkkibi8Q/ImicDMkEySiMs7JG+S0MKyEA19WArX/3vvXBCDNWgL0WhhaWOBFpY2FmhhaWMxEC5gC9FoYWljgRaWNhZs08ISpzfyrh8tLG0s0MKyjQVaWNpYaGFpY0EeLSwZtG0stLC0saAHSyGqjUVYfgvrzjaWQ4IWVmArp4RsaWF50YAWljYW9GAhPI2C0cLSxoLu+UfCjcycFLSw4nrjpJAj7xi8aCAwQ2BtLOLyjsGLBgIzBDYKJjBDYDk0cRkCGwUjg5ZDQx+WwnJzXgUjg5ZDQ1NOROU2Vk4MWTEE3opXwWTlvpjcztyZISPWKI2CicsapXVKAjMENgomMGuUcmgCZ9DicWv+KxgZtBwadmeNsoZL54Y8WKO0Tklgfo2ylpmTQxYMgWvx65TIoOXQsJsTsVjPytlBBh2XJ0lkwO+5y6GRQcuhQQYthwYZdEc59Nz5oWeH4rC+c+cHGbQcGmryY1g7kUMjg5ZDgwxaDo0MGjk0Mmg5NMig5dAgg5ZDI4NGDo0MWg4NMmj70CCDlkMjg5ZDQw+8JJRDI4MeupWThAxaDg0y6D5yaEeJPpyIPTk0Mmg5tLNE9/yjihyawPwnYWNmThOdWwq8prx3mpBBy6FBBt2HU+cJGbQcGmTQPfjgQNGtfVEnhyauQ0HXpHMnii6NxJwcmrj8mE7D5s4UMmg5NGyiEnLN8qCBDnkK3Pgylhya7pyIuKatnCpk0HJouJM1rBZyaMeKrnwh3ixjEddSuDXPgwY6Yg3LMhaBecgghyYwa1iWsQicQRsiGSQRl4cMLZk7W3TAGpZlLAKTQcuhicsalmUsAjNEMkgiMGtYrbl0umibNSzLWMigMUiiD9awLGMRmCGSQRJxGSIZJBGYPyVs1cwJo1WGSK3yqp9WGSIZJBGYIZJlLAIzRDJIIjBDJIMk4jJEMkgiMEOk1q2cMlpjiNQ6L5JojSGSQRKBGSJ1YO6c0RJDJIMkAjNEMkgiLkMkgySUwNimpA8LwaUIJixDpG68c9Rog/9EMkgisBOhZZuSuOxRdsTPctACQySDJAIzRDJIIjB7lAZJBGaP0jYlSmAUwSiBFcGwDXuUimDiGimBFcHEZY+y0yJ47sTRKHuUnZo5cTTKHqVtSgKXwGKqU36bEiVwZIpglMCBrZw5GmSIpAgmLnuUtikJzB6lbUoCOxRQtilRAmObEiWwIhiUwIpglMAoglECowhGCawIBiWwIhglMIpglMCKYFACK4JRAqMIRgmMIhglsCIYlMCKYJTAKIJRAqMIRgmsCAYlsCIYJTCKYJTAimBQAiuCUQKjCEYJjCIYJbAiGJTAimCUwCiCUQKjCEYJrAhGCYwiGCUwtXxwCKnvvgjq29wppLYTAdS3lVNIbUsB1Lf3TiF1jcSPIhglMDusciiCUQIH9pNzSE1fCZ/+/eIcUpPoscpBXNY4siiCHUTq8ZIhC6dOIrUcCp4cnDuJ1FIJHkUwSmAUwSiBFcGgBFYEMwxLoZMH7xmowUuGXHjPQA1eMmRj7jSytROBk4uZ04gSWBeLIbHGkY3fnEa2ZY3DKgeBWeOwykFg1jgUwSiBaYL3DCiBFcEMhzUOqxwEZo0jKysnkq1Y48jKpRPJVsSMLhZ6WOhi0QNrHFY5CMwah1UOArPGoQgmLr/GkRu/ysEWrHFY5SAwaxzZmTmV6GHpYqGHhS4WObPGYZWDwKxxWOVACUyTVs4lG1oKl/z4gxU2ZI3DKgd6WOhioYeFLhZ6WFY5fmfvjHXbSJIwbEo4EDYDhg7nEkPQJnwE8hE2ke0TsBCjw2Jz48JhfLlPoZ0Y2PNLkI/AYG0rWYCPwOAsXGAu7+zd89GSKM6QVd3VVd/3AByypv7p6r+qhxAFxjgY5QA8LMDFggxwFMkoE3ITGtBHKjaZkZvQgCFSwcUCPCzAxYL0MMbBKAcUDGMcuFhQMAOEYpUF2Ql4WOWyJDthJ+gEFwvwsAAXC/CwYJMR+Ql4WLhY4JcpMrELr9WBXTCHhYsFeFiAiwV4WICLBW2oEAkuFuBhAS4WZACN4GIBHhbgYgEeFuBiAR4WLhbgYQEuFuBhwUF8IkcBDwsXC/CwABcL8LAAFwvwsHCxANCHeZjFAjwsXCzAwwJcLDDFAHngYgEeFiiyJE9hCzXywMUCPCzAxQI8LLiTCZkKeFi4WOCNCnGUwJxMBTwsXCzAwwJcLLBCD23gYkG59JFGGczIVcDDwsUCPCzAxQIbHKGMQviNZIXbHKOMUiBZ4TYMUhbDiGwFPCxcLPDEFGGUAi+2g9ugi2Lg7xngFgxSlgPDlICHhYsFnhggi3JYkK9wgyGyKIcl+Qo3qJFFOTBMCXhYuFjgBw4DF8WEjAVMaGxo8EKFKEpiTsbCN0wRRUkwTAnfIH0YePXiL0+fXSC0z5H469u3b86EP5UjwaBoQq/OfzdZTp+Fl+8fkXjwSDYU2NCg52F9HH/93NPYq/DTDbf4EhcL1BhI6nezx3H0MvDy+/ybGD+W/OwFOQsbDPUc0idR9btRiMj7DEtyFjaoFReH0zqmfieaQWaYErQ8rNnNT39Yo19pAeNiwQaig5S3/ZWACr5Dv7IHviZkLeiY0Hek1sNw/tVd+qqwoUGHSru4C+ZkrcbaVj/DlLDBVH13dhJKwGP9OodhSvg/kpm15ZWJl4H0e5Vgo8KbKUHHhN7S4DiKM5P1fkuYRf+8Bhsa0tZ2nShW9GqS4jmJDQ067spy21WiGFnjbQGQPfI1I29Bo7+x3R59HEK/V2msBmxo+IpocbvYepkQ2+DrVHFmmBJSl3YB5jlWo0TdOs70g4o7eu+IkP9u8PfJtirY0KBhQt/vjnovoq/TeQ0MU4KGCX3/wuC8iF7d39vpi15sQebCF4YJKzvfRfTzlKXOkswFeXN014if5yL6esdvl/37C2xoUDChd6WV4yJ6tWtXKusWYkODQlrtXBf8jnNc7frpwv8gR+pChp3ZUe1Uvx8T1zrY0KDQ3JjvvN6fnAp4vDvUshfEhgZxE7rJiO4rl/r9JbVdiA0NClk1231BlwcLd7SAf0d0lhIbGhSclSYbM4/N4O/TFzsMU8ID6eZks3Pm/pbg60axlrUbsKFB3IRullT+msHNHOEBNjTYNqEblnXefKyrLA/LOdkLwsZKw/EgZz5WIwdLXsC8Whak96NN33bqy8dquhQK+w3Y0CBtQjfOqYtwDpZ8sLGhIdui4MnHGmcSMK+WBelt2bLxhf34WM0rWeFhaGxokG5NNjdG3fhYTR2sz6xzRRswoaVTyouPddUi2sIPLWxoEE6pRb5LF7AASz8usaExoTPuynycK2xVxg6xocGyCd3OVvHgY31sFW5hx4FpaEzonI0ND62kcatwD7ChwbIJ3XJJKP/9WNftfnAfGxosm9AtN2Xlvx+r3QIsXvAsyWBMaEnavur0JNYCLG45YENjQovyKfMDJDVt96DH67wPTHDGce4VoVu0fv+V+4GJDY0JnbmkK7mVtPOvGPQFjA0dG+m2RntTpeRW0i+tf630aQbeDR0c4cmgfdoaBS/Bk+ymITY0JnRuAXeK1e+VgYBjQ4fGREVXFarfVqcY/odw3x0bOjbiq9/MwpcwvACL71k4zoAJnd0UfRxnAZYvN7ChMaFzp1OZA5V7LcDyAsaGjox4Ou21KhU5ULka2XhkzsliTOjcO7ISl+A97d+uke8BLljbEHCJS/DIiIA/kcWY0NmbGuUtwfsufD0rz0xwQM/McnASZAEWPz3Cy90j0zezISttCd77h8o3vWfkMSZ0fkelsCV4bEfA2NBxkZ7rO+BF42Utwdf7/861nZhD6YiLZrn/dzkJsQDLG//0kTChTZRzJS3BK0sPTWzosBxbEnBJE9FzSwLmrTphkX8f1cJUPWBxAZb3HTjOEBbxudzDWhpVKQK+OuRXDk09NaFkhrYWg1KW4P3OEeo9puZkMia0iWrulfMhDiUBY0MHRb4leeBYXyEvqDzsKSW/b+GtOkFRKFnNlQSmhji+ID6+Sh8JE9pKKhXxNw0Lc79xQi6HxN5aUMIwh8GH1IxcDom8nXLwbmxgX8BXB/7EnvxXwoaOydSegEW35atff33x4YcXH/5WW6pX5cffOM4QFPl69fDXu0h0klYfzp7+9PbPmx/797f/PHt2YaJno2Ad0kfChLaSSYfuEFdn5z9v//TvXh6s4rHBsGNDh+TY5FJwSFnww/nr3Rf4r4iz9lwVuu8cZwhJ1+RmbO9jwWc/Nd6dHr3ZW8MCfpG50RIoEwXHd5mrsH933tJbenS2Vy192Bi0lvXAcYaQyHeRRPoZe3yts5/3udA+y7CEXVTbjDtgQoskUtuB6NXT1/te6ruz5BaWTtyxoSOyNlrK1e3ke1BR+6idhEXsXvn2O//OEJGOVQGfJJNvawmLlKpD+kgggMJIn8xQbvM+y9lrieudNt8LTySup+A9cJwhIBonf0Yp3bV3P0qF4s1Fyq1mZTbwUBJ286iRjbU6F4zF0ctkFpbOgY0F+RyOod1KroGN9e61bDROL5LtNPsKgV+Sz+Go7Qp4p421ei4fj92L8JVdAdNHCofGSO460Xd7p+LZPLxI83jSMB94LVY4NLpIYt2MKtnu95vnxmWSVa5rOfJQCj3LaXSfjfVxrBeUJ7W6haUTefpI4eibXge2C+m9aqo+utD/cccaAh6R0cGoTO/EttpY58ph2V5GX5kW8JyMDoZGF0luJHeLjbX6UT8wb7TXOJV/kFmS0cHQ6CIJNjNe3bn9fZ0iMqe17m9TETB9pGAcGc+iu5yej4mcmjv7SQvboaePFAzzy8DtZfB9uqfbhWafRkXA9JGCodLLkHw/8Ulq++p+K+tK8NM1Qk8fKRh96wK+WSI8TxufS8U2jYb9QB8pGBpdpPVS8hu+0h5+bqPg6wfWBTwnp0MxNJ9E3cTto5u8VDuuV5t/eIJ57K8CG/9UuBrnCNEbLYtoSh8JDlXH2n4ZV+XV74MHT1QsLCUB00cKhUoXSfi9EA8z63dDwbIOkcr2hT5SKHoFCPiPMj+ffr9W0deyn6piINJHCoVKF0n6n+JPRE/xHaDgeQkCHpHVgahKEHAnQ//3JpcK1WlVgAEBthkWsQi8yq7fLwr+t/BHDlSCvySrA1EXIeBufv1+VvCoCAHTRwqEThdJPNOPnluI1T/KMCD4f6RA6HSRMEJzCpg+UiB6CDgjXaIPJlOIwOaM/ojIhmGAgP0JeEFkwzBkF+ZvAzMnsmGoEbA/AdNHisMaAWfkGAHDQXQQsEMBE35qOI6kFvz8xEMMQxcBexTwiNAGQamLxDBfXgEvCG0QKgTsUcBzQhuEKTZoTpSOkogfewSr1AjYo4CJPwlEAhUcf0xE9mAIOAVK8acRHIQuAnYpYA4UImBMlII9CBrBQagQsE8BzwltCIYI2KeAl4SW/CF/yr0BmBB4KAi4YAEzCheCDgLOjNIkHH2kGPTWeCg+BcyBwhB0EbBXAY+IbQAGCNirgBfENgAVAs7MkDsABp//pE9uAdOJj0CNgL0KmEZwALQOsyHg/JsYDhQGQK0NjIWSXcA0ggPQQ8BuBcyBwgB0EbBfAY8IrnsGCNivgLkFZA/ZU/AtmBNc96i1gdczgptbwDSC/VMjYL8CphHsHr02MALOb0PQCHZPBwE7FjCNYPf0ELBjAdMIdo9eG5gmpAEBcw9IHpKn4HuwILrOqRCwZwHPia5zpgjYs4BpBHunRsCeBUwj2DmKbWAE3JS+3j2gEeycDgJ2vQLTCHZODwG7XoFpBDuni4B9C5ibQPVG7hQs4AXhdU2FgH0LeE54XTNFwL4FTCPYNzUC9i1gGsGu0WwDI2ALAqYR7JoOAnYuYBrBrukhYOcCphHsmi4C9i5g7oJnBqSOdwHPiK9jKgTsXcBz4uuYIQL2Xgctia9jagTsfQWmEeyZNQL2vgJ/Ir5+UW0DY5+YEDCNYMccI2AEDOXSRcDuBcxOBgEjYAQM8TIHAZu4DQsC7JYKAfsX8JwAu2XKo9//c5Qj/X6pEbB/ATPJ4RbV4/wI2IiAOdLvlg4CDiBgGsFu6SHgAALmSL9bdNvA2J9GBDwiwk7pI+AIAp4RYRIHAXMfwBpDEieCgJdE2Ck1Ao7wIGWSAwEj4IIFzCSHU5TnOBCwEQEzyeEU5TkO9l5N0R1JZ5LDKz0EHELATHI4pYuAYwh4RIhdMlDOG9zPhiibiUxyOKVCwDEEPCfELlE2P2lfWBEwexnyBgFzI8AYa/IGAUOxHCHgIE9SJjlc0kHAQQTMJIdLtOc4+FstKwJmksMlXQQcZC/DJIdL+my9ogh4RpAdUiHgIGYEkxwuGeKdIGAolykCjiJghlo9UiPgKAKmoYd1goDVOF7jRoDB5/6aIBsRMI9S0gYBq9HjTkB7uvppMyHKRu7EiCi7o0/aIGAolwFpE0fAC6LsjgoBxxHwnCi7Y6qfNjOibGQzwySHP2oEHGczwySHP9bsvOIImJOd7ugg4EBuBJMcCBjrBAGDHXoIOJCAmalxR4LexXpJmJswTHArRoQZ5wQB65CgoUdDgLqN7qMWNbsZMFm30X1EwFBw3YaAzQiYYoisQcBKrLkV0JajFFnD/A+3AnRIMcfBq5jsCJhJDmcckzWhnqW8VMcZPQQcS8ATAu2KLgIOVQwxiuWMAXVbqGKIk2HOqKjbQhVDTHI4Y0jdFkvASwLtiikCjiVgRrF8USfJmhmB3k0/ya1gFMsVSYYHcE4M+YmMYrkiTe8R58SOn0hL7z/s3cGRKkcMgOFaOHDgQAiEQAiQGWTiUCCECYEQOPjgg+11lau8fn5+uzygpRn1fH8Iav1Nt6QeumJJYAKjLjm9x/ebSN8npyGgpdcVOZVPpc+fIachoCPQFTmVT6XPnyGnIaAj4N5F4MoCq0cQWO8igncCY6L3Li/675PUklePcGzTu4ggqSXvOuPYRuDKArvOSBoPggNImqlxnSGw6YEI1k5DmGrSmB64z8ppCJNNGgLfZWMtMNmkuYj1PXYExmSTZhDre2yz1uIq1pKGwNYC47PPSpqbWFsLNOeYlTTm9+5ythaYrMDm96wF2pOVM+b3rAXakzaIZX7vLou0tTCKRWBJYy0wPmtJMxmWaWthML0bVpJmhpupUaxu2EiaOW6mF9HuhB2B5yjwVbQ7YStp5riZDqLdCXtJM8fN9CbanXAk8BwFNktJYEnTmnPeWpil7IV3STPHzdQsZSe8EXiWm6mpGgIbhm7MgsB4lLWkmeVm6ruUnbCSNJNhmbkWB/EmsGHosqchAnfCTtLMczO9incXbDOT5iLeX7HJXItBvLtgL2nmuZlaiz44S5p5Cmwsrg+Okmaem6mpmj54lzTz3EzNUnbB4l3SzHMzNRbXBanDP0axrAXaspQ0MxXYWFwXrCXNTDdTY3FdsPILPNdf4IOId0Dq8I8q9NccCYwHSR2FNsjxNamDHIah5YxNv/J9xm7aA3tX4LleggncA6b3ZnsJNtcqZez5bfnFdorHUDaZbUmRwB2QOwp9EvCvSR2rMQytbCJjCu+nSoodsHRmm21JgsDObGpYjdm60eARUkcHDuJtPdCUjSPbfGsSBK7PzhV4vlWsq3i7c5n8actZTQITFdiGP7EjEYFt+K5chatYN+EuT2LfUQ1ralUsRQkCSxcrghFxYJvxpcZXuh3Y1LAKV7HMphPY4F7hKpaqRHmWsmXOe6poV2etYjLnKpZDkfOaGlZr9jrz+FkS3zKoYU2vinURbclit697KrKpVidvFFoNa4JVrEG03bfUsOpWsQhcnbyxHzWsCS6KB542e9etwoUJxyICq2EVrmIRuDpqWLOuYnnNIFWkSnPyvovlNQOBlUsKV7Gci4qT95ZhEOyfJ687L9a1yXvLoIY1ySrWSbBliq3evorOBVYtmWYVi8C1SRsZ0HB8iLT2/EWsVUvUsKwLOk+Uq1hP8mRE4Nrs3bXmXZu4iXVpsiYGDAw8RtqAjfkaxRKDlAEoLmJKeWKjn+jOSuDSLNRKZl5ddDRy1dJuDGCjOIEJCXwS68dYExj3WUqTuW+tQm2fd9MqXF50NqpM1ryAIvTDZHXoD0JNYEXo9mwJjLvsZMlUySpDX4SawC5adcsTV6F2TlOEbs+b2w3ukvQYSRH6CTxHwl2SSp2K0NYGERwd0+Z+vfGagcAqnRFsCIyJ3LNOIv04K/UJ3CHpNaEi9DMklaF971eOyBG7KzoW2DVrwgUKAhcm6TXhINLPkNSkF2h1EtN6ESTNuaowEthTBquDEdg4pE2YNYExhUOaMsmkS4wXkSawInQERxUKfEnOuK1x+SfJec4wCHRZ9jLE/mp5bPEuWYVvODeBdslS5oxgpUSBCQgszk+yJDC+xFOGSZPTR/KesCwLO7wTkg3WDq+LVLnISGACa1PEkNJHMiinSKKLFMOOwPiCnGn5g0A/S04f6STQ8kMXqe4OS2ACO6EVLlI4IlUl5TmwNuMLEBhj10h0kV4gpRGsykhgXaQYUvpIV3GWHtLDFosuBXbDmnqZkcBVSXnPfxLn50npI93EuSgZo7a6SK+Q0kdSZqxKRo3TqPwrpLwX81yMwLLDEiEd5zO3HKM2zmdKnHFs3XIwaoXkKs6vkNEIVmcksDZwECsC4zNS3vOfxPkVUhrBwiw57O6FT0k2WcczBZLChUYCE1iPMYijOgU+IeM9vzbwi5wJjBEFHoT5NTIawRdhLklGj/EqzBYJdTd3p7MChQrHJAIrcBIYyWS85xflF8mYtrkJc0kSCpzmOF4lY5JDq6AmCS1GL9VehsAYT2BzHFYJhfd2t6sKFx0CE1h9M4qtiw5+SMac/FWYXyVhksOLk5Jk1DcPwvwqCY1gvQICm+OIYk1g/JClzLBMxm1s7QQuf1ASZQIrb0bhpoOxqiMajA1ImOQ4iDKBzegFcSYwfkTCBzkGUX6dhEmOiygXJGFC4CrK1gl2diclAmMEgd2tatQqXHUIrD0RxZrA+BHxX9Qxx9GChEmOmygXJL494ZVLCxJejWn3VSR+QMAgVhMIjHEENohloVA4L2zsRe46BHYyU9wMY+uug1FqIwQuIrBqY0ESuhMXUW7BhsAYReCDKLcgfhRLw57ABrHCWBMY/yfhW0uCbKVgX3dWIjBGEFhppA0Llx2MURoxHtCI+JGbgyATmMAERh7x3cWbILfhTGCMIPAgyG2IH8W6CHI5dgQmsI9iyQrbusMSuhTYxaoRKwJjBIFPgkxgRBH/TTsxbkT8LOVNkMsR3pswSdmK+FlK306pR/h0gElKAqOwwL7T0gxDc8gXWFJYK9jVQWCMIfBNjFtxdt3Bd8Q/Mh0EuRXhPXsFx3K8EZjABCawAfkEwh+eIEVbYQAAIABJREFU6NkT2Ch0HBsC4zuWBK7DisBIF/gkyK2I/wChGMsJOWG3hVMZxihYEJjAOhOFBVawILDhnjgIjO8I70wYr21I+DD0RYwJTGACI4vw4R5vxBsS/prhKsbFCB+vvYlxO/YERrLAgxhbLdRNCXs6geFQhpSKBYEJrLMYx0bFAv/lTOBChI/d6BkQ2HQtgZFG+GiAEDck/DmSsRsCe4wUxxuBQWACE7gbvCasRPhHgL0dI7CMsFzoZkt3JnNggksVckoWBCawxmJhgdUcCUzgQM4ERqrAgxi3ZE9gfMuSwKUIf08oxLUI/677VYwJDALjb8IfBJ/EuBThz1suYtySDYGRKvBBjK0XJASsF0ZICEeyWjULArtTqWoWFljNgsAEjmNJYHxLdFvCZE9bwifnrmJMYAITGDlET/Z4ntaW8PfbgxgT2Bce4iAwMgX2np/ACGRP4FocCQwCE/gzbkJciugvPPgghwVD4XywoRMYTmTIuvMQmMBqIoFoG4DABCYwgU3mjcGOwPgGo7UEJjCBvU7LIvr9p9nXUoTPxh/EuC0rAoPABPZ8jMAEJjDGJfx9+EmM2xL9USxfYCAwgQmMTgQW4sYsCYw8gaWDFYP9HM5MIDCBCawkQuC+BT6JMYF1FcNYEBj/YjCPwEZvCEzgPAiMPIE9TmvOkcAgMIEJTGACExijsiEwgX2CgcCf4SOlzTkTGB/sCExgAhP4M25C3Jq9zxCCwAQmcA9sg7NhEGJLBtkASwbZYMksmWyQDZYMM8kGFZHm7AiMD5Q0CaxxQGBTAXlsCIwPjPUQ2PAcgQlMYPQo8EGIW7MiMD7wuJTAXoASmMAEBoFBYBCYwAQmcBtOQtyaNYFBYAITuAeCk8E/ZdUT2Lf4CUzgQJYExj8sCExgAhOYwP0I7A8lCfyBvwduzxuBQWACE1gyENiaQTLAmkEyWDNrJhkkgzWDZFAQITAIjP+jc4APDAUQ2PANgQlMYBAYBMZDeJpWEAKDwAT2EQYCE5jAIDAIjKdYEZjA33MQYgL7QFocRwKDwAQmMIEJTGAQGAQGgQlMYAITmMCowobABCYwgQnckcAXISYwgQkMAoPA+IIdgQlMYAITuCOBr0JMYAITGAQGgUFgAhO4T7YEJjCBCUzgjgQehJjABCYwCAwCg8AEJjCBn+E3ISYw/AKDwPALTGACE9gvMIHhFxgExqvs/QITmMAEJnBHAt+EmMAEJjAIDAKDwAQmMIEJTGBMjDOBCaz3R2ACExgEBoFBYAITmMAEJjAIDAKjbC4QmMAgMCwa5IJFs2hyQS5YNMgFWDTIBYtm0eSCXLBoFk0uyAWLBrkAiwa5YNEsmlyQCxYNcgEWDXIBFg1ywaJZNLkgFywa5AIe592iIUng34WYwCAwCAwCE5jAcoHABIZfYDzJwq6LrM38TyEmMAgMAoPABCYwgQlMYBAYBAaBCUxgAhO4EG8ERpbAfwgxgUFgEBgEJjCBCUxgAoPAIDAITGACE5jABCYwgQlMYBAYBMY0BH4X4uYsCQwCE5jABCYwgUFgEBjTFPgkxq1ZExgEJjCBCUxgAoPAIDCmKfBBjFuzIjAITGACE5jABAaBQWAQmMAEJjCBCSzGBCYwgdGBwBcxbs2GwCAwgQlMYAITGF0LfBXj1uwIDAITmMAEJjCB0bXAgxi3ZktgEJjABCYwgXsU+FcxLsNf7N3NcSM5EkDhEHlgKHigCTz2kSYUTWlPJE/aFMoEHecoE+o0sZfd2tidiBmNmpqmWKgEEvU9E4B8IPIHxScCE9gvsF9gAvsFhl9gEBhNCTxa49IMBAaBCUxgAhO4AhcCI0zgf1ljAoPAIDAIbM8ILBgEgz2DYIA9g2CwZ/ZMMAgGe2bPBIPB+AAmAoPABCYwgX/Nf6xxYTYEBoEJTGACE5jA6Fvgf1vjwjwQGH9yITCBjb/6BSYwgeEXGARGUwJP1rgwWwKDwAQmMIFv4dkil2VPYBCYwAQm8C2cLXJZdotv2WiR0zAQmMAEJjCBCQwCg8BoS+AXi1yWA4FBYAITuAeOi0fDm0Uuy2nxLXu1yAQmMIHRg8CiwZZBNMCWQTTYMlsmGkSDLcNaomG0yGUZCIxAgT1tKcyFwCAwgQlM4FvwjdLCPBEYf3IiMIHN3hCYwAQGgfFrJgIjUGD/L0pgJBbYv5uVZUNg/MWBwAT2hJvAn+O/VcryQGAQmMAEJjCBCYy6LP+JQ3+OVJbl/xrJh0QJ/J5nq1ySPYFBYAITmMDCwY5BOMCOQTjYMTsmHDQlWudAYIQK/GaVS7L89LqyYyL2BCYwgQnsAy1RHAkMAhOYwAQmcJ8CW+Q8BEzWjla5JAOBESqwD0MX5UJghArsq3YExlI8EDgZT15wg8AEJjCBb8N3ZYsyERihAvssZUk2BAaBCUxgAosHGwYHOlyZ0LDA2ooEBoHxf7YERrDAz5a5HAGvT/T9MhEg8Nkql2NHYBCYwATuhOUn83zVriQB37Qz+0pgH8UiMAiMnzgRGMECv1rlchwJDAITmMAE9lGsCgwExnsCvtDio1j2C4kDwolOYBAYQSkPgeVUBFazQC8CG80ryERgvCegLeF5WjkiXo+9WmYC+yTHMjwQGAQmMIEJ7JMcFdgSGOECP1vmUuwJjL8R8LrFi/5yBLzn93qMwAQmMPoR+MUyl+JAYIgI2+W8FRGqIi5MWEVSReBiHJUsEC7waJkJjLwCe59WjIHACBfYe8JiPBEYBCYwgXshYjbPg+BUAj9bZgJ7ELwIEc+BCZyKiOct3hOmEtgyE5jAy/BAYAgJx63jlsCyKgJjJQKfrXMZdgQGgQlMYAJ731KBiLdjmn6pCGlMvFnnMpwIjAoCv1rnMhwJjA9ECDxa5jwCG3wlsPeECzEQGB+IGI/3HKkQF5sFAtssmyUm3Mo6zXcITGCFzWXYEBg10irDPWUImbpRcSQwgQmMICI6E54jlSHiMdI0WmcCe82wCHsC4yNHAqch4jGSuVcCe460EAcCo4rAgqIIJ3sFAtsrbz+d6gojBMZq8iq9xSIM6hWoIrDxvCI8ERgfCWlNeM2QR+CzdSaw1wyLMBEYVQQ2DF2CDYFB4Lw8EBg/ETJf6zVDCba2CpUEdqyn2Srr7FgncN5sh8ASK+M9y3BQrkAlgV8t9HxOBAaB83IkMCoJbBi6AAOB8RMx0wGGoQtwMTSHnyFwFkJGoY2tE9i5nninCOxcl1lJdkBg1Cg3EpjAJmwXYUtgXCGktmmWcj4xo9AafgQm8CLsCIwrhIwHGIaeT8go9DRaaAKbpVyCE4FxhaO4sFFOWnEhtXJVQrcC604kqTYSWGplQm8RYhr2qo3ZiCluGoaeTcg++WMGApulXIQHAuMaMfMBvpWWROCzlSawwFiAvX0Cge2TfXKyq252W6vwbIzA+ouLcFKrwDVinplOo5Wex5HAuEZQddMs5UxiJim1+whslnIRLgRGRYHNUs7kicC4RszHDkVGjm0y8poPArsouSgRWINxUbYERs3kyojPPILa9WqNBPbMZQl2BEZVgd+s9ByCJim16/MR02A0SzmPI4FxnUFoENjEq9CQXbknoV+BNSgyVCoITGAzPkswERjXCXpoahRrDkGDWHoFBDaKlVngF0udjqAOo1GsOewJjE/YiQ2b5JQVG+ojrkkgMK5xVKhA5fTKKNYMBgLjE4JemhrFmkPQIJaPUiYkqkNhFGsGQYNYmvUEFhwLsLFHqC2w65lDFolPdy2K9usUBtYzQuDm2alToHaBxKD8/UTNcegUENgkxwKcCIzqApvkuJsjgfEpF9Fhi5yxeRlUSFyS/mC01O5nmozFCev0KVMQ2CRHeR4IjAYEPlvr+9gSGJ9zInDjRM1xaNWn5CA87JDPHjnfXdAkOehZYF3GOxkIjAYENslxJxcC43OiPorlsdq9RM1x+CRWSsKaFCY57iNsjkOnPiVhYwIO+MY3yAkrPqRYiXMcAhNYIzhxlVGRQoqlEVyeE4HxT4QJPFrrewib4/DgMydhXQqN4Lu42B80IbAT3gGLxCe8KmfbNQqzrjkJG7U1KHAPD2oUaKNIohF8D2FtYF0CAmsEl2dHYDQisAi5g5PtQSMRokrigoTihH2xRZ/iHsKaBL6oI8kyq1eesDawGiOBNYKLE9dFInBS4voUXgQ3LbDdycnWGe9+ZM7GGa/OmbvEKMEhsE5jcY4Exj8TNy2vj/R14ibV9QgITODixHWRvPbMyuSW5nR1ujrkFTpTFygITGB9pNIENulNqmclbtpWH+mr7AiMXxFX6NRH+ipxXaRptNqCxCnvcEXHAiuUtFufIHBW4l706yN9kcAukvpEWg6BUWK1v0RgF8l7/rQEVjr1kb7G3tagKYHd05q9HBHYMa9Skre+6D1/WgJf9OsjfY2L8gSaqpR48vIlArtIGgQEFiaF2dgZtBUmMq1Wkxvv+fMSKfDZct/OTnKDtjItZeivEDgjZ8qVwN68lOZIYNzARZw4WTX48jKolaguuhq5qZkXKEtkf09xgsDK0IXZERi3EFns9Jzhdg72Bc0FipO+zZvRi/V2VVOGLsqT1AbNCawMfTMTgXELkQ+CDc3fTGgRWncgMVtH/eovRs5VR71yZ1lOBMZNhE78KEPfylFpAg0KrAx9I6FFaK8JhYqz3rGK/gVW72yxMkHgzFxCY+VswW8htAjtNWFqhtBYebPgtxBahJ5GC56Yo8N+7afqqwUnsHQrb2GCwG5rZgby1rDkNak5xAbLsxX/NfvYPVFZzExswdPT0wYPVQITWL6Vty7hVpSa2OdIqljt1bBM1yiYGKYsSewgpcIigR33mWtYBHbcq5gkLku4FOUmWGBVrNZqWF4TqpioYtkRVOLiwrbupMZ8OoGVTPLWsKbRksu4VLHS1rBUJQgsXmwIanGa1EzWXMPyGCk5wZPzqli/IHqyxvsSKZdZrMQ1LEUJASNgEqc0HiMlZzspmqy5huVGJOdSxUpcw9KYJ7CIsR2oRfTknqSrrZqitwzubBqPiVNgGQ2Bv8hv1ryh3SBwdi5CZs0JjcdI2RmUTdohvCs/jRZd1mWUoxThYxza8mJGzCTOZ5QU03OYJMHrrWF5y5Ce8M6jJPhTwsc45DMENsphL1CR7STvWm9B0VsG1za9x8QpsHSGwL7KkXgrCJyeTYWokXi1kgI7S93bJMGJU2AtPQJ7z5B4Jwicn4uwWW0KrJ7YAUOFuLHqbaTAxlplXuZ/Mm8EgfNzqhA3o2VvIgVWTuyAQ4W4+d2yN5ECe8sg9dIJTrwPcpkO2NcInO/WvYUU2FuGDtjWCByd4CZSYO0AuZcRvsTbYBS6AzaTJHitKbBztAdqRI7+xUd+1NgF/8sg+TLDl/ceZKa1Cy4ub/Wp0gtwjHbBUCV2zhb+PacqmzBa+A6o0oA0hdvANcgmOPylX0Wo0kRSSuyDQ5XY0YJ8z66OwC9WXvBIgtOmMfZAAVT+VYSnOnvwbOU7YFsneDSS/uKxzhYYhVZAcfznrSOqQ/TBZnKHXucN2iWoDyoJrJFU+w5kFNr57wJXgJ0jFDO4VIqfs6X/g0pNJKPQnTCIn1UWIabR2vsBUENJe4NWRuyE0+QOvcYD1Ch0Jxz8AqyxiOgAdYWbie+7/4/9RGDkjKBni18xg7H8nfAwuUOv8QatEU9gkwSzeZwIjFlU60O6xFW9QZukdIlzh068+O4/YkgM5c1fLH43DPXSsNXfoevdoKdR5HfCsV4Qvbn9yF+Q91dg7de4ijdoh2c3HCZ36PWdnT4q2w27yT1ufTdok5TdsJ/coevwWHHlNeG7YSuM1lc+NIilkuIOnfkGTeBu2NQUeM1vCmvmLj6I4odALSXxDdogFoHdoRPffAjcEcMkF6vArqrAo7h3lXOHnsOPyc0HJThVjaS1fh+6avHfJGVPHCZ36Hi+1RX4RdxLxlzmspYOTVL2xL5uKK2zHvpYd9FNUsrG/BjkrRwaxCJwOX6z5gaxMIPJr8HKSli+SameUpDvllzhAfdzEU0rK2H5d2YFFWWszCv+KuqFkzJW1hIWgfviUDuc1lbG+lZd4BdR3xE7PwihbJ4mSQvKsa8eT787MA1i4V62k1+ESH7UX29Br6aik3Qnj/WX2yRlXznZ5E4XyLH+apuk7Iv6RZUVdZIauO8YxOqMi0tdHN8aENggVl8MDcTU61rylQauO9Mo5mVlfoLvooEekkGs3ji1EFTf1RvCeBPzfhUMc6RdaoNYnbGf/ASv6QfYIFZnbCc/wTE8NrHSBrH+y97Z67aRJWFUTcMgZAYMHTISBE/CR2A/wiYeeQcYSOFg8o27X0I7IR0u5iXIR+hg7DU24iMwEA0Fori7MLDj9Y/679a9VXXPyUUBF/V1VX1Vt9sZxYnCLg5rFQfNIpYzJjoE7H+9QEkCZhGLzowUbDcBs4jljo2OwPqDBMwiFgxgpSOwjs5T8EKJgPdEPJFFajCbgFnEcsdcSWQdax6TEdgS8c6Yagktz7cKCy2HzCKWO2YnUnA+CZhFLJIDXbDhM2aPg+AiBRtOwAjYH2qCy+0s+FzPEfNpQn9UetKDU4dlrUfALGL5Y0N4ZZOAWcSiQWPIYTgBs8fhkKWi+PJ4L1hTAuaFOg6ZawqwG3/ne32ixAFBhq9iHV//9fffr0jBQseLgKELQ1+qc/jl099fXJOCn6BSJWDC3R8DNzne/+8HJrdsGnyXS1X6ZY/DIZOR+v0PLwLW0b7uNEx0JWBeqOORKkCvehEsUH0tVC5U6Zc9DpcM2eT4ygw5D6ZgTwuV57r0yx6HS1ZBnuSv8LG+Zq1MwA3R7pBFgAQc0q7xM0p6fkLAIE7/TY6jbLr5Cw6WEFui3SHTQK1UESpevfhYL7Xplz0Ol/R/qc7u2z8UrIj2MUo6V6dfXqjjkiLYgzzYTpYLH2utTr/scbhkEiwOguUcDz7Wpb4EzB6HT6pgcbCmiA7uCLDHAYEFfBewGv9ekjdvt+groNnj8Moq3IN8QRH9iecK9XvaE+suWYQTcLiX1NouoieVRgE3xLpL5gFbqQVFtNYCmj0Or0wDCjhcCrZcRF+q1C97HE6ZBRRwwAt0dovo80qngGti3SVFSAEH3D+6sXqg1zr1yx6HU/pucjxGav+s7kS/1Klf9jjcUoV8kgdMwTbb4OdK9cseh1s2PSMh6OPAWxuscQWLPQ7f9DWennYzQ74J2V4bPLnWql/GwAi40zwx5BKDvWnwbycEDJGZh42EZcCgOxgzsi716pc9Drf0LXr3LV1gyKh7b+okLxTrlz0Ot/T9ukqbnbnOVcFaNzi6eI9gl74ps22gGPaDXm/QL3sc8KTtFDoUqiwVXKjW7+mBQHdL38hrc5aWpwwVrHiAxB6Hc/pucrT5mcUpPwVr1y97HI7pOwhu2n5wnZ2C1euXMbBjlqEf5sG/S/8G/Y5lR5y7pa/eWv2Q8K+U0a1g3f4zY2Dv9L3S3z6RWASPv3+h33HUxLlbiuBPc4Hviujd6HhuQb+MgR0zCd9PCcT0e6U55OJkAa7ze6ZvNOyD+2J2bzbcmtAvY2DXVMGjoRApA2/0FS+/nRAwpGYVvqHaiIShNjP6xbUR/TIGdk1v07jVxZK6GfujqnN7VZ0QMKRnHj4cCqFAPLyl/R3Clih3TO/NqQ6LtRuhSDxqKaNfXBnSL3scrul7pb/LUELu7TI65kkXlSX9cp3fNf3r3VrgN7uX0b+kd59NpV/2OLwjsRovmaF+TJyEjaVfrvN7p3c8dmiCl5IBeUjZCb8wln4ZA7un7yC4SxNcyIbku2R29G1lTr+nPTHumt6D4C6XW6TjPE0d/er6ZJCGGHdN/3J3J/FU6OvM/BRfvlcnk2yJcddMJZqqmXxcHuJK+Aej8mUM7J3+Wuswl5jEiMyIEv7h9ckshLhvCpFn+jpKbB7i9MKvruzKlzGwe/rHRIdB0jRWeL4Wl/CFZfkyBvZPf8c4/SDpMwWLC3hhWr+Mgd2zEamhYw1M5d8XM7Ut4D0R7pwBGeaDnrzViJ/PxLaAGyLcOQP2HjsYI7HyVil/QBvTAt4S4c6ZisgmUhN81PmEYwwM0RiydNHBh47TBN8pPSDGwBCLQibxxWmCo3R4lvXLGNg/Q+LiRkkTHKVAXBsWMGNg/1QipWvhJ7/MGQODYlYy+xMbN+FpuQneE9/uGdStfpD5WZ3hyRgYFDOoQmxPwTGa4G2cEzI8Cd4S3+4ZprTWFByjCa7jnJDhSXBJfLvn2aDIaPeP5CfBsT6cabgJJrz9MzBVtnZX8k3wfaQTsrsOzRg4B4bFxsf0TXA0h8ZsE8wUKQcG1rpt7ZV8ExytwVsgYNDLQqiArdzUh2bvBDdENwIerJ+Vm/RSWBXwjujOgKH55abld6WnL3v1XQZTJIjATCgDzvykl5VRAddEdwYMLRDbtrEKP+nF6CoHU6QsmEilwMpNdBp1sR4J7iyohGpo2elLzBGJUReLKVIebIRqaNm8dW/hGZeWe2I7CwZnypuULtYu5hHZdLEaYjsLlkIlmuwOcWniiBgDg16Lps1Hkiw8jzaOiDEwiPNMKkIkXay4r2uz6WIR2nkwPDo/pMtbkQ0axsCgl8Eh8jGdixXZoNkYFDDvlM2F4b1qnazwjNzfLQwKmDFwLgwfkuySuVi1EaOPKRKIs5R6yMvlrdj9ncX3Yu2I7EyYSulo6aY8tGhDl0R2JsykgkSu8Iy+JWhwmbImsjOhkOqz5PJW9P7Ong3NFCkbJmKlrJ/y0J4NzWXCfKikHvMbN+WhPRuaKVI+bKRS4cJNeWjPht4T19kwQmdNkrwVf8nIng3dENfZMJcq1GZ+ykNzNvSWuM6GqVQxW/jJLuZs6Jq4zoYxOitT5K2dqTaDKRLIMhHTklDeKk21GUyRQG+Dd58ib9lqM5gigd4G7zFB2KcoD63Z0LySMidGJMqnXy47c5NdrH3muyGqM2JMg1fGz1tJsouxOdKWqM6IqdSjfuInuxibI5VEdUY8E6tnRfLWzlibwRQJ9DZ4x/hhnyS72JojMUXKizGJ8kkXa+lkimRtjsQUKS82UgXt1E15+MyUgJki5cWYSncfO+zTlIe2BsENMZ0VS6lqrfBTHjJFArVMxSpaARt6b88nYIoEeuvDUqq71lUerpgigVZGLVzspLprTWNgW4Ngpki5UUmVtHM35aGlQTBTpNzYSEWLwByptucTMEUCvfXhkw1X+DlSqv7O0iC4IaIzYy5V04a/zpCqv7M0CN4S0Zkxqj7cSXXXqvo7SzeCayI6Mwqxgi349CVZf2dnEMwUKTsmYjkx+PQlWX+3MSNgpkj5UUk98IObtzuLRh9TJFCcXp5quYK/FiuZQbM0I+A98Zwdo9JLGdO8LU0afUyRQG90NjHN2zMEzFUGCFrp3kX0ftI5rHY2OWriOTtGVbqPEb2fR5tHxBQJZBGLmMCXANI5rGY2OR6I5gyppJquqRcBm9nkYIqEDR1wNhu48tynOyIrmxyY0DmylFLVxE10rowIeEc0Z8hUrGirvESnlVWskmjOkFFDkmO8uE8YnVZWsQjmHBnXqtbRbOiEAjayycFVBmzooLKaeUkvRgSMCZ0nozzWJpYNnXJJwcgqFi/EypOFWNB4qQ+NrGI1xHKWjGpVH8Ryu6ItIyOrWFtiOUtmYpVtSBs6aYPHVQbI0YaeemnwTOxScpUhUyZidVtIG3pv1ufjKgMozi9NpN4xqUNjYpeSKRI2dOjSNmDpuTN7QpjQIMtSrHALGPhbsyfEVQaQZZTXdIwU+GXKE5pbEHBJJGfKM7G4Cehi1WYfcVxlAKs2dOEkPGcG9MtVBmzo8N5JMBcr7ZDTwjI0JnS+jBpzPmlDr3zkFwvL0HviOFtGmcUPUVysBwTMFAmi29AzHwWihdsMmND5Mk5mdYzUlbjDM7AMXRPH2VLIPfpDRf49AuYqA8S3oRc+Ojz9txkwobGhJZLj0oeA9d9m4H062NASz/5QLtbO8AFhQoMwo3Z9H2P4t1sErPqAwLANHcP+KdMekP7rSJjQ2NAi4lq4ELD660iY0Hkj159OXSQY9deReJ9O3sjNkQKtcpjuMTChQbNJcy/fBB8RMCY0CJk0T5dvaw8CVn+fEBM6b+SuM4QxcFPfVld/HakkhrGhZRrUINXnAwLGhIbvM5F7/AdZ5bgzfT7y8D4dbGixPceNAwFr/zoSVxmwocUs0BBN8L3pBxwmNKi2oe/Fm+A9AtZ81wNs29B34v1j8gyz0S1gTGhsaDkPdONAwCtMaPBrQwuW50oEvFAtYExoqOQquJmDHk+3gDGhYVSEbqWb4C0CxoQGsTq3kW6CS9PHgwkNum3o/dO/Pbcv4LlqAWNCQyHYg43fJK5NP98woUG3Dd1216BCwJjQoNeGbksBoy2gMwSMCQ1yIhMO//Q1oupXcmBCw0iftZRtgtMLWPUrObZEL4zLkm0htLEuYNU3+muiF8aFaFsRN3KM+oiAMaGhBcnrfiPj/wEBqz4d0MCYMrf1wv24QVJ6m1XzO3V4JzSMtaHvJH8cAWNCQztjtgVbm9SZcQFrfilWSezCSI21+yiV8SKx0itgTGgY7dO0BtECAWNCg9oYbS3jRtXQewTMIiVI2tBbUQU0tg8HExq029BN4l/PWMCY0PCJqWiRe247RleY0ODYhu5Qx1UIGBMalNrQHZyUEfvQO9v9hSjc5ocAOfJR9PmwRcCY0CBZJnYZRm4QMB4WCDLm0p+oSVYiYM3tBTiwoTtobDK0RD/Wth9umNCg3sXqUuUuDFeJWgXMIiX8mSKFW7GBo+CDhrOZKxUwJjT8ifSodj3op28QMCY0CDs1nTZyBzXZH837A5jQoD7NdMoEQ2ysY4mAdU/YQA0z6V7ssv8PfzhDwCxSQidG2NDd3ND+KfhwhoAxoUHexRLqsm+UnIzSb6vgYcHnjLj12q1xbCBmAAAObUlEQVRVndgsoNUKmNv88DlLaQH3TMGHMwTMIiXE6PQ6hlKvNluJA/1flH7drCRmIUyYNh3/RR8j+s0ZAsbDgu5M5LuxHkb0H4pORufHkVikhP9nuA3d2Q+9tNcAqxUwJjSM8Zg+5yH0Q+JQI2AWKaEf8wjtWLdLScebMwTMIiX0Y8S0pPs/WdvTr1IB10QshIrT7sHUwcfSpl+dAsaEhnAuVtn9n7QW0Qdt+tX5gWA8LPiS4cuUux7/5WWLft+eIeAO7IlX+ILhy5S9HNEn2+D3Cls7lQLeEa/wBdM46WBy/f3G7ieVB8MiJfh2sfo1ZN9V8Lu3ZwgYDwuil4o9HZVvK/jdL1oPRqGAHwhXCOdi9d7Lvf3qJ17/Q++5cBkYTLCIV9C9uvrceX73a635XCp9Am6IVgjnYg3pyF7c/vy3f/58dfv3X99qPxeFAsbDgq8ZvkxZuz4XhQImWCGki1UiYC4Dg91I3XIsLFKCXRerQcB4WJCcOQFlQ8BbYhVCulj3CJjLwJCcgp7MhIBZpISwofrAqeBhQXpWpIRvsMHDAhsMvhKMgLkMDOmZ4qpYEHBJpEJYF6tEwHhYYNev2SFgPCywG6sNh8JlYLDrYt0jYDwssOti3SFgPCyw62K5vt+2wsMCKxBU6jPwv9m7fx03risOwCYNg6BZpFQ5aYyF0/ARyEdQs7ZhIFiWQXrXwzq9kZJpDBh6CeoRWNiGGgF8hC1WCxXaZSwtoL+7MmfI4dxz7/e1cbCMeX855557Z+iFdhx/sS5VYDMs+lfZl6Vegc2wOP4UK+dVNTPDIvcp1kaAzbDo39DGLPEAm2HRwYbvSoDNsIg7xboVYA8DE3eKdSPAZlgEnmLNBdgMi7hTrKcCbIZF3CnWRoDNsIg7xXopwGZYxJ1iXQmwGRZxp1i3AmyGRQpTrJbvxRJgMywCT7HmAmyGRQJavhdrK8CeJSTuFGsjwGZYxJ1iXQmwGRYpaDfFuhXg7nmnO11NsW4E2AyLwFOsuQCbYRF3irUVYDMs4k6xLgXYDIu4U6wrATbDIu6KvfGvo2uX1ibdTbGWAtyxp9Yme5iYsKQZ4KW1SXdTrI0Am2FhiiXAZlgcpN1rdW4F2Ot0SEHLqxwC7BoHplgCbIbFQYZavAQDfGthYooVN8AeRcIUK3CAzbDoeIq1FGAzLBLQ8irHQoBd4yAFmrzkAuwaB/tbW2OpBdgMi/1NdXmpBXhrVdL1FGsuwK5xEHeKtRFgMyxS4CpHYgE2w6KJSplIK8AbaxKb4LgBnluTNDBRJ9IKsCVJE0M7taQC7FEkmlnbBKcUYNc4OMUUK8et2swMi2KmWBsBNsMiAX7nO6UAu8ZBU7WVlk6AXePgRJvgrQDbApOAM+PSdAJsC0xTE7u1dAK8tB5paKhYJBNg1zhobm27lkqAXePgZFOsWwH2Ng4SMLJfSyXAZlg01/IqR3Y9dP8Bdo2DNtpd5cju0kH/AXaNgxNugnProfsP8MZa5ISb4I0A2wLTv3HL9XYtwLbA9K/tVY7MeujeA3xtKdLKWg+dQoBd46CdqZt/KQR4ayXSysTUJYUAL61ETrsJfibAnmSgf7W5af8Bdo2Dttpe5dgtBNg1Dno3UjX6D/DcOqSlgcFL7wF2jYPTb4Jz6vtmtsAUtwm+EWBbYOJugjMaY81sgSlvE3wlwLbA9G1YqxwzW2AKXL0v/Ss4hktrkANM2/d+SwE+goU1yAG+bL/0ngmwJxnoexNs/NJrgF9Zghxk3X7xbQTYw/yE3QTnUoJ7DfDWCuQgk13pJXhmC0yRm+BMBtF9BtjD/PS4Cc5jED2zBSawqvQSPLMFJrDRIQvwNwG2BaZXg4NW4EKAbYHpVX3IErwWYE8yEHYTnMMcq8cAb6w++t0E727mAuyRTMJuguM30f0F2MP89L4Jjt9Ez2yBKXgTHH4SPbMFpuBNcPjrHDNbYEreBO92L5YCbAtM1E1w8EHWzBaYsjfBu90fAmwLTNRNcOwuemYLTOGb4NcJ/l+LP/z3kgNsC0wym+DX6/GHpn91+PNlyQG2BSadTfCbjXCzNvrbi13RAbYFJqFN8Js2+l8N/ubPf/4Xig6wLTApbYLf+H3fnfD4Yld4gG2BSWsTfLcsv9urj/7l7p8uOcC2wKS2Cb6L8I9/+de+/n4nwLbAJLcJ3qsKD395W+9LDvDSquNohkfe353/+nB8L979cwUH2OuwOKb10Wc050/u+TNPzj/YbRccYG+E5pimXcxZfzr/969vO8X/PDn//uNZWcEB3lpzHNGku6X6/Pnv/3x+/39UcIBtgUl4E7yncgNsC0zim2ABtgUm9iZYgB/01IojyiZYgD+d79kCc2QCfELX1htHthJg9yiJayTAHiUkroEAe5SQwGoB9ighcVUCbAuMTbAA2wJTxia40ADbApPHJrjQANsCk8cmuNAA2wLThYkAe5SQuIYC7FFCAlsLsEcJiWsqwKewsNLoxECAPUpI4E1wLcAOkYirEmCHSMQ1EmD3KLEJFmD3KOlDLcC2wNgEC/CDtlYZnTnxbcqXBQZ4aZXRmaEK7B4lgc1U4G49s8bo0EgFdohEXAMV2CESgdUqsEMk4qpUYPcosQlWgR0i0YOhCuwQicDWKnDm/4PRQ6vADpFI00AFdohEYLUK7BCJuCoV2CEScU1UYIdIxDVUgR0iEdhKBdZBE9dIBXaIRFwDFdghEoHVKrBDJOKaqsBd2FpZnMREgLvooJdWFnn10EUFWAfNqVQC7BCJuEYC7BCJuIYC7BoWga0F+Ni8EJrseuiSAqyD5nQGAuwaFoHVAuwQibimAuwaFnGNBdg1LPTQAqyDpg+VALuGRVwTAfY2LOIaCvARXVtQZNhDFxNgHTSnNhJg17CIayDAHmQgsLUAe5ABPbQA66DJs4cuJMAeZCDPHrqQAL+0lujBmQAfx8JaIsseuowA66DpR+cPNFwVEWAPMtCPqQrsUWD00GVXYB00ufbQRVRgHTR9qVRgHTRxjVVgL9NBD11yBdZBk20PXUKAN1YRvZkIsA4aPXS5AdZBk28PXUCAddDk20PnH2AdNBn30PkHWAdNxj10/gHWQZNxD519gHXQ5NxDZx9gHTQ599DZB1gHTd/GAqyDRg9dYoB10GTdQ+ceYB00WffQmQdYB03ePXTmAdZBk4KpAHsXB3ENBNjb7NBDlxZgHTRpOBPgNhZWDnn30FkHWAdNKtYCHPSVm/BFd7/1nXWA59YNmffQOQdYB006VgLc1DOrhtx76JwDrIMmHUMBbujaoiEhlQB7EIm4JgLczNKaISW1ALtGiR66kADroEnLWIA9yo8euowA66BJzZkAexCJuAYC7Bolga0E2DVK4hoJsGuUxDWsBdg1SuKqBNghMHGNBdghMIHVAuwQmLjOBNghMHENBNghMIGtBNghMHGNBNghMHEd+yg4xwA7BCZdlQA7BCausQAbYRFYLcCf5wdVKGeMlWGAjbBIeowlwEZYGGPlGmAjLAoaY2UXYM8xUNIYK7sAe46B1B3ziYZXuQXYCIuSxli5VeBby4OSxli5VWAjLIoaY2VWgY2wKGuMlVmAjbCIYKSFNsLCGCu3ALuFRWFjrLwCbIRFYWOsrAJshEUUawH2ICHGWFkF2AiLMGOsWoCNsIhrKsBe505cAwH2LiwCWwmw17kT10SAnSERWC3ArkET10iAnSER11FOkrIJsDMkoqkE+J2t9UAwAwF2hkRgKwF2hkRcYwF2hkRgtQB7Dom4RgLsDImSS3AeAXaJg5gO/pGG2ywCvLASCGmoArvEQWCVCuxddsQ1UIFd4iCwlQrsEgdxjYuvwC5xUG4JzqACK8BENik9wAowodVlB9glDmIblR3guRVAaAe9mSN8gBVgojsrOcAL3z8Fl+DoAXaLkqJLcPQAK8AUXYKDB1gBJgePSg2wAkwOBoUGWAEmD1WZAX7sm6fsEhw6wJ4jpPQSHDrAG987hZfgyAFWgCm+BEcOsAJM8SU4cIAVYJTgwAFWgFGC4wZYAUYJDhxgBRglOG6AFWCU4ERy0CbAj33fKMFhK/ALXzfZmZZTgbe+bfIrwXUpFdhjSOToUSkVeOG7JkPNX80RswIrwOTprIwAK8AowXEDrACjBAcO8Nz3TK7qgAFueAPFjzGQr4a/lPQqXoBvFGAytso9wH4PmJyN47WjjQJ8s/QdowSHDbACjBKcVoCn0a6OQSIFLYkA/81jhPBWk9scL4MF2B0O8tfgNsdlCp935BIltCrBm1gBdoeDEnwVK8ATdzjgfXsfJW1T+LRfOkKC9+19lPQ0hU87cIcDPrDvUdI8UoAf+14pxL5zrDRqmiMk+NCeR0lpfNjaERJ86CLQxcS9Avyb75SC7DXHuk3js85MsOAjqzgXI6ooJ9ZwMvvMsV6m8VGnJljwsbMgV6H3uku58H1SmosofenEHSz4xDjGPY49bnKYYFGiRzHucXwx1EDDPcGog7yfpjbBgk99FeIY+K8OgjXQlGoV4/n4ygQLGjfRm1Q+5kgDDfc5S/5x/tcmfssMGjfRyewthxpouNegjvCS9Ic/5AtfIZro1N/xWDkChoZN9CbA/8tooNFEp1/cJhpoaFjelul8xKEGGpo10Umdr6410NCoib5M6SNOXeGAh3yT/AWJiV9SgSZNdFo/lX3fJvgH3xvc5aNO/Zf+Kg00PGic7kXoOyMPEcLDHiXdQd/TIyx8Z/DOReInNJUfYoDPNNF12g3qwBUs+IxvEr8isXKCBJ/x3/cK3DK9j/f+Lvixbws+TsjbbfDNIsXP9+4VfH/4suDTBJ+nnN8/m/y7Gnzzo68K7vOP84vdT98tU/14X59fPE/44wEAAAAAAAAAAAAA/L89OCQAAAAAEPT/tR/MAAAAAAAAAAAAAAAAAAAAAAAAAAAAAAAAAABcAf1tjwF+RKzQAAAAAElFTkSuQmCC;" parent="1" vertex="1">
                    <mxGeometry x="833.7199999999999" y="368" width="83.4" height="47" as="geometry"/>
                </mxCell>
                <mxCell id="35" value="" style="shape=image;imageAspect=0;aspect=fixed;verticalLabelPosition=bottom;verticalAlign=top;fontColor=#000000;image=data:image/jpeg,/9j/2wCEAAgGBgcGBQgHBwcJCQgKDBQNDAsLDBkSEw8UHRofHh0aHBwgJC4nICIsIxwcKDcpLDAxNDQ0Hyc5PTgyPC4zNDIBCQkJDAsMGA0NGDIhHCEyMjIyMjIyMjIyMjIyMjIyMjIyMjIyMjIyMjIyMjIyMjIyMjIyMjIyMjIyMjIyMjIyMv/AABEIAMgAyAMBIgACEQEDEQH/xAGiAAABBQEBAQEBAQAAAAAAAAAAAQIDBAUGBwgJCgsQAAIBAwMCBAMFBQQEAAABfQECAwAEEQUSITFBBhNRYQcicRQygZGhCCNCscEVUtHwJDNicoIJChYXGBkaJSYnKCkqNDU2Nzg5OkNERUZHSElKU1RVVldYWVpjZGVmZ2hpanN0dXZ3eHl6g4SFhoeIiYqSk5SVlpeYmZqio6Slpqeoqaqys7S1tre4ubrCw8TFxsfIycrS09TV1tfY2drh4uPk5ebn6Onq8fLz9PX29/j5+gEAAwEBAQEBAQEBAQAAAAAAAAECAwQFBgcICQoLEQACAQIEBAMEBwUEBAABAncAAQIDEQQFITEGEkFRB2FxEyIygQgUQpGhscEJIzNS8BVictEKFiQ04SXxFxgZGiYnKCkqNTY3ODk6Q0RFRkdISUpTVFVWV1hZWmNkZWZnaGlqc3R1dnd4eXqCg4SFhoeIiYqSk5SVlpeYmZqio6Slpqeoqaqys7S1tre4ubrCw8TFxsfIycrS09TV1tfY2dri4+Tl5ufo6ery8/T19vf4+fr/2gAMAwEAAhEDEQA/APKqKKK9k5gooooAKKKKACiiigAooooAKKKKACiiigAooooAKKKKACiiigAooooAKKKKACiiigAooooAKKKKACiiigAooooAKKKKACiiigAooooAKKKKACiiigAooooAKKKKACiiigAooooAKKKKACiiigAooooAKKKKACiiigAooooAKKKKACiiigAooooAKKKuaZpV/rN6lnptpLc3DdEjXJx6n0HuaTdgKdFegD4M+MTb+b9ltd+M+V9pXd9PT9a4zVNI1DRL1rPU7OW1uF52SLjI9QehHuKUZxlsxtNFKiiiqEFFFFABRRRQAUUUUAFFFFABRRShSQSASBycdqAEooooAKKKKACiiigAooooAKKKKACvqb4deFLfwv4WtlEa/brlFmupMfMWIztz6LnH5nvXyzX2HoGpw6x4fsNQt2DRzwK4x2OOR9Qcj8K5MW3ypGlPc0a5fx54UtvFfhq4tmiU3kSGS1kx8yuB0z6Hof8A6wrqKp6rqMGkaTd6jcsFhtomkYn2HT6npXFFtO6NHsfG9FKxLMWPUnNJXsHOFFFFABRRRQAUUUUAFeofC/4faH4w0u6vNRnu/Ot5/L8mJ1VSu0EE8E+vftXl9eu/AW/8vWtW04niaBJgP9xsf+z1lXbUG0VHc9L0/wCGng/TcGLQ7eVh/FcZlz+DEj9KseK9DtZ/A2safaWsMIe1cokSBRuUbl4HuBXSUjKGUqwBBGCD3rzeeV7tm1kfIfh7wzqvii/+x6VamVhy7nhIx6s3b+Z7V7JofwL0q3iWTWr6e7m7xwfu4x7Z+8frx9K9E8P+HtO8M6VHp2mwiOJeWY8tI3dmPc1q1vUxMpP3dESoLqcYvwo8Eqmz+w1PubiXP57qyNU+CXhi8jb7C91p8v8ACUk8xR9Q2SfzFelUViqs11K5UfKvjDwDrHg2YG7RZ7J2xHdxA7CfQ/3T7H8Ca5UAk4Aya+ytS0201fTp7C9hWa2nQo6N3H+Poe1ec+BPhRB4e1q71LU9ly8MxWwU8gJ2kI/ve3bH0x1wxS5fe3M3DXQ4bwp8GtY1uJLvVZf7MtW5VGTdMw/3f4fx59q9KsPg34Ps0AmtJ7xh/HPcMP0TaK7+iueVecupagkcTP8ACXwVOmBo/lH+9HcSgj/x7Fcd4h+BMXlPN4f1BxIBkW93ghvYOAMfiD9a9noqY1px6g4pnxrqWm3ukX8tjqFu9vcxHDxuOR/iPcV1vgT4k6h4NLWrR/bNMdtzQFsFD3KHt9Oh9q9h+KPguLxN4elvLeIf2pZIZIWA5kUclD698e/1NfM9d0JRrQ1Rk04s+iP+F4+Fvs/mfZ9S8zH+r8lc5+u7FeY+O/iZf+MVFlDF9j0xW3eSGy0pHQuf6dPrxXC0U4UIRd0Dk2FFFFbEhRRRQAUUUUAFFFFABXpnwM/5Hq4/68JP/Q468zr0z4Gf8j1cf9eEn/ocdZVv4bKjufRFFFFeWbmXr3iHTPDWmNf6pciGEHCjqzt/dUdzXld78fVE5FhoLNCDw89xtY/8BCnH5muI+KPiWXxD4yuoxITZ2LtbwIDx8pwzfUkHn0Ariq7qWHjy3kZSm76H0N4Y+NOk61ex2WpWj6bNKQqSGQPET2BbAK/lj3r06viuvqv4c6vJrXgLSrudi0wjMUjHqSjFcn3IAP41niKKhrEqEr6M6miisXxbrg8OeFdQ1XALwRfuwehcnaoPtkiuZK7sizG8YfEvRPCMn2WXfd3+M/ZoCMp6bieF/U+1cIPj9N52T4dTys9Bdnd+eyvHrm5mvLqW5uZWlnlcvI7HJZjySair0I4aCWupi5s+qvB3j7SPGcTrZl4LuIbpLaXG4D1BHUe/54rqq+SPBmryaJ4w0u+jcqq3CpJjujHaw/ImvreuSvTVOWmxpCV0FfJXjfSl0Xxrq1gi7Y47gtGvojfMo/JhX1rXzb8aIBF8Q5nA5ltonP5Ff/ZavCv32hVNjz2iiivQMQooooAKKKKACiiigAooooAK9M+Bn/I9XH/XhJ/6HHXmdemfAz/kerj/AK8JP/Q46yrfw2VHc+iKKKK8s3Pi6aVpppJXOWdixPuTmmUUV7JzBX0l8FyT8PIfa5l/nXzbX0l8Fv8AknkX/XzL/MVzYr4C4bnoVed/Gp2T4fSKDw91Ep9xyf6V6JXnPxs/5J+f+vuP/wBmrjpfGjSWx840UUV6pgSQErcREdQ4/nX2hXxdD/r4/wDeH86+0a4sX0NafUK+dPjf/wAj8n/XlH/6E9fRdfOnxv8A+R+T/ryj/wDQnrPC/wAQc9jzaiiivRMQooooAKKKKACiiigAooooAK9M+Bn/ACPVx/14Sf8AocdeZ16Z8DP+R6uP+vCT/wBDjrKt/DZUdz6Ioooryzc+K6KKK9k5gr6S+C3/ACTyL/r5l/mK+ba+kvgt/wAk8i/6+Zf5iubFfAXDc9Crzn42f8k/P/X3H/7NXo1ec/Gz/kn5/wCvuP8A9mrjpfGjSWx840UUV6pgPh/18f8AvD+dfaNfF0P+vj/3h/OvtGuLF9DWn1CvnT43/wDI/J/15R/+hPX0XXzp8b/+R+T/AK8o/wD0J6zwv8Qc9jzaiiivRMQooooAKKKKACiiigAooooAK9M+Bn/I9XH/AF4Sf+hx15nV7StZ1HQ7trrTLuS1nZCheM8lSQSP0FRUjzRaQ07O59jUV8p/8LG8Yf8AQfvP++h/hR/wsbxh/wBB+8/76H+Fcf1SXc09ojl6KKK7zIK+kvgt/wAk8i/6+Zf5ivm2tvS/GHiHRbMWem6tcW1uGLCOMjGT1NZVqbnGyKi7O59c15z8bP8Akn5/6+4//Zq8Z/4WN4w/6D95/wB9D/CqWqeL/EGt2f2TUtVuLm33B/LkIxkdDWEMNKMk7lOaasYlFFFdhmPh/wBfH/vD+dfaNfFisVYMOoOa7fUPi34xv8gaklqh/htoVX9SCf1rnr0pVLWLjJI+myQoJJwB1NfOHxouYLrx2r280cqrZxqTGwYA7m4471xV/req6oSdQ1K8us9pp2cfqaoUqVDkd2wlO+gUUUV0kBRRRQAUUUUAFFFFABRRRQAUUUUAFFFFABRRRQAUUUUAFFFFABRRRQAUUUUAFFFFABRRRQAUUUUAFFFFABRRRQAUUUUAFFFFABRRRQAUUUUAFFFFABRRRQAUUUUAFFFFABRRRQAUUUUAFFFFABRRRQAUUUUAFFFFABRRRQAUUUUAFFFFABRRRQAUUUUAFFFFABRRRQAUUUUAFFFFABRRRQAUUUUAFFFFABRRRQAUUUUAFFFFABRRRQAUUUUAFFFFABRRRQAUUUUAFFFFABRRRQAUUUUAFFFFAH//2Q==;" parent="1" vertex="1">
                    <mxGeometry x="574.92" y="231" width="37" height="37" as="geometry"/>
                </mxCell>
                <mxCell id="36" value="" style="shape=image;imageAspect=0;aspect=fixed;verticalLabelPosition=bottom;verticalAlign=top;fontColor=#000000;image=data:image/png,iVBORw0KGgoAAAANSUhEUgAAAMgAAADICAIAAAAiOjnJAAAhY0lEQVR4nOydd1wUZ/74d3a2d5beF5EOAoIioBh7NybGxJymeJf2NcmlJ7/kvCTfaHKXcvHimftFE2MSoyaxxBK7iAiCUgSkufTOAtsL22Zmvy/ZBJel4w5bfN5/6bMPs59d3sw8/UOCpy0jAAC2hmjvAACuCRALgAtALAAuALEAuADEAuACEAuAC0AsAC4AsQC4AMQC4AIQC4ALQCwALgCxALhAsncATgCbQQ/w8fT3cqeQyQQCQaJQNnd0yZRqvcFo79AcFyDWSEAQ5OnG3bx+1TPrlnnxeeZCncGQdb3sTG7R4fM53VK5vWN0UGCid5i9Y3BQIAgS+HlvemDxSxvXuPM4/eUkGA4L9k+ZFtkjU5ZU12Emk13DdFCAWMMS7Of95ZYXnlyziEGjDn6VTqNOCxN0yxSV9c0m4NYgQON9aCAIemRpxpL0JBIMD1fH39vj9SfWTvH3ndzQnAMg1tDw2My5ydNGrRYu8E9PjJ6UiJwMINbQePF5If7eo1ajkMmxYYJJicjJAGINDYNO47KZY6s5RAsMAMQaGr3eoO7VjaVmr1aPfzjOBxBraHrkirYu8ajVMJOpvrVzUiJyMoBYQyNXahrGYIxCpalpbp+UiJwMINbQGBHk0GgD61q94URWfnFlzSTG5TSAAdJhae8Si8SyqUF+/ZM5lmAm0+krBS9/vEuqUNkjOkcHiDUsCIoJG1uvllRSKZSEyCmWL7WKer45cvazvYdbRT32C9ChgcAW+1EJDfQV/rbHsuTUlYL7X3zffhE5AaCNBcAFIBYAF4BYAFwAYgFwAYgFwAUgFgAXgFgAXABiAXABiAXABSAWABeAWABcAGIBcAGIBcAFIBYAF4BYAFwAYgFwAYgFwAUgFgAXgFgjQSGTuCymhxvXqpxGpfh4uLHoNDvF5QSAg9esIcGwv7d7hCAg2M870MfT040rGHSIQ3x4yJdbXmjp6Gnu7BKJZTXNbV1iWadYimHgPKPfAZsp7sDnsmfGRgT7eSVGTY2PCJka5O/GYY38IyiGtYnEN2saWkXiG9W1128KG9o6wRGSQKzb9ycPN05cWMiitMTpUWHhAn8emzXkSWujotJomzu6KuqaLxeWCZvaqupbJHIlDiE7B/e0WCH+Pg8uTE9LiJ6fksBm0m14ZZlSfTwr/+Dpy3mlVVrdvXhqyL0oFgRBIf4+y+fM+NPy++IjQ6kUMh7vgqJYR48k81rpgdOXqm8/KqX31IGS95xYbCZ9bvK0Vx9/MCM5btTKCIoqVJpuqdxqHz2FQuZz2J5uXA6LMepFZErVleKKz/Yezi+rvrvYnYl7q1fI57L//MCShxbPSY4Z6WABI4LUNLXXNLXVtrR3SxWdPdIemcKyAo1C9nDj+njwBX5eESGBMaFBg4ck+nHjsFfOTSEQCJ98e6iwQniP9BzvlTsWDBOnhYe8tPGBBxemD9k2R1C0tbOnvLZJ2NSaX1pd19rRI1VIFSoUw6xqUilkGoVi/hEMw7zceX6e7oG+nrMTY1Ljo0ICfHlDHQWIoGhtc/uO/cd/PputVPfi9kEdhXtCLCIEZSTHbX/z2bjwkCErdHRLjl3KP3w+50px+QjXgaDb7f0n7l/k48EnEAhanb65s/tWQ2uZsKGjRwJBkLc7b838tLWLZseFhXi4cQZfQaHSfPXLqQOnsyrrmm33+RwR1xeLy2LMmxn//ubHBp9Cq9Xpy2ubCiqEv17MK66qVfdqR7gOEYICfTz3bH01PTGaTPq9CYGgaLdE3tLZfaux9eTl61dLq2QKlb+Xe7ggYMPK+UvSkzzcuEQIsryORqsrvVX/7s4fsotGktjZcfFjjLgsxhub1r23eePg0XN1r3bPkbNvfL7n5zPZzR1dBiMy8qVYTPqc6bFvbFoHE+/MgxGJRDaTEeDjmRAZunR2crCvV21LR21LR0Ob6GJ+SUtHd6C3p7+3u+V1KGRSkK9XuCCgpLpeJJbZ9OM6EK4sFhGCls5Ofm/zRsuEJWaUmt59JzP/ve/X5o7uMV6NRqVECALXLpo9bAUKJSIkgMNglArrFSqNEUGETW0ypSpCEOjtbn10mwePw2LQCsqFYzxC1+lwWbFgmJiRFPfZG88E+XpZlhsRpLGt8x9f//zFj8e7JONIsYSiGIqhC2YlunHY0MCnWz8kGI6cEpjQNzYmbGrT6Q01ze35ZdWtXeLwYH/LsQkyiRQhCGAz6VdLq1xyCshlxYqeEvT9h69HhARaFhoR5ELejb/t+P7oxatavWFcF8RMJrlKU1Xf4sZh0igUhUpDJsEUsvV4DQmGQwJ80hKiG9tFFbVNGGYSiWX5pVUKlSYjOc7cnTRDJpHCgwO0OkNFXZPrueWaYpFI8KY1i9YtybAqFza2bulrNU8srRKGYW2iHmFze3VDa3ZReamwQaXRevA4jEHrZ+g0Kgkmnr1abDbGZDJ19Ei93XnRoUGWyXloVIqfl3u3VN6X6WlCH9VRcUGxaBTKfTOmffDC45aPHhTDbjW0vP3vvRfzS+7m4hhm6uyRlgkbyoQNeaVVlwvLcksqERTlshhcNsvyEenn5Q5BUEG50Iig5s5gYUUNm0GPCwshke645e7GiQ4NuilsbOkca2vPKXA1sWAiMS0h+vM3npka5GdZ3ibqeeb9HRev3ZVVVphMt3VpbBNlXisprKiJnhIU4O3R/yqVQg4XBFwvv9XU0WUu0Wh1JdX1Pp786NCg/q4lBEEeblwGjXricr4rDcq7mlhBvp5fv/9SfGSoZaG6V7d114HDF3JwelMjgraKemqa2lOmRXhazO0w6DRVr/ZsbtGdSLS6MmGDVm9IjAo1JwI24+XOlSrUN2sbXcYtlxILgqBNDyx54v5FloUqjfbIhZyPvz006kjVXdLeLW4V9Sycldg/ZQRBEJvJOJ6Vr9LcGXqVqzTlNY0xUwWRFh0LJp3m7+1xuaDMZZZwudSadxaDlpEUa1mCYlh5beOXP50ceVTdJqAoVlheU17bZFnoxmHGD5pHEsuVJ7LyjcgA0cOC/GbEhuMd5KThOmLBRGJ6QvSc6QPEau8Sv7tzX0l1/eTEIJLIzuYWWpZw2cz0xJjBNc/kFv10Jhvpa9ebYTHoDy+dO7HFqw6I64jFZtK3PPsnnsUqdcxkOpGVf7mwbNJiMJlMlwsHzADSqdTYMIHnoKQp3VL5jh+PNbSJLAsTo0IXpiZOSqS44zpizYyLmBEbYVnSJZbt/y1rksOQKJRN7V2WJUw63XuobDwVdc0ns69Zlni58R5eMlfgN3pmV8fHRcSCicRFaUkwfOfjGBEku6j8RnXdJEei0xsaOwbch5h0Kp/LHlzTiCDHMvMUKk1/CQwT5yTFrJ4/a1IixRcXEYtBo0YE+1uWaLT6/acuDV6mhzdGBBXLBvTsEBTVG4eesWnp7LlRVWtZ4unGiwkNxmkZ/mTiImL5eLpNjx4wblLd0JJp0+HQMaLS9J6/WlTf2mkekZIqVL9lX79Z0zhk5W6p/JfzOZbrnilkUkpcZGiA7ySGjAuusOadRqUkRIT6eLhZFmZeK8F74GpI9AbjkYtXW0XidUsyvNx5F/Ju/Phb5nA7wIwIkl9anV1486HFc/oLwwUBYcH+VQ0tkxi17XEFsXhs5up5A9ol5lWa9opHqe7NvF5aXFVLo1IkcuXIftc2t5+9Wrw8Y2b/QAOFTIoLExzPyp+seHHBFR6FXBZzSXqyZYlErqyss+dfvMlkkinVnT3SUe+aeqOxsq6ps0dqWRgzNRjnAHHH6cWCiUSBv49Vt0vdq+vokdgvqPHRI1PKlGrLEu++zRpOjdOLRSaRkqKnWpb06vTlNY0ardMs+W3vErcNTAHszmVbNRmdDqcXi0QiRg5cJqrR6oqra+0X0bgxIkiLaMBiLBaDNsXJO4ZOL1bfo3DAULVGqysfpnvvsHR0D2hjUcjkwRtAnAunF4tIJHoO3N6OoqhUobZfRBPB6mwIGpUyeGOPc+H0YsFEop/XgI17egPSOrDJ4vgo1BrL/5JgmMWw5bFKk4/TiwVBEHPgXgYjgnRLx7GvyxFA0cmeesIbpxfLfNhG/38xzGT11+8UqDQDjgkxIohc5WRPcyucfmkyiqISuSpC4H+7tQtBNY1tf9/5Q31rp73jGh86g8HH3S00yI9MIiEomnmtZOfBk1a2OReucCgIhUyKEASsmZ/GoNNOX7mec6PS3hFNBG93twcWpIUG+nVL5ccv5dVY3IadEVcQywyXzaSSyU7XurKERqXw2Ex1r24SVujjjUNPQvO57NBAXz6XAxOHPivhXgZB0cZ2UX2rCJv0NWdjwXHF8vZw2/7ms6nxUX6e7pZLQwFmDEakuLJm666D5/OK7R3LEDhu4/2xlQtefXwtj8MigtvVUMAw0c/L3YvPyymucMCzJx33ThAW7A9uVCMDE4mRIYGe/GHP1bUj4Dfn3MAwkTjMYV32BYgFwAXHbbxbodHqXv1kt72jsDM0KmXN/NR5M+PtHcjoOI1YeoNxz9Gz9o7CzrCZjPBgf6cQCzwKAbgAxALgAhALgAtALAAuALEAuADEAuACEAuAC0AsAC4AsQC4AMQC4AIQC4ALQCwALgCxALgAxALgAhALgAsOsR6LCEHTIkLWzE/jcVgSmfJo5tXKumZ7B+VMUCnkqJDAVfNSPd04xVW1xy9ds/sOfYcQK9DX68Anb4f3HdRuMplSE6KX/88WewflNBCJxNX3zXr76fWxYQIiBPUlfeV+9csp+55p6BCPwtT4qPA/jv+HIGhGbHiEIMDeQTkNbhzW8oyZZqvMOYUWp02Pj5hi36gcQiyro2kpZJIbZ4gcIYAhodOovp58y706VCqFRqXYNSjHEAvgejhEG+tuoFEpQT5eZIv03S4AimEypVosU0x+LiBb4cRiQQSCr5f7e89tmDkt0sXEwjBMrtTsPXZu77EL9o5lgjixWJ583t5tr85OjHWBXFlD4uvF1+j0R87nOuN9y4nbWAmRoQtSEl3VKgKBIPDzuX9eqq+nu70DmQhOLBab6dznCo8KBBHoVCrd3v27ieHEj0JLVBrtlz+dbO7osncgNiAuPOTxVQuc/ThuFxFLq9cfy7xaVOlMmU6GY8XclEeWZACxxoq5Ezc1yM+Lz/P14DPpNMxkamzvvH7z1uQEwKBTV2akkEmk/LLqhraRjlX283RfnjGjSyI7efn6yNf04vNWzU1pEfUUlAtHPgY8JjR4TlLszZrGvNKqiX6C8REe7L9gVgKXxSIQCGqttr1L3NAmqmvpmJypnkkSy8/T/aWNazKS44L9vPgcNumP0QGt3lBQLrw4KTl2pwb67Xrvr0YE3X34zJYd341Qc25y3Ffv/rW6oWVksShk8gML07e/+WxVffPfd/5wJqdwhMqPLr/v/z31yOHzOZMjlp+X+1833L98zgwi8fdmtE5vaO+WVNQ27j91OfdGBd6nAOMuFkwkxkeEvvnndQtmJbhxWFav0qmUpOipHd2TkVuQSiGzmQylppfLYoxck9LX06RSRmk1wzCRz2FRyCQ6lTpqT2KM17QViZGhSdFh/VaZR5JDA30DfTwjQoLKhPWf7T1ScgvHFP84igURCMkx4S89tiYjKc6TzxtuDJNMIvl74dWjZtCpNDJFqlQNER4EsZl0gxHR6Q23/93XplEOdWY/TCTyuWyFWmNOl8pm0jHMNOQDBYaJbAZd3atFUIxIJPLYTJ3e0DtUQmgqmcxk0BRqDU7JTgT+3nyu9Z+xeR42MiQgNNAndqrg6yNnDpzKssoPZSvwEgsiECKnBO398DWrZIKDMSJIa5cYjxjYTPoHLzyeGDm1vq3zyPkcde/vKhCJxOSYsIeXZCTHRpRW123ddZBBo3zzwSskGM4rrcoquNnfw+eymanTotYsSIsLExy5ePXoxVwSDP/j5U0sBr2qvuX4pbz+96JSyIvTkv60Yp6/l/uhc1d2Hz6TnhD90cub5Er1qZyCa2XVJBjue2tI4Oc9Kz5yzfw0b3e3j7/95WxuER6fva6lQxwd5u/tMeSrZBIpZmrwP17aJPDz3rbrIB6Lt/ASa05S7O7/fXm4NP96g1Gu0ugNhoa2ziMXrlIp5A0r5tk8BncuZ/nsGaFBfinTIpfPTjYg6O17GI364ML0VXNT3LgsOpXq6+GWVXhT06tbkJIIQVBKXMRTa5dimIlAIAR4e+T9uN2Nw+KxmRQyWSxXFlXWUEikFXNmksikOdNj1y2ZQ+wbCAz289r6whN9izJYMJGoUPcez8pPmRaRGh+FYVhaQrRaq6OSbz8KZyfGXPr2YyadxmUzYRi+WlKJk1hXSyoVKs0jS+e689h0Go1Fpw0+KZhOo/7lwSVkEumrX07damw1mUw2DAAXsagU8mdvPDM10M+qHMNMJbfqL10ryS2p7JLKjUZjl0QuEss2r1+FRxhdEtkX+489/dCyuLAQT/7v6f9IMGzOb4hi2PVy4e5fTueXVhGJxE/2Hlq/bK7Az5vxRy4xcyYVc7P3fN6NH05crK5vIZNI/zl4csOKeT4ebn5/jInTqJSAvnuD3mC8kFe0Y/8xmVJ9JqcwOjR4RcZMdx6Hy2aaa3LZTPO/pQrVuavFo/Y6J4y6V/fZd4cPnbvCYTNpFIoHj7NybsrDSzOsMqWxmYyn1i4NC/Z77oP/tHR22zAA24tFguENK+fHDsrDjmHYwdOXv9h/vLNH0iNVIChq87e2Qqs3/HQ6u7iqNjw4YNOaxRnJcf0vFZQLD527crnwZl1rp0rTS4SgnQeOn79anD49Zml6UnpizO9X0OnLahr3HDlbUCFs6exW9+qIEPTFj79eyCuODg16au2y6NAgc00ERU9dKThyIbekur6+tcNgRIRN7dt2HTiRdW31vFmp8VFhf6xk7JEpcoorDpzOqqhtau3EMa+iwYjUtnSY/00iwTdrGnJuVLz25NqY0AG/GiqFnJ4YMyMmzKHFgiDCyrkpH7/yFwp5wBReQ2vnB7sOnMq+bpWuHW+kStX1m0JhY/vS2cnmtIDmJ4LBaPz57JX+TPeYySQSy3qkChIJXjo7yVxiMplgmKjXGy5eK+nPrImaTB3dki6xrK1LvHHVgv5rkmBYLFUevZCrMxjNNREUbWgTiSSyKYE+S9OTTSYTimG3W1omU1O76GJ+yWQmzEEQtLG9q61LUlHb9PyjqxelTffzvJMon0mnPfXQsrzS6k6x1FbvaOO5Qi6LtfNvm62GFfQG42uf7f7xZOYkW2WGxaCtyJi5ImMmgUA4mX0tu+gmgUCYERvxzjOPmhvU/fh68re+8Hh6QoxWpz94OqugXEghk2fFR61fOtfqmoG+ns8/uiouLARBse9PXBCJZQQCYdW8lAcWplvVnB419fUnH/Jy53VL5dt/+LWls9uTz3ts1cI502Px/+jWGBHkRnXdq5/senfn912SAeNYqfFRq+fNshyeuEtsLNaClHgfD75liUSufO3T3edy7ZPvhUoh/2n5vH++8mcGjVpe27T1q/2vffr1iaxrJBK8flnGw0syLGs++/CK5JgwAoFwqaDszX998/n3R2RKNZVC3vTAkjlJdzzw4HHefmr946sXYibs6MXcbbsOvvPFd9X1LR48zjtPr0+Ji+yv6cXn/XXD/V58HoKgB05lfbj74K5DpxEU9eBzX37sAV9P/qR/HwRzmuCfzmTvO5lpOdLBYtDXLEjz97JZSLYUC4Kg2UkD/hARFP33D79+c+SsAUFs+EZjh8tibnlug68nX67SvPX5N2XCxvKaxr/t+O5WYyuPzZqXcudca0837qLURBiGRWLZv/f92iWRn71a/OneQ1q9YUqgz9Nr7yTfCw3ye3LNIiadVl3fsmXHdy2d3YfOXXn3y31ShSpqSlBqQlR/zYiQwLSE2821MmHDrl9Oq3u1+05cPJaZBxEI8REh81MSJv37+B2d3rDv5MWKuibLwozkOIG/j63ewpZiwURi+MDdNVqd4dtj5yehnT4cWr3+TE6hVqe/dL00ty9BJoph9a2dxy/l6/SGG1V3hp5lSnVFbZNCrTl15XphhdD87R+7lP/zmWyJXJVpMekkEksLym8hKPZbdkFzR7f5XbKLbmYV3uyWyC13RDa2i2qa26sbWr/86WRzX9O4Syo/eOZyRW2TSCyrrG2a9O/jDq2intJb9ZYlVDI50NvTVte3ZeOdSIRC/LwtS4ora7okMhu+xXhR92rf+vybj3YfVPdq+0fADUbjp3sP7zl6VixT9tfUaHVv/mvPB1/tV2q05qFUk8lU19Lx+mdfv//ffRL5nZqtIvHal7cxaFSJQtm/tlOqUL2wbSedRu2RKvprdnSJ17/xEUwkyhQqY989G0Wxs7lFBTeFBIhgWXPyUal7LxWUrZyb4s7j9BdGThllNHvs2Ewsdy57YWpSkK+XZWFVQ6utrj8xTCaCXKWRq6zXHag0vYMzLkuVKqvJHwzD5Cq11cA0hmFDzuBKFCrCwOkRzGTqlljX1BuMNux8TRgTgVDT1CZTqi3FCg30ZdJpNln+cLdi+Xu7r1uUER85JTU+0p3HsdrOtnzODL3+qaullZeulw05DWcr2EzG35/bILa4rzgvgd4eTAYNv+v7eLglRIY+uDB93oz4AJ8Bcz4r56bk799eWdd86NyVC9dKVJqJD4hMXCyIQAgTBOzd+krKtKjh6gj8vV954sFnH1lx+HzOix/9F7+VQHQqxTygABiZWfFR2158Ij5iCo/NGpyOjkmnRYcGR4cGL0pLOp9X/PXhM9lF5RNLDTzxxvuyOTN2vfdSUkz4qDUZNOqa+amfvPoXMsmWTTrbjhQ7IGjfM7dHZrOFU3wu+4VHV6clRLtxhrDKEh6buSJj5nv/s3HCZx1MUKzlGTP3bnstPSHKaoxxODgs5uOrF763ecOQryoGtoEQBB3LfHtVfcv//v8fcVr1YXdQDMsprth16LRitLS8ao22beDUkE43xFqdKQE+O//2/Op5qRTymP68mXRaanzkx6/+uf9YjXExkVsIBEEfvfSkZaNvLNBp1OfXr6qsaz54+rLVSznF5U3tXQL/33uUV4oralvaR72gRqv75ze/5JVULUqd7uE2vmAcHJ3BeKOqLqugtLF99O0hCrXmVE7B9JiwaeEh5unni9dKbgobrKq9uOH+hxbNGVeCbRiGl6Qla17QvfLxLvPswtiZiFib1iwKDx7iDqlU9x6+kFMmbISJ0Op5s+6bYZ1Wj8Wgv/Xnhy9dK+0a2KvqEEuf/3Dn1hcfjwsLKayo/eLHX8e4/M2IIFeKKyrqmqkUF9kVYgbFMKWqVz22JqnJZLpUUIZi2JZnHo0ICfzxt8x9JzOt7lhRU4JmT48dbFVnj/TS9dLalg4EQVOmRcxNnsYZuLwWholL0pJjpp7FXSw/T/7WF5+0up3q9IbPfzj6/bHzPXKlvm8Wdv+prCAfzy3P/un++an91SAIChcEbH/ruY1vf2LZJEQQ9GJ+yY3qOiqZrDMY5MqRdiVYYUQQ+w6VOQIKleZMTmF+aTWFTFJptFYdcD6H/ejy+6KnDFjUIJYp9p/K+v74heaObiOCmEwmGpUSExr8/KOr5iZP83Ln9dfksBgPL864UlRhHM/0ybjFmj8r0dviXc3zNi9//NX3xy8YkTsj7HqDUSJXbt72HyadujB1en85hUxaNmdGeLD/rcYBQ1wohtl3wNDZMSJoj2zoLzAtMXrZ7GSrm/quQ6f/+c3PWr2hv0SrN+SWVJbXNT267L73n3/Mw6Kpk5oQHTklsLymcezxjLvxnhIbYflfDDP99R//3Xci09Kqfrok8s3bvsy8XmpZSKOS7X4s2L0DjUJOT4yODQuxLMy8VvL98QuWVvWjUGm+O37BasdRsJ9Xwjh/ZeMWK0wwoI/Q1CHac/Sc3mgcrn5TR9fb27+1LCGTSCG2m+wEjAyPw4oQBFruZJEoVKeuFIzQLdDpDadzCixLmHRabJigfxXuWBi3WFabbdq7JSM3tDEMa2rvslrU5sXnjvd9ARODQiaxBo7j1zW3C5vaRl7h3iYSW01b0SiUMY5TmBmfWNBteQdsoBs8FzYYvdFoNdkC2W5BGWBkoNtf9oDOoEKlUQyaPLVCq9f3b2qaGOP7BZv69hVZlgib2kb9KQRFG1rvbGnHMNPIO9wBNkSiUNU03RkURFGsVNhg1XMaTEePtKr+zvofvcEobGrrGc/m6XH3CrfvO8pm0GPCglWa3vKapm+Pnh31R/QG44e7D5JJJIG/t0SuzC+r/mnQGCkAJ9S92u37fu3oljy0eA6dRs26Xvrtr+dGvWP1SBX/+u5IU3vXvJnxVAr52KW8X85mm/frjpFxi1VcWbvx7Y+9+Dy90dgtURiGb7Zbkl1Uvu61D3lsplZv6JHKxxUi4C6pbW7/ZO/h745foJBJIomsVzvEzmwrTCZTzo2KggqhN59nXlWr1Y/+U5ZMZMBapdFOYEGFWKYQDzPQAsAbg9HYNv7t5nqDsUU0wQ1qoBENwAUgFgAXgFgAXABiAXABiAXABSAWABeAWABcAGLZGAgiUMikMW4FcGGAWDZm1X2pO97eDNYFudRScftCo1IeXJj+ztPrRWIZeTwrTFySe/3z3z0QgeDhxp0RF/7U2mXzZ8Yz6LSxLCVyeZxGLC6LWXFs1yS/KYKizR3d73yxd4Ss+ovTkj594+kAbw8O8/f9Lcmx4cd2vDfG6flxQYSgcS3jtCNOIxYME0c92RsPIkMCKWTSI69/pBy4cZQEwzPjIv7y4JLF6Uk+HnzLpXQMGnVKAGhjAUaEBMMJEaHpCTFncu/sLxD4eT/3yIqNKxf4eLjZNTrHBfQKR8dEMKHYgD1IGp1eIldxHCBhosFoRPDJbXGXOK5YuTcqHGQ9YG1ze0G50LJELFP8Z//x1S++f+DUJbuc2GvGiCDZheVN7SJ7BTACMNE7zN4xDE1ju6i4spbHZvp68q0O954cMAwTSeSZ10rf3v5t86CTbRAUberoOpNbVFRRkxIX6c5jT3J4UoXqmyNnP9x90DFPBYPgacvsHcOwwDCRRqGQSSRo5EN38MKEmUwIgmp1emz4zVIwkejj4ZYcE/7MuuXzUxLIJDivtOqtz/fcahx9m8ldBWfCdAajbqhNp46AQzfeURSbnKyNdwOKYe3dkvbu/MtFN5ekJX3y2lMIgirUvbKhUo7dOzi0WM6FQqU5cflar06/6r5Z9o7F/jj0o9AZgWEilUzWG4zohE5YdBnAHcvGoCjWi45vp5RL4rjDDQCnBogFwAUgFgAXgFgAXABiAXABiAXABSAWABeAWABcAGIBcAGIBcAFIBYAF4BYAFwAYgFwAYgFwAUgFgAXgFgAXABiAXABiAXABSAWABeAWABcAGIBcAGIBcAFIBYAF4BYAFwAYgFw4f8CAAD//3OEg6Bgz+wyAAAAAElFTkSuQmCC;" parent="1" vertex="1">
                    <mxGeometry x="290.42" y="352" width="51" height="51" as="geometry"/>
                </mxCell>
                <mxCell id="37" value="" style="html=1;verticalLabelPosition=bottom;align=center;labelBackgroundColor=#ffffff;verticalAlign=top;strokeWidth=2;strokeColor=#0080F0;shadow=0;dashed=0;shape=mxgraph.ios7.icons.cloud;fontColor=#000000;fillColor=#032e49;" parent="1" vertex="1">
                    <mxGeometry x="255.92000000000002" y="633" width="104" height="59" as="geometry"/>
                </mxCell>
                <mxCell id="38" value="cloud&amp;nbsp;vault&lt;br&gt;keys seal" style="text;html=1;strokeColor=none;fillColor=none;align=center;verticalAlign=middle;whiteSpace=wrap;rounded=0;" parent="1" vertex="1">
                    <mxGeometry x="266.42" y="658" width="83" height="30" as="geometry"/>
                </mxCell>
                <mxCell id="43" value="cloud backup" style="aspect=fixed;html=1;points=[];align=center;image;fontSize=12;image=img/lib/azure2/other/Azure_Backup_Center.svg;fontColor=#FFFFFF;fillColor=#032e49;" parent="1" vertex="1">
                    <mxGeometry x="130" y="592.51" width="95.42" height="86.99" as="geometry"/>
                </mxCell>
                <mxCell id="47" value="" style="shape=image;imageAspect=0;aspect=fixed;verticalLabelPosition=bottom;verticalAlign=top;fontColor=#FFFFFF;fillColor=#032e49;image=data:image/png,iVBORw0KGgoAAAANSUhEUgAAAMYAAACuCAYAAABtPHJqAAAAAXNSR0IArs4c6QAAAARnQU1BAACxjwv8YQUAAAAJcEhZcwAADsMAAA7DAcdvqGQAAA+8SURBVHhe7d15cJT1HQbwbxJISAIW61W1h21HraNt7dQ/amccp9apnWlrx9Z2xoozTOuMtra2daz1qMdYtIpFUaogIAKRGwQSIFwhHIEACXcgkJBwhCOQADlIdt/33aPv8+5GQ3jDbpJ9972ez8xO2J04YLLP/u7vL0NEovqDiLrJjH8lom4YDCITDAaRCQaDyASDQWSCwSAywWAQmWAwiEwwGEQmGAwiEwwGkQkGg8gEg0FkgsEgMsFgEJlgMIhMMBhEJhgMIhMMBpEJBoPIBINBZILBIDLBYBCZYDCITDAYRCYYDCITDAaRCQaDyASDQWSCwSAywWAQmWAwiEwwGEQmGAwiEwwGkQkGg8gEg0FkgsEgMuHI64yvGJ4h3/3WIBmSjX8e+UlAiUrt4bAcOxWJv2IPRwbjxq9lyUtP5Mm9dw6Ov0J+UV0fltfGd0rJZi3+ij0cGQy0FI/+JkfeeiZfhuSw1fCLoN5afDQ/KH9/o0M0e3PhzDFGUI3Kxh0hKdsWir9CflB7JCxzihXbQwGOHXzvrQ3J8g2qnO90XINGFsDYYpP+Ybih0hkfho4Nhqp/aqzdqsmWXSGJMhueht/vkeMRmbYoGH/Ffo6ert1TE5KSclVa25kML1O0qKyv1KRcbzGcwtHBQKuxokyTndUhiTAbntXYFJGJc53TWoCjgwFoNdZsUaWlzd55bbJGKCzGWHJblbMmWhwfDE3/eRWWaFJdF2ar4UFnzkXk/RnOai3A8cGAvXUhWbVR41jDgzA9W1WrNxsO44pghPRWY84yReobwpyh8pBmvbUYOy0Qf+YsrggG1B4Ny9RPg2w1POS9gqAcOubMsaNrghHWW9tPChWpOcx1DS/ApMrEOc4bW3RxTTCgRW8tJswOiqIyGW43Tm8t0JVyKlcFAwr0VqNO71aRe+2oDsnSdaqEHTwD77pgYCA+anynRLis4Ur4vf1rbIecPuPsX6DrggGzl6myTP/EIfcpLFVk94GwsbDnZK4MBrw2oVM6AhxruAl2Ss/Qu8Knmp3f3Ls2GBVVISkqZavhJtj6sX1f2NjN4HSuDQb6qh/MDMrZVrYabnCmJSKLS1Q51uiOiRPXBgNrGbv2h6SwRIm/Qk62ZnPsbA12TLuBa4MBGGNg+rbRBX1WP8OYAscHjpxwzzS7q4OB1fA9NWG91eBYw8nKtmuyvkJzTWsBjqwS0heDskR+fGe2TB41VL78JXtyvnStKg2NkYRbVe66Y7DcdqP+D+6mskqTij2JP0lvv2WQfP/WLMkeHKuagsUxbMXfUJn43fbV6zLlZ3dnx5+l14nTEXn1g06ZMj/oikF3F9cHA669KlNe/FOe/PGhIfFX0mvks+1GHzrR3PzrT+XLyAdy4s9isLt09OTEO0yffGSIPPFwrgzLjwUDb7IFKxV56j8dxvNLufN7g2TBe5fFn6VX4RpV/vb6ecduFuyNq7tSXU6fjRgLfkdP2PPDP9cWlZNNkYQPs3UXzO2bfW/PB76ve4uEPyuKmH5vz0fTWXs++3BMYF6xIkdPum8M6IlgYKyxfV9IitdzrOEU2Oi5eVfIqCiI34/beCIYcFLvy67YqMrh45yhcoLGpqjRjUKL5UaeCQY6C5t3hmT1JpUbDG2malGpqNKM0kdu5ZlgAD6d8Cm1v95F0x8edPpMVGYvVaX5nD1jm1TwVDAA1QtLyjUeZrIJ1ipKt6rGjJmbeS4Y7R1R4xBMzSEXjvg8AKfysIfN7TwXDNi4PWRUSw8E2WqkE6aQV25UjbGe23ligc8MLp0Z82y+fPumQZIRWxOzzKvvd8qW3SEJhy/9o8QC3S9+dOEK9MwlikxPopjx736eIw/elyN5ubH/GSwmot7r6EmdxvNLueUbWfLO80Pjz6xzrjUi94xsM0qqup1ng5E3JENefiJXHn8oVy4bam0ysIDVdj7xlpDrrs6UK4Zf2EjjiOepJI55XnNFplx5eaZkxv9z/F3tnVE5cjxxlzEnO0NuuuHCrShWQP3Zx146H3/mbp4NBmBf0qwxw+TWG61vNfzurN5a/OC3rcblL17gyTFGl/31YSksVTnWSIPpixXPhAI8HQz0w6fM53kNqzWddWZh5oHwdFcK0Cd/5c958vxjeZJlUTcbm/Sw2pvI8MsyJD8+eO7S3oHxSfzJJeTlinxh6OdjDEApoWTGJ8PyRR9nWfcZ+OakTnnlfwHjckmv8Hww4Gp94FpVNFyu+qI1b44R/2iXVZuw7fzSP8rRT+fLHx68cGv8mCkBeX1i4pmlp0bmypMjcmVYfCIB5zHKKjX51ZNtxvNL+eHtg6VogjXbzhHMu0e0GutGXnojebor1QUzPyggbBUsKp5tiegPfO39ETTZOoRLGc2+t+cD46Sebzw1ZP69PR+t5617y/77/U5jVs5rn66+CAa8VxBwRT0jN6msim0r9+Lkhm+C0aZ/ar79cYA7b1ME4wlUnz/W6M0fqG+CAVMXKVLX4J0pRTutr4xt8ffqPey+Cga2LIyfGXR83VSna2mLGkdWD3q46ryvgoECAotLFNlby/MaA4E9Wpt2Ymt//AUP8lUwoLE5Kh8vUERLYt2BLobFvBVlqhz00Cq3Gd8FA9Ojy/VfLD71qO9QZrN0i7uKp/WH74KBXakomDBNH4hj/SEVsKKNna9XXo6vvT9yLywpZcAuYLPv7fkYmpdx0UZIFJsz+96ej/wUldvCdPeqcr218MGNVr5Y+TZz89ez5K1n8i86H9EfVTVhaW5JvO0cW7+vv+bCz6LDx8NJFSO74fpM+cq1WUYYAH8XdrTiEpZEUKTtjtsGxZ/1H7pQfxnVIbWHGQzPyh4s8vD9OTL2uaGWn9fwAmz9eHNSQMYVBHwxq+e7rlQX9JG37Iz1lymxA4fCRoEDv0x1+zYYsF//Zc8tVoyCzNQ7FDhAWaIGF5ba7C9fBwPbQ1CeHiV3Eo0PrIJ/Az6FEz3s3MqCyYqCRUHbfkZ28O0Yo7tHfpkjo/6ab5TLTzd0T+YWJ14pu/+ebHng3uzPiiGkC8YWT7/ZYeyL8hMGQ4eZojH/zJdf35fz2axPuuDO8hffTXwe44XHc+WZR/PSOlGAYsy4UHLkc+2urirYH77uSnU5fiqivwE04yt9rvV8RD4pUnwXCmAw4lAobNvekKtu/bHa6nJNVpb582oFBiMOV2JhgyEPM8VgV8BbkwO+vS6awegG3akd1Ww1YOFqxTih51cMRjc4Gz57qWKc2/Czc20Ro7XwMwajB1xXhmvL3Hg9VqrMXqbIvjof/wB0DEYPuGhy0rygsT3dj860xE45+v1sPINhAmMNVC/3o4LFitS77OphK3CBrxc/vStbiidZfzd2dV1IqmoTd1u+c3OWfPOrgyxdgMTpvJ/8vk12HQj5avuHGQajFyiFOe2NoTLifmsv1ccbMJk3IQ4pWV2x/b+oivhhp5zz6RRtd+xK9QJ97BfGdhr1Ya2ENztCmOhhdShwsef8FZiRYyhA/5FTb46eiMiUBd6ftsTuXWwSrG/g2KILg5HAu9ODRh0lL6s+GJbFJaoxxqAYBiMBo3DCwqBn1zVQd3buckWqWGvrAgxGAqjROnVR0LOX6u/aHzaO97a2c2zRHYORQER/vxw8EjHm97WQt948qDJSVKq3FjVsLXpiMJLQEYjKyo2a7EmiVI2bYJNg0VrV0vsz3IrBSALWGeobwkZfPJkrxdwABQ5KyjU5UO/vPVG9YTCS1NYRNYom7NjnjTcSVtuXlKqeL7XZXwxGktBqVNeFpXCN3mqo7m410FrgxGKNxwszDwSD0Qc41bauImQcgXWzuqMRmbNMsXxV380YjD5Aq7FjX0hWlOFuCHe2GthWX1iqGOsz1DsGo486g1FZs9m9Y40Tp8IyZb7i+/MWiTAY/bB1D6oXqq67rRT35c1YokgjCz4kxGD0A67YKl6vyZ6acFJbxp0A/8wTpyLy0Xzr7jv3Egajn7bs1mRDpWYs/rlBp95aTJwXlNNn3Dk2SjcGo5/Qaixcrcq+g2FX9Nc379KMzZCUHAZjACr0scbSdc7fUoGxxeR5/iy12V8MxgBg1XiWPpjF1VtObjXQ5cM1YZQ8BmOAao/gkI/i2LEGtpO/PyNorF9Q8hiMFMCW9EPHnDlDhfs31lVwQ1RfMRgpgKvKcGbaaec1cN5iwuyga2bOnITBSBGsD1TscdbmI+yHqtHHP25Za3ESBiNFUC5/tIMKIWMHLbp47TyE1C8MRgotW6fKph3O6M/PWqrIwaMR42gu9R2DkUKoz/TyuE7buy6nz6J4GsvhDASDkWLrtmpSstm+VgMtRNfYgvqPwUgxtBrvfBywbeftsZNho0vX2MTWYiAYjBRDN6p8lyarNqW/1UAoUfVjt8eqmdiBwbDA+Y6oTJkflJY0FzE7fDwsqzZqxkWbNDAMhgVwuWVFVUh/k6ZvfxIW8XBN2lafXniTagyGRbCOMKdYlSb9azrsr48VZkY5fxo4BsMi2Hm7rUqT1XrXxmrYVr6+QnPcyrubMRgWQl+/sFS1/Iw1DkthQa+Nq9wpw2BYCK0G+vyoKmIVbCcv3qDKzmq2FqnEYFjs6MmwfLrSugU3zETNLMLO3vgLlBIMhsVQ7Q/nIXAHRaqh61Skd9XqjnLdItUYjDQ4cy5qTN3WHErtGxh7oibNDUqYE1Epx2CkAYbEq8s12bRTS9kGw4ASNbpQxxqZCiswGGmCs9cou5+qsUbT2aiMn+X9G2XtwmCk0ZK1qqzepBr1bwcCrc7EOQFpbOb0rFUYjDRCkTack6jXB8sD6VIdPxWRifrYgqzDYKRZuT7OKNumDWhb+ttTO42uFFmHwUgztBqfFKnGp35/Wo09NSGZtlCJPyOrMBg2QGnPknLcf9e3ZGDd4p2pAaPwAlmLwbABtopMnq/0+Uz2Br0LhusHyHoMhk12HQhJ4Ro16Zq3LW0RY92iuYXrFunAYNgEW0XGFQSl9Xxyb/R1W0PGoD3MPVFpwWDYCNcJT09iII1Smx/MCsjx0/qAPf4aWYvBsBG6Uahe2Jag1cDaB641C3OvYNowGDY70YTCy723Gmf0McWCFQqPrKYZg+EA4woCxhnxnrDOsWClKnsPsqlINwbDAZrORY1y/agL1R1aE1T+wGIgpReD4QBY6Ju+SJG9tZ9POWE8gVBs28tpKDswGA6ALtMxvVX4cE5QFDU279TQGCue1nCSrYUdGAyHwKbCknJNtu8LGee3URzaKVcK+BGD4SAYS8woQuGEkKzUWwuezrNPlv54JfZHshtaivaOqJxqjsryMs0opEb2yNAf/Ok7SE52hgzJiR2FJfswGEQmOMYgMsFgEJlgMIhMMBhEJhgMIhMMBpEJBoPIBINBdBGR/wO/jmHsVNZ0JgAAAABJRU5ErkJggg==;" parent="1" vertex="1">
                    <mxGeometry x="280.08" y="462" width="71.69" height="63" as="geometry"/>
                </mxCell>
                <mxCell id="52" value="" style="shape=image;imageAspect=0;aspect=fixed;verticalLabelPosition=bottom;verticalAlign=top;fontColor=#FFFFFF;fillColor=#000000;image=data:image/png,iVBORw0KGgoAAAANSUhEUgAAAMgAAADICAYAAACtWK6eAAAyBklEQVR4nOydB3hUVfr/v9NrJr2HTgjN0AkgFhAQUFFAXVaww7rKgmsFdf27rvtblV3dBRTXVdHViLgKKFKkKL2ETmiBkAAppCeTyWQyPf/nnCRrFjKTe2funXsnmc/zzGPJnXPP3Hvec973nLdIESJECI+EBCRECC+EBCRECC+EBCRECC+EBCRECC+EBCRECC+EBCRECC+EBCRECC/Ihe5ACEAd2RvqyFTINdF0wnI2VLmtNbmw1lwUumudnpCACIRCG4/EjOeiIlLvmilXhU8GMAKAofnPtQAOOW21P1ad+Wpt+fEPaxyWMoF73DmRCN2BzoYyLBlxg+b1iBk453mpQvsQAH07X6lzOyyfVZ7OfKf0yLIrTmt1gHoaAiEBCRxEjUoY/nT/qL4zFwGYRWSFZRM2AKuqc9YsKTvxr5yGilM89TREa0ICwjMRPadIovvPujm8x8SFAO4GIPOzSSeAbebig8tLjyz70VSws5GjroZog5CA8EREzymyhBFP36uNS18MYDBPtzlqKc9+6+qBt9aZCna6eLpHpyYkIBwTlTZDmTD86TnqqFSiSvUJ0G3PWatzl5QeWbqq+vxae4Du2SkICQgHyNVRSBi+MD6yz92PK3TxTwDoKlBXLjvqy/5ZdXb1yvITH1WEDHr/CQmIn8QNfkKVmPHc0zKl/g8AwoTuTzO1Lrv5jZKsd5aXn/gwtKL4QUhAfEAq1yBmwBxN3OB5jyoNKc8D6CF0nzyQZ63O/Vvl6czPKs9kWt3OBqH7E3SEBIQFRJWKTX80Mjb9kXlyTfTvASQK3SeGFDsbqv5ekf3ZJxXZnxpDqhdzQgLCgGYbo3fMwDkvSBXaOQC0QvfJR+rdDssXlacz/1p6ZFl+SFDaJyQgXmg+3Lshqu/MxQDuA6AQuk8c4QDwdXXOmrdLjyw9HfL58kxIQNogvPtERKZOy4jqO/MlAHdycLgnVlwAfqi9tG1ZRfanu0wFO91Cd0hshASkFVFpM+QJw5++Xx2VugBARid7Piet1blvlR5Z+m31+bVOoTsjFjrTAPAIWTESM54bp41LXwrgBqH7IzDZlvLshUV7X99lLj4gdF8Ep1MLSLMqdUuzKjUxFED2X4iqtaU6Z82bNbnr99Re3iZ0fwSjUwpIK3eQBTz6SXUUjlurc5eXHln6ZWd0Y+k0AtJ8uKeNGzzvcaUh5TkA3YTuU5BxpfnQcWXlmUxLZzl07PACIlXoENP/gYiEEQuflGuinwYQL3SfgpxSZ0PV0tLDyz6oPLuq1u2oF7o/vNJhBaT5DCMtqu/MJwE8BCBS6D51MGoAfF6ds2ZF6ZGlFzrqWUqHExCyYiSOfC4yfuhv/wTgiQ50uCdWHAD+WXbsn6+VHHqnpqOtKB1GQJptjJiEEQsXyDXR8wFEC92nTkaVs6HqvdLDy5ZXnl1V1VEEJegFhKhSsYPn9YhOmzlfqtD+RkQu552VuubY+fdLjyw9FeyqV9AKiD4pg6wYHcYdpLERCNc1vY7a+kZIgvbN/BcXgA3VOWverDyTmWW+miV0f3wi6F4DEYykUYvG65NHEcG4LRh/w7V0i5PhD7PCMbiniv738Twb/ry6FgUVHSLMvBHAT+big29ePfj2z8EmKEEzuGIGzFFFD5w9Qxc3aAGA0UL3hytiw6X44vkYxIb/7wJYbnThwb9VotLUofwHD9SXn1xedfrLtZVnMm1Cd4YJohaQZsNbHzNwzjx1VOqzAFKE7hOXELXqL49EYPIwTZt/33TYgj98XtsR1K1rKbJW575beTrzo8ozmWYxHzqK9tGHd58o6Tp+yWyFLv5tAElC94cPpBLgpzfjYdC27QJWW+/GbS+VoQMnvrrqqC9bVPDzi6tqL28T5VIpKgEhK0Zk2gx57MAHpzfnkxoqdJ/4RKWQYPeSBMg9bC84XcDNL5bA5gh0zwLOMUt59lsVp79YV3N+rVNMK4ooBKRZlQpPGLHwKbkm+kkAXYTuUyBQyoHdSxKh8JBC3O5oEhBHh7DVGVHkbKj6oPTwshWVZzKNYhAUQQWkOdY7LmbgnIVShfapzugO8uMbcdcZ6C0QQ33Kq+UimcYCitHtsKyoPJ25tPTIsnIhY+cFOTtQaOORlPFCl+6Tlr+uTx71b4lMMQFA25ZqB4YY6Rl9lOga1/YScuyiHZuPWjuikd4eaolMcZMucdhTsemPxCnCkvPstZerhRCUgAoIWTG6jlsyuPukpe/qEod9IJEpxvqQ5bzDQAZ+cowcI/qo2vz7xkMNOJ7f6UIwWqOUyBSjdHGD5semPzpSFd79rPlqVmkgVa+ARdDpEzNk/efseiOq78xDAH5NbNRA3VvMXLzq2QLP9fK3TgYZp3eQsUPGEBlLgbwx76gieqLXtC/+KddE/yHkXfu/FFd5tsC9/a2ToiBjqNe0Lz4gYyoQ8C4gSn0yUu9e/YpMqZ/L972CkTKjC+42Djrc7iYjPcT1yJT6eal3r36JqOx8w7uAdB2/ZJLSkPI63/cJVuoaGmGxXn9GVm91w2ztwEeEfqI0pLzRfdLyCXzfh1cBMXSfoDF0G/dBsHva8glZKeoarhcQ8v/cojxbFg0yMrYM3Seo+bwJrwLSddySRQACoywGMW2dlHeC03Mu6N113JLn+bwBbwIS0XOKTqlPeJqv9jsSbbmayEJrLiOU+oRnDF1u5S2ZOG8CokscMYbICV/tdxRUCiBKf/1riA6TQhna72NCVFjXmzP4apw/AYkfzFunOwoyKfDCzHBo1de/Bp1aihdmGOg1IbyjiU4LPgHRxqXfyFfbHYUJg9WYcaNn7WDmWB1uG8SrDdoh0Cdl8DbWeBEQfWKGXKrQhlaQNmhsbIoDidBJ0T3egxtvK7rGyRCmkVB/xcbQrm+bkLGmjujNy1hu/w35gDYuvV9n9My9FjKe48OlSEtRIDVZgdQkOXokyJEUJaMqFBOevMOAJ6YaUGdxo7jKifwSJ/JLnbhQ7MSZAntHSfDgL7GGbuPSrMaL57humBcB4XPJEzNkhteqJchIU+HGfiqMSFMiJUbut7c6WXHCdVKE65To3/UX306XC7hY4kDWeRv2nrHhRL4drk56dkLGXPnJj4JEQJIzxvDRrhghQkFUoIlDNBg3SI2hvZXQKAMzpctkoKsT+Tx0mx41Zjf2nbXi55NW7DtroxGJnQVtXDoZcx9z3S7nAqLQxkOuiR7BdbtixKCR4MHb9PjVzVrGKhOfROqluHOkln5Kqp1YubUe67MsnUJQlIaUEWTsOSxlnLbLuYDoEoYS26MX1+1eC5m5ie5N7dbmfw8E5L6x4VLMHqfD9DFahGmEF4y2SIyS45VZ4Xh0og5f7qjHugMNsDkCZ+WT5ySXNamHdmdA3k8fTXQ/g8NSZuKyUc4FRBuXnsG3S3ufZDnm3xmGG7or6Us/nmdH5o56nLni4O1FkBfeLU5GVZkpwzVQB0iN8pekaDleuJcIih5f77Hg2z31MDXwJyjkOQ3uqaD3G56qhEwmxdkCO/7xnQmnLvPqP6PUJ2eMNBXu3M5lo5w7NCSOfO5hpSHlZq7bbaFHvAyfPhOD3kkKOkiJakP+fVqGFmarm74EroWE2BgLpoXhj7MjMaCbAnJZcAhHa7RqKUb2UdFVz2JrRE6Rg/NtY/JUFkzT49UHIukWtkIuoQedCZEy3D5Mg13ZVmon8Uh+1bmvd3HZIOcC0m3C3/9AxjHX7bbwzHQDBna7PkpXKgVu7K+mwnEk186ZkEwaosY/nohCRpq6Q5xqk0ll7AA1bh6gxrlCOypq3Zw9q5d/ZcADt+rbbE8hk9A0R7tO8ZdQUa6JspceWZbJZZucvnJ9YgYZubwZ6GTG653oXSv8zZQw3HeT1u/ZMUInxV8fj8Sbj0YixtDxPAf7dlHgs2dj8bu79DT9kL/8dqoeM2/Ueb2mW5yc18NOqUI7Up+YwanZwK2AJGXcwHf5ASa5al+8NxyThqp9fhnj01VYvTgG4zu4mwcxoh+bFIZvXo7FsN5Kn54X+c6sW7SYN7n9115a4+TbWI/QxqUP5LJBTgVEHZ3G6/Yuebi7TlnbvY6oQm88GIkhvdjvFSy4Kwx/nRvlMVeVr7jcwPkiB77cYcZLn9XggSUVjA71XC7g4Xcq8cdMI9bus6Cgwsl5KtKUGDlWzI/G5GHsJ5XbBqvw3PRwRtf+dJL/fNXa+MGcjkFOlyN94gjezz82HGrA3aO1bdohrVHIgXfmReHFT2oY2SRkNn3p/nDcM5q70IKCcid2n7biaK4dp644UF33i74foZMwsmlkMqCwwonTVxxYf6iBGsIxBikG9VRiTD8Vbh6oQlSY/8JMfv8bD0UiNtxEdwSZQFbp//dABLX/2mPfGSt2nGx/cvOX5jH4EVftcbbgKfXJGPjo4RwAaVy16Qm9RoI/PxiBmwa2rwI5XcDb3xixdr/nXEo6tYTaGxlp/mciqjG7selwAzYetuB8kdPjdUlRUvzwR2YFd+/8YxlKqtteboiQDU9V4q4MLVUJiSHsL9/sqceSb01tJpNo4YkpesybEsZoAH13wIK3v6ml5yEB4Ez2RwMHcpVkjrMVRBuXHgegN1ftecPc0Ihn/lVDtyyfulOPSL3nGZTMjK/MiqDbjsvW1113qkxm8uVPRv2Pj5MvHMm14Zu9Fuw+ZWU0EPQsDhj19JS+bQEhalrWeTsO5tgRFSbFlOFq3DtWRw1iX7nvJh09lf/D58br8gJrVRJa7Od2DyUbWlNU6cS760y87ly1QV99Uka0MX9zFReNcSYg+qSMUYFMzkAmt7X7Ldh6vAH3jdVi9jg9fameIH8flabCnjM2qJQSfL27Hg22RiocfZJ9P9c8nmfD+xvqcCzPwWo51quZX01WzPYgqhtZvVbttGD1bgsmD1Xjt1PDaOZGX5gwRAOlXIJFn9bQ5zPrFh09lB3dT4X4CO+vucbswidbzPh2r0WIxNsyMhaN+Zs3ctEYdwKSPEoQD16ymny6rR7r9lvw+3sMuDND63Gg9kpS0A9hWoaGHpj5aoyX1rjo7PjTiSa9mq1iw8Z3S8/Sz8vtBjYdsWL7CSvmjNfhsYlh0KjYq14336DG6sWx9DReweAxkdU582czPtlqps9WKJqD9cQlINq49OFcteULxvpGvJZZi/1nbdRwbG9AkAGq83EXd99ZK175t5HmtPIVLYsVROvD4CYQVW/l1nrsOGnD338TiS6x7F83U1Wtus6FRSuNOHqRu0NaX9Enj+Jss4iTbd7mw5khXLTlD+TFbDluxcPvVnrNeesrJosbf/m6Fr//sMYv4SDoWAx6NsLUFpfKnJjz10qs2mnmxbP32EUbZv+1EsfyhBeOZoZoY9M5Ufc5ERBtXHp/sUQQkveTV+LEI+9WUYOZK3KKHHSQrdln8bq7wxT2Rrp/mK2N+NuaOjz5XiUqTdxJyXcHLHjy/WqUG0UVqRWtT8roy0VD3KwgIowgbLA3UgOzoNz/vcWfTjTg8X9UcZpMWsdiVWBzrTfI7H4sz0Gr5+YU+r/Cni2w4/9W14oy3oSrMcmNgCSLT0DQrIMfzPFvi/Hr3fVY/KkRVju3RiebVYGLFaQ1ZLaft6zK72eTdd7GyWrKB1xl1fH7yasiekKuiRZtiO1n28045+Nsaax3YfWuel4GAdfbvGyptzbi4y3XnwsxhQjX59uZnbgLgdKQMoaLEgl+C0h494mkF9387glPlBndWH/Q4tN3I3QyfPlCDO4ZxX11OB2LQc9GmJgglQCP367HB7+L8Vhhtz1W7+Y38IoDeoZ3n+j3uPRfQHpMHBfISlVsIbPvb6boff6+Vi3Fqw9E0FgHLuNBtCrmjbG5tj00SgnemRdJIzKZnG144ulpYWKPj5Hqk0be6ncj/jagjUsf728bfLL4vnCvrihMmXmjDh8uiEb3eJnfMQ3k+2y2eYmRzsU9B/VQ4LPnonEzAx+29uiRoMDcyXpRJ7ML63KT32PTLwHRxqbLZEo970VMfGVsfyWNH+eKIb2UWL0ojjrq+Tt7srEr/LVB1AoJXrrfgI9/H4PeidylC3h8Uhj6deElcxQnyJT6Sf6eh/j1mvVJGf0BxPnTBl8QPXvBNAPn7SrkwBNTw/DRwmgkR/v+7NnsTPmaUojM7n1T5Mh8IZo6IEo5tvXJJLGQh2fMIQn6pAy/vMv9FRDR7l5NGqqmyRz4YlBPJVYtisGdI9mvUGSgsvGNInYD28FNrn94gg6fPhtL1SG+yOirwvBU8dZp8Pc8xD8VS6QZ3CUS4LFJvhvmTCGrwOtzIvDmIxEwaJmPYLIKqeTMH71aIaXfYUp8hBQr5kfh6bsNnMSbt8fc28NEa4v4O0Z9FhClPhlKQ4ooBWRsfxV6sdC13/jKiEtlvp8sTxqqwVeLYjEunZnxS1YEOYuBS65lkoeLrBozb9TSvozo43vwV/alpjxWTCH3GtBNnKuI0pAyhoxVX/FZQHSJI2IAdPf5zjxBZrJ7xjAPmz2Sa8O6/Q14Ynk1DfDxlYRIGf42NxIv/yq8XQO+rYI57dGeRy8RoHea7x+u810xOFdox/wV1TQb4+Uy5s9j+mjuz4o4oqcmpn+0r1/2+UlqotOGifH8IypMgjF9mW9jfrzFTFWyKpMbTyyvQn6Jfz5KZAb/cEE0EqM8G/Dd49kb90keNgSIZpOaJMe/n42m8Rv+cDK/STgstkbqPfDJ1jrG371tiAZqcS4iMl3C0KG+ftnnAS5GB0XC1BFaxrX9dmZbcei8/b//XVrjxtylVdhzxj8v4CG9lPhqUQwNf702BQlZXR6ZwN4+mnf79QdzRLDn3KrFv5+L9XtDgjyLp96vovVGWvjxiBXnCuyMvh+ulYo2TZI/Y9XnfUq+Myj6AlGvFt9vYJToze4EnvlX9XVxHTYHsOWolQ7Gob191+NVCgnGD9LQWPgyowtON5CWIsersyIw0ofkEMkxcip4NDOKFOjfRUGTU987VuezuwiaY9o/2WKmSRWuDY8lT+ZiiRPTRnuO0myNRiXBxkNWscSE/Be5JspZemTZFz5915cv8Z1B0Ve6xcnQN4VZ8oWfjltQVOlq82WSgbFioxnltW6ahM6fQ8Hbh2kYJThgwvBUFf1wBZkMXv28hobmehrUJ/MdOHzexijjy4hUNVVxa8zi2tKSKrQj9IkZCnNJFmv92adXH4gMir5wK8NdJMKa/Q3tznTf7LFg0cpqWJlpGUGFyeLG/BWV+Omk9xmf/G3NXmbOnmQlu2mAKNWscH1Shk8ZF30SEL4zKPoCUa9G9mG2epQbXTiR1/6oJ4NjR7aNCokYg4J8hRjhv/ugGsfzmE2oe89YUW9lFjHIRW4xPvB1zPq2ggQggyJbFHLQeiFM2HXayip9554zNry4sppGKQY7tfVuLPigitZSYYrVARw4xyy4ithJYsTXMctaQJoPCEXnYpKWomAc5802BWZTTmAbnnqvitN47kBzpdyJx5dW4kQ+O1Wc/P6fGT6z+EgZLXAkNnw9MGQtINq49FgAqazvxDODejCbueqtTRWpfCH7sgOz3mrK3hFs7My2YvaSSlwq9U3AD+QwLwp6Y39Rqllp2rj0GLZfYi0g+qSM0YHMoMiUAV2ZnQOcvGSjuze+UmN243fvV9FEDsHCt3vr8cLKGr9UxNr6RuQUMZsYiB0iQt8sWXP2T1awFxCBMih6g7wMpss6US/83ae3OUETOfxnt3hjstG8Xf3PjXV48z8mmm3RH8gzY7ry9u+q8CtakS98GbusBEQq14jSg1elAJJjmK0gZ1kYp95wNwJvf2vCig2cFlXlDKIO/fkrI/71o5mzNpka9jq11KNrjJCQsUvGMBtYCYg2bjAZhYPYdoxvEqNkVEiY4I/Xblt8vKUem4/4lhQCzQO5uMp53edqlZMWz/GVVTvM1AmTy1PtPBZ+askx4hMQMna1cYNZ7SCwulgbO7AfWalYd4tnujDMYN5gAy1aySVkAH6924Ipw9kX3iHC8cq/a7DteNs7RHeMVNPKur6c5K87YOHc5eNqtYv2mYlrS0KkKAXEQMaw+eqBU0y/wOrRi9VBkelyXl7r5OXAz9fsjcvXm6hwkIHc1mfjISu1IdjicoO6yXANmWCqTMx+axzHJey4gm0ULDsBSRZniG1sOLOfUW7k5wyjZzuVd9ti02ELLXXWnpvHp9vM2O5hhfEEWXHSeDqLKGOYgzc6THSREBS2WUAZ/wqlPlm0GRQjGAYI1dZzVxO8BYUMeOoOdm5p5wod+PNqZsZ9I4DXVxlZZ6v//T0GqDk+1CbPrrqOmYAYtOIUEDKG2WRcZPwr9EkZyWKMIASLCL16joq6NDYCYRoJJg5RY+Uz0azc4omKt2hlDa3WxBSLrREvrqxhtVWb3kOJzBdiafWtxCj/c3m1YGbok+VLwZ4A0SO8+0TG45jxOqxPHjVajBGEaJ7FmWB3+jZKyOAihukN3RUYkarCiDQl0rurWCVSaIG0w6Qq7PXfk7D+Xo94ORbfH06rG14qceDwBTsOX7DRf5qtjT6tpkwFWykXrYBI9cmjJ5ef+PCfTC5m/Iq1cemic1Bkiy+vbEA3BaYO19DVIppBIBYT+ndVoLCCnT3E1FOgLYhc9UpU0M+sW3Q0U/3eM1ZajXd/jg12BxgLC9NVTGxBU62J6DlpPADuBESq0IlaQJgU5EfzLOwNslJEhUkxrLcSI/o01SFPiube2CWDfctRdoZ3fz8E5FrUSgkt0kk+dRY3jufbceiCHfvPWnGl3LvgMl3FxFoWoZmbtbHpMktFdruzFKO3r08eTZRsQWsQeoNpwUhNG6lzpBKgbxcFdbAb21+Ffl2UtHg/nwzqoaTCyHSWpXl1e/LjRh6mldJcvTRf7wwDCiuc2HfOhn1nbDh20U79t1r3s61n2BZ2FjaWAMTrkzL6WSqyT7d3ISMBCe8+8UYxRhC2YLIw3VlpSgKdECnFmP5qukqQ1YJJDDuX9ElWQqMC40jFMK0EPXnMjtiaLrFyzCKfm3VosLtx6nJTyC0RmgvFTsYhBUJWuWWCPiljTPnJj7gRkLCUMVM46RVPVNQy0+f7d1Xi68UxtBQ013lq2aBUADf2V9PzDSaryE0DVH4lZvAVjVKKkX1U9DP/rqZzJCYJ7Ai1DCctoWj2KfxXe9e1KyBKfTLUkb1ELSClNcwEJFwn9SupGpe89VgkDpy10gpWB3Ps1+nsMimoDfTrW3Q0/60YiItgLqVVJnELSEsAld1c7PW6dgWkOYMiJxVD+aKoMvii/KRoWkXI51yhA0u+qcXJS02HgUN7K2g2lT7J4szExoQgiLzsSca2Pbe40ttF7QpIcwZFUTrWkEk3o4+Sk4IwQtKviwKf/D6GJqyjK8cAtTgPnFgwcYgGDbZGbDnGXSlujpGSsV2Tiy3eLmpXQMTqoEi4ZaAKf/9NlNDd4ASpFLjFz9ShYmJUXxX9SKU12HRYfMnk8Ivjop8CIpIIwhZXCY1KQovCENWE6OchxM1rsyMxPNWCvWdsOHPFjgqTmx42ikFgmIxtr93UJ2Yo+9y7rgIA72WEiAAYtBKkxMjpYZ1WJUGYRko9deMjZNSlPSlKhrgIuU8uHnxADOsqkwt5JU6aMYT0mRjWXJ24s+VSqZOqaVZ7I7rGydErUU5jZZjuPAUCc4ObpmItrnLRXbGKWjf9f2ZrI433J8+xuNLFKi2TH5gufDs9xlvGRa9DrTmDIq/CQWaS6aM1NMds70QF74d0vuByAxVGF/JKHbQkwJXyJqG4VOagyQxaH/rpVBIseTySqheBZMMhC/60qvZ/vApIv5Typui+XgkKdIuX0/SsRHC6xck5rZ7LFL1GSj/e6rcQAVq7z4J/bzdfly+YYwz6pIx0c0nWUU8XeBcQlr7zvvCnORGYOkIctSWcLqC0pmk1IIKQX+psFgQn6ixNc1pbqkHr/1dva8SrXxix4bU4qAI0c9fWu/HWf0zXudyQfpEBdrnMRT8ttDhfJkYRwZFTwekeJ6dxLd3j5XTlFhKiMTx5Rxh1Dn3mXzW8uq1o49KJHeKbgGhi+vPqXjK6r1Iw4XARYTA6cb7IgdNXHDQhQU6Ro0kQJNfrnmx05iqTG7klDgzsFpgsg2cL7PTkmmkfyXVEmIoqXU1b5KebsiYSwSEreJcYGQZ0U2JgVwXSuiioEIUJEN8xdoAat9ygoulf+UKXOMyrj6FHAVHqk6HQxfPqoDhOwHoSD/6tAjlFTeGjrQcWV8ZjIPNCKdpxwmQK+e3EgCYq5JXyBurt2+TAKcGmPyUEpN7htdzYX82rgJAx7u3A0ONPDkQGRV+WcvICL5Y4cCTXTg/YyNC4K0NDg5aq61yIZRgLPX6wGueLuUuJ05oInQRpyYHLUZveU4UYgwRVddxLJRGaiUM0jIXjSpmTbrJkX7bjq51N2V76dpHTOJrBvVSMs8+0wNQ50g9SyVi3m4sr2vqjx5/dnIWOV5P5RL6dFsBsD2IbHL5gpflx95614WrV/9b12Hi4ge4gWe2N2PinOEYJA+4ZrcXKrWa/six64q4M5lWuuIAM3rvp7+E+kR15zvfdxGw7vd7qxgNLKmhivdYr6IEcG+1bmEZCsy4StemWdDWjWvGHLvC3ejRDMy4a8zf/0NYfva0gPtd1Y8q6/RZMGa7xmJW9qNJJa1MQAag0/RJP3pYa1OI9uu1YA2aPaz8zUYxBhodu0+Nfm82c7slLmivNBpoZY7T4bFs95wbtHSM06JnAbPnYfcqKBrvnjQyztZHWI9l+wgqNyoQJg9W4/yYttXfaYt9ZKzYc4j/Fa/NYZycgUoW2G6+9ai6D9tvlVZhzmx63DVLT5AtlRhc1mHedtuLIhV+c+JgO4h+ymAkI4ZEJeqw/aGGcqYMJGWlKegbBFrJKEtWR/ExftrsTo+S4aaCKrrJcoVNLsHAa8yiHHw4xS1RHriGrPRn8G7IakJosp+5CA7opqEOk0eymgkTeDdNgOH+QKrRdPf3N25sMyPaS1QF8/KMZH23+xR7wZ0a/UOykdb7TGWR7VysleGJKGF5fVcvJKkLUivvGsj/dzyl0YPGnNShoDsPtHi/D249FIpVlYU5y753ZNs5WxAfH6xgfehZWOGlUImskQO5VJ3KvNr3/RpYTIkd4HOvelMCAZmZunTDN33bIzMOUO0Zq0SWWG1MrLkJKd13Y4HYDr2XWoLC5XiL5XCl3UYFhm+RuZJoKKRyl/CT2wq9vZS7sZDXgYueOizHgAx7HukcBcTssRbx1h2e2HrcyjjKUy4D5d4b5/XLJ9x+4VcfaDWbt/nrkXr1eEi6VuvDlTna7bDJp06zPxW95/HY9IyOa4HAS1db3/MRC422se3wClvJsj6eLYqfe2ohv9jBfACcN1dCdFX+I1EtoDio2lFS78I/v6jwatf/cWMc6rendo3R0JfOHfl3l+PUtzFMwbzpsoTXmgxVLefZhT3/z+CTNV7N2BlrN4pIvd9SjroH5S3vlV+GI1Pm+tt89SgsNS9+mFRtNXova2J3A8h/YlVdQKoDpo33fRVPKgddnRzAO8SWrx8pt3O4EBpg605Wduzz90eMbNeZvrnM2VK3mrVs8U2tpxOc/MVdRYsJl+OOcCJ9etFQCzGC5tXuu0I7NR9oPJvr5pI11ybh7xmh9yghPVKtnphvQm8XmwHcH6lnn+BITzoaqr0yFO9nbIITK05lvAhBtSFh7kFXkchlzFWXsADXm3a5nrcOP7qeibvpsWPp9HeP7LP3exOp8Iz5C5pPKOHWEGvczPBQkGM1uzs+RAkxD6eFlb3m7wKuAlB59L89lN6/gvFsBwuZoqrLEZnDNmxxG3VCYDl5y3V0j2e2IH8+z4dB55qtC9iUHDp5jN0/dNVLLStBTYmR4+VcRrO7x9+9MqDYHr+3hspuXV55ddcnbNV4FxO2oR+GOxX8EkMV57wLEsTwHNrDYYZFKgf97KBKj+jLzpQrXSTCWZUw821mXXPvRj2awGYqj+qkRY2CmZ0XopPjb45HUXYcpWedtATnl5pGTV7Y9/Scyxr3R7hOsvrC2rmjP65MBMK7KIybI4CIzHdPcWWiuefi3uZEY0rN9XXxahpaVQ93eM1ZksVg9Wjh5yYGfjjMfkMTYvoeBsZ4cLcOnz0YjlUUGFYvNjb+srmV8vQgpLT28dKYxf3O7m1CMppjyEx8aSw8vnUHkhZPuBRiTpRF/WsVO1dKqpFj62ygMT/W8krD1u3K6gGXfm3zS2cl33vuhju5sMWX6GI1XY71LrAwfLohG11h29tM/vjOhqCpoDfPK6vPrJlw9+HYek4sZH7vWFe2rDku5MVtpSJkl1jII3iiocNFwWDY5bpVyCSYN1dIIw7wS53UDm6hhD9zK/Lzgu4P1+O6A7xk+ausbqUrHxI0GzeEEOYUOXG4jIXW/LnKsmB9NDXo2/HSyAcu+5ydMIAA4zcUHZ+RtePgg0y+wejq1l7ZdjEydZpOpDBN96p6AkEF5JNdOc/EmRjGfMeUy4LZBGrr6nGi13UoM4GenG2iIKhPqrW68+InRr2L+5DecLXDQ+BemZy7hWin1hm4RStLv2war8e68KNZZJgsqnHjmwxpWq5iYsJuKXjz/7V2ZjW7mP4CVgLidDTBfzdoflTYjTSJTDPSlk0JCBvm+szZa64NNsBYZXCP6qGimQyJkZJAnRkmx6L4IxuUAVm4109Q3/mJzNIUBMImjAS1wKseWYw30XEghA+bfFYbnZ4RDqWC3jJmtbjz1fjWnns+BxO2wZF5YO/1Fh6Wc1fdYe7Y5LGVwNlRvC+8x8QEA7PYFRQAZ3KcuOXBnhpZ1xSayWkwbpaX1AlsSozHBWO/Gy/820lNnLrhU6sLwPkokMVgJm+Iw3CirceH9+dGYMFjjk4pHbLjDvnjrioNLhbteudNUsJP1D/DJ9dNSkW3TRPc7oo5Knc221roYILNgdZ2LHgyyHSxqpQS3D9PSIjgqhrPwW/+ppYkhuIL0uaTaRSMXmUAE+96xOp+LAWX+bMYXPwetM6K1OmfNPUyN8mvx2Te69vK2gqi0mZUyleFOX9sQiiZd3kljGMYO0LAuLSCVgLFwHL5gw7vr2Nc6b4/iKhf6dVXQ/FbtQewVpv1tDbGWPt1ah+Xrg9Yoh7U696m8DQ9/z8buaI3PAkJuaMzbdCR6wAMSqUx5q6/tCAURkoslTuoTNX6Qpt3ybL7gdoPGdVTyUAqA9P9CsQMzxuh8KgraHsRee3dtLT7ZWu9bcUcR4LKbX73wzbR/OK2+n074FV3jstfBmLdxZ0z/WYkSmUK0Jdq8UVjpwsl8O25NV/s0y3pj8xELvt7NLAzVF2rqGmlq1v5duc2g4nIBf/naiG/28Nd3vnE7LCtyvr59sd1U4Fc7fs89NmM+8jfNXQhgr79tCcXRi3bMW1rFuBAPU4oqXdTdg48cWaRNnVqCi1e53XO12Brx/CfVWLc/eIUDwO6L389+hoxNf+HsEcQNmpeQcvPrhwGkcNVmoIkOk9K8uoM5LJjpcgOXSh00xdHxPDs9xyD2g9PFrognUaPiwqW0lghZMdJ7KJDeg32eKW+UVDvx3Mc1OF8UpAcdTRQU7X5tZPnJj8q4aIzTOSJ1+rcTw1LG/BiMJ+0tKOXA4vvCaZ4pvqhrcNO8v5dKnXT7tbrODVODmxbppwmnFRIaEx6pkyIuUo7uzQmno8L4S1OWV+Kg5xx82EsBxF1XtH9i7rp7f+aqQU4FRKlPRt9ZPy6Ra6Jf4LLdQEM0oqnD1Vh0X7jgiZz5htgba/fX470NdTA3iLsybXvYTUVvXVgz/aX26g6ygdMpiRjt9SXHfo5MnZYhkSl6c9l2ICGzBtHtNx9poGcIbJ35goVLZUSlqsa3exs4O8QUCrfDsil/09x5DdXnOJVyztdsu7m40dlQvSm8x8QZRK3nuv1AUm9tpGGxBeVOGjWokAev1doaYv98vKUOr35uxNVqdzAb4y1cKNz1ylRj/mbOTzN50R8qz2RWV57OnAnAyEf7gYYY2Ep5x1G1pBLgx6MNQet0eA01laczZ1Seyazho3He3nrRntdOGS9tnQyAXVoOEUJWDyEK+fOFVAqabb0DYDJe2np7wY4Xz/B1A94ExO1swJWtC7OsNXnP83WPQHEyn4cU8AJzLI/3rOm8Y63Je/bK1oUec1pxAa96g8tuwuUt8z92Oyzf8HkfvrHYvG99EgOXTfYUvqkyudot68Bz7T/ecTssqy9vmb+SjDE+4V1xcFjKYDcVbY7oPfVOAPF8348Ppo3SYEw/z4kZvtljxtMf1mD7cSs919CpJDTpszSAxi8R0PVZFhqW++46E00gN6SXZzWqus6F43lBuzKeuLL9mXtMhezd19kSsFeYNGpRr4QRT2cF286WUg6s+0MsEtqIvagxu/HFT2as2WehtS9aaGxsOpUfnqrEsFQl+ndVoEe8nHXmRU+4XEBxlROnLjedzh++YL8uRlytAKaO0NIcuwmR18+DVXUu3P16hV8RjgJRWXp46cirB9/2mq6HKwK6wdd72pcTDd3GbQqmGJI543Q02+C1OF3AQ+9UMHLLIAKjkIPWLO+RIEfXWBkSomSINcho2KteI6GZUVpqDTrdjbR+Rr21kVawrTS5qZ9YUWVTxd2CChcsVmZFO7vGyfD14rg2S6h9uLkOH242B5OzrsN0ZcfUi+tnbw/UDQP6bKRyDfrP3vW80pDy10De11diDFJ8+0psm6fpGw5Z8P++8L+uSHuOjFy0/9L9hjbLqBEhvP/NCuobFgzYTUXPnf3ylnfdzsDl4wro5j75Yfmb5r7jspv/Hsj7+kJLUoa2hKORRtnVc3LA1rouSlsfLtr/cmd9m5Wa1EoJXrj3+tVRjLgdlsyL6x/4eyCFA0I4FVoqshvzNjz8HIAtgb43Gwb3VOD2YW0nRrhQ5KCVrIKFgnIXTl9p2569aYAak4cJV46bIWeL9vzxSWvNxYAbTIIcD5uLDzRe3f/WYwCuCnH/9iD6ureZdfvx4IqVIH3d7iUr46L7wjmrTMUDxRWnv7ij8kymIHG/gvlPlB5ddtV4cdO9YsseTwbTGw9GoF+XtmNCiKqy+Wjw5aTdeszq0SHRoJXizw9F+FQygWes1Tlr7i3cseiyUB0Q9JFc3rbggKU8e4GQfbiWmWO0mDDEc86prBwrrlYFX8xERa0bu057Fuwbuisxexz7AqR8YinP/l3BjhcZZ0HkA0EFhBrtGx//2O2wiKLEgloJPDHVeyrRtfstQaVetUD6vG6/d2fXxybqaaCWGHA7LO/lb3z8k0Ab5dci+KJqNxcjf9PcZwDsEbovU4drvEbtma1u7D8XvD5MRy7YaRI7T4RppTStqQjYdfH72c9yGfjkK4ILCMFUsNNetPu1+wAUCtmPYe14uB44Z4M1aJMLNvlf7Tnt3eTjMh7fRwqKdr/2K3NJlij8YEQhIITykx+V1V7a9gixg4XqQ1unza3ZcjS4dq+uhfR9SzsbDDIe8oOxwEXGAFcJF7hANAJCKNz58s/WmryniQoqxP3zSzyfbRRXObGHg+TTQpN13o78Es+Tc26xYBO321qTt7Bw58s7hOpAW4hKQIjOmbfh4fftpqK3hbj/mn0WmCzXy6bTBbz5HxP9Z7DjbgT+vLq2TVWxxuzGt3uFycFrNxW9lbfh4RVisDtaI7rTIZe1Bpby7J2RqdOGS2SK1EDeu97WSD1jeyXIERve5K5OZtRXvzDiYI49qNWr1pQZ3TiYY0O3OBliw+U0RerJfBte+tQoSOUot8OyIX/T3N80VJ4WnWuxaF95zIA5EV3HL8kC0CfQ925sBMK0EsilEq+7PsEO+Z0tiedsDm58v3zgfMHPL46qPJMpyvwFoltBWrBUZFsVuviftXHpDwIIaAA1GSh2J2B1iG5C4xTyO13upo9AwlFbeTpzUsmhdwTdvfSGaAUETSUWKiL73FMh10RNE7ovIbjHWpM3/+L6B7YK3Q9viMpIb4v8jY+udDssq4XuRwhuIe80f+Ojnwrdj/YQ9QpCcFqrYTcV/RjRe+pUAAlC9ycEJxy/sv2Z6XXF+0R/7Cp6ASE0VJ1zyJRhW3WJw+4HECZ0f0L4xdXSw0snl5/8mF01TYEICgFBkzuKURXRc5Mmph8REnG5nYZgSkX1+XXjC3e9nCt0R5gSNAJCMOZtqtQlDD2miujx62DrewiacOGe/E2P85rojWuCbpAZ8zZfikqbWSdTGSYL3ZcQzLFW5z6f+939X/laTFMoRL+LdS3NiR+WAtgkdF9CMGbT5a0Llgod2+ELQbeCoDlbY6PLsSOsy9hfAQiOtBydl6Kr+9+6q+bieu5rYQeAoBQQgrkky6yJ7rdfHZU6J5gS0XUyrMaLm6YW7n4lR+iO+ErQCgiaTtqLDd3GlSh08XcL3ZcQ12Mpz34ib8PDG4LN7mhNUAsIefCmKzuOR6ROs8uU+tuE7k+IX3A2VL2Xu+7+v/hTxF8MBLWAoLkuYu3lbXtj+s+KlsgUGUL3JwTlu/xNc+daKk4FvSu0aN3d2aJPzFD0uXfdFgDjhO5LJ2fHxR8emmy6vF30biRMCPoVpAW7uZjMVtvDUsY8BkD0uTQ7KMaSrHcmVp35UpSxHb4QdOcg3ig7tqLYXHxwrlAx7Z0cN3n25B0I3REu6TArCJqN9rrCveciek1VylSGm4XuT2fCbir6S96Gh98PdqP8WjqUgKDZaDdfzdoZlTZjkESm6Ct0fzoDbofl+4vrZ//Wagx89nW+6XACgqaT9kZnQ/X68B4ThwIIaOKHTsjmwl2v3F97eZsoEr1xTYcUEDTFtDvrS4/+J7zn7RapTJkR6Lj2TkCdy25+LX/DIwtrLq7vEDtWbdFhtnk9IVMa0H3S8tTwHhM/BhCyS7hhV+2lbfMub12Qy3cZZqHp8ALSgj4pQxI3eN5YQ9dbZ0oV2hsB9AKgELpfQQJZIfLcDss+U8HONeUnPtpnvprV4eyNtug0AtIabWw61FG9JVK5tlP+fra4nRa3tfoiUVuF7kqIECHERIc6KAwRgmtCAhIihBdCAhIihBdCAhIihBdCAhIihBdCAhIihBdCAhIihBf+fwAAAP//4UW5VyHdjBsAAAAASUVORK5CYII=;" parent="1" vertex="1">
                    <mxGeometry x="397" y="70" width="56" height="56" as="geometry"/>
                </mxCell>
            </root>
        </mxGraphModel>
    </diagram>
</mxfile>